<?xml version="1.0" encoding="utf-8"?>
<!-- Generator: Adobe Illustrator 18.0.0, SVG Export Plug-In . SVG Version: 6.00 Build 0)  -->
<!DOCTYPE svg PUBLIC "-//W3C//DTD SVG 1.1//EN" "http://www.w3.org/Graphics/SVG/1.1/DTD/svg11.dtd">
<svg version="1.1" id="Layer_1" xmlns="http://www.w3.org/2000/svg" xmlns:xlink="http://www.w3.org/1999/xlink" x="0px" y="0px"
	 viewBox="0 0 25.1 29.2" enable-background="new 0 0 25.1 29.2" xml:space="preserve">
<g id="camera">
	<g>
		<path fill="#FFFFFF" d="M20.3,4H20V1.9c0-1-0.8-1.9-1.9-1.9c-1,0-1.9,0.8-1.9,1.9V4H8.9V1.9C8.9,0.8,8,0,7,0C6,0,5.1,0.8,5.1,1.9
			V4H4.9C2.2,4,0,6.2,0,8.9v15.4c0,2.7,2.2,4.9,4.9,4.9h15.4c2.7,0,4.9-2.2,4.9-4.9V8.9C25.1,6.2,23,4,20.3,4z M17.3,1.9
			c0-0.5,0.4-0.9,0.9-0.9C18.6,1,19,1.4,19,1.9v5.4c0,0.5-0.4,0.9-0.9,0.9c-0.5,0-0.9-0.4-0.9-0.9V1.9z M6.1,1.9C6.1,1.4,6.5,1,7,1
			c0.5,0,0.9,0.4,0.9,0.9v5.4c0,0.5-0.4,0.9-0.9,0.9c-0.5,0-0.9-0.4-0.9-0.9V1.9z M24.1,24.3c0,2.1-1.7,3.9-3.9,3.9H4.9
			c-2.1,0-3.9-1.7-3.9-3.9V8.9C1,6.8,2.7,5,4.9,5h0.3v2.2c0,1,0.8,1.9,1.9,1.9c1,0,1.9-0.8,1.9-1.9V5h7.4v2.2c0,1,0.8,1.9,1.9,1.9
			c1,0,1.9-0.8,1.9-1.9V5h0.3c2.1,0,3.9,1.7,3.9,3.9V24.3z"/>
		<path fill="#FFFFFF" d="M20.6,16.1h-7.5V8.6c0-0.3-0.2-0.5-0.5-0.5s-0.5,0.2-0.5,0.5v7.5H4.5c-0.3,0-0.5,0.2-0.5,0.5
			s0.2,0.5,0.5,0.5h7.5v7.5c0,0.3,0.2,0.5,0.5,0.5s0.5-0.2,0.5-0.5v-7.5h7.5c0.3,0,0.5-0.2,0.5-0.5S20.9,16.1,20.6,16.1z"/>
	</g>
</g>
</svg>
