<?xml version="1.0" encoding="utf-8"?>
<!-- Generator: Adobe Illustrator 18.0.0, SVG Export Plug-In . SVG Version: 6.00 Build 0)  -->
<!DOCTYPE svg PUBLIC "-//W3C//DTD SVG 1.1//EN" "http://www.w3.org/Graphics/SVG/1.1/DTD/svg11.dtd">
<svg version="1.1" id="Layer_1" xmlns="http://www.w3.org/2000/svg" xmlns:xlink="http://www.w3.org/1999/xlink" x="0px" y="0px"
	 viewBox="0 0 40.4 40.4" enable-background="new 0 0 40.4 40.4" xml:space="preserve">
<g id="camera">
	<g>
		<path fill="#FFFFFF" d="M20.2,0C9.1,0,0,9.1,0,20.2c0,11.1,9.1,20.2,20.2,20.2c11.1,0,20.2-9.1,20.2-20.2C40.4,9.1,31.3,0,20.2,0z
			 M39.4,20.2c0,10.6-8.6,19.2-19.2,19.2S1,30.8,1,20.2S9.6,1,20.2,1S39.4,9.6,39.4,20.2z"/>
		<path fill="#FFFFFF" d="M16.7,19.2c0-0.3-0.2-0.5-0.5-0.5c-3.7,0-6.7-3-6.7-6.7c0-0.3-0.2-0.5-0.5-0.5S8.5,11.8,8.5,12
			c0,4.2,3.5,7.7,7.7,7.7C16.5,19.7,16.7,19.5,16.7,19.2z"/>
		<path fill="#FFFFFF" d="M20,25.8c-3.3,0-6.3,1.3-8.6,3.6c-0.1,0.1-0.1,0.2-0.1,0.4s0.1,0.3,0.1,0.4c0.2,0.2,0.5,0.2,0.7,0
			c2.1-2.1,4.9-3.3,7.9-3.3c3,0,5.8,1.2,7.9,3.3c0.1,0.1,0.2,0.1,0.4,0.1s0.3-0.1,0.4-0.1c0.1-0.1,0.1-0.2,0.1-0.4s-0.1-0.3-0.1-0.4
			C26.3,27.1,23.2,25.8,20,25.8z"/>
		<path fill="#FFFFFF" d="M31.4,11.5c-0.3,0-0.5,0.2-0.5,0.5c0,3.7-3,6.7-6.7,6.7c-0.3,0-0.5,0.2-0.5,0.5s0.2,0.5,0.5,0.5
			c4.2,0,7.7-3.5,7.7-7.7C31.9,11.8,31.7,11.5,31.4,11.5z"/>
	</g>
</g>
</svg>
