<?xml version="1.0" encoding="utf-8"?>
<!-- Generator: Adobe Illustrator 18.0.0, SVG Export Plug-In . SVG Version: 6.00 Build 0)  -->
<!DOCTYPE svg PUBLIC "-//W3C//DTD SVG 1.1//EN" "http://www.w3.org/Graphics/SVG/1.1/DTD/svg11.dtd">
<svg version="1.1" id="Layer_1" xmlns="http://www.w3.org/2000/svg" xmlns:xlink="http://www.w3.org/1999/xlink" x="0px" y="0px"
	 viewBox="0 0 39.7 31.2" enable-background="new 0 0 39.7 31.2" xml:space="preserve">
<g id="camera">
	<path fill="#353535" d="M19.8,12.7c-3.2,0-5.7,2.6-5.7,5.7s2.6,5.7,5.7,5.7s5.7-2.6,5.7-5.7S23,12.7,19.8,12.7z M37.8,5.2h-5.7
		c-0.9,0-1.6-0.6-1.8-1.5l-0.4-2.2C29.7,0.6,29,0,28.1,0H11.6C10.7,0,10,0.6,9.8,1.5L9.3,3.7C9.2,4.6,8.4,5.2,7.5,5.2H1.8
		C0.8,5.2,0,6,0,7v22.3c0,1,0.8,1.8,1.8,1.8h36c1,0,1.8-0.8,1.8-1.8V7C39.7,6,38.8,5.2,37.8,5.2z M28.7,19c-0.3,4.4-3.9,8-8.3,8.3
		c-5.4,0.3-9.8-4.1-9.5-9.5c0.3-4.4,3.9-8,8.3-8.3C24.6,9.2,29.1,13.6,28.7,19z M37.9,9.3c-0.1,0.8-0.8,1.4-1.5,1.5
		C35,11,33.8,9.9,34.1,8.5c0.1-0.8,0.8-1.4,1.5-1.5C37,6.7,38.1,7.9,37.9,9.3z"/>
</g>
</svg>
