<?xml version="1.0" encoding="utf-8"?>
<!-- Generator: Adobe Illustrator 18.0.0, SVG Export Plug-In . SVG Version: 6.00 Build 0)  -->
<!DOCTYPE svg PUBLIC "-//W3C//DTD SVG 1.1//EN" "http://www.w3.org/Graphics/SVG/1.1/DTD/svg11.dtd">
<svg version="1.1" id="Layer_1" xmlns="http://www.w3.org/2000/svg" xmlns:xlink="http://www.w3.org/1999/xlink" x="0px" y="0px"
	 viewBox="0 0 31.5 31.5" enable-background="new 0 0 31.5 31.5" xml:space="preserve">
<g>
	<path fill="none" d="M15.7,1C7.6,1,1,7.6,1,15.7c0,8.1,6.6,14.7,14.7,14.7c8.1,0,14.7-6.6,14.7-14.7C30.5,7.6,23.9,1,15.7,1z
		 M22.2,21.4c0.2,0.2,0.2,0.5,0,0.7c-0.1,0.1-0.2,0.1-0.4,0.1s-0.3,0-0.4-0.1l-5.7-5.7L10,22.2c-0.1,0.1-0.2,0.1-0.4,0.1
		s-0.3,0-0.4-0.1c-0.2-0.2-0.2-0.5,0-0.7l5.7-5.7L9.3,10c-0.2-0.2-0.2-0.5,0-0.7s0.5-0.2,0.7,0l5.7,5.7l5.7-5.7
		c0.2-0.2,0.5-0.2,0.7,0s0.2,0.5,0,0.7l-5.7,5.7L22.2,21.4z"/>
	<path fill="#343534" d="M15.7,0C7.1,0,0,7.1,0,15.7s7.1,15.7,15.7,15.7s15.7-7.1,15.7-15.7S24.4,0,15.7,0z M15.7,30.5
		C7.6,30.5,1,23.9,1,15.7C1,7.6,7.6,1,15.7,1c8.1,0,14.7,6.6,14.7,14.7C30.5,23.9,23.9,30.5,15.7,30.5z"/>
	<path fill="#343534" d="M22.2,9.3c-0.2-0.2-0.5-0.2-0.7,0L15.7,15L10,9.3c-0.2-0.2-0.5-0.2-0.7,0s-0.2,0.5,0,0.7l5.7,5.7l-5.7,5.7
		c-0.2,0.2-0.2,0.5,0,0.7c0.1,0.1,0.2,0.1,0.4,0.1s0.3,0,0.4-0.1l5.7-5.7l5.7,5.7c0.1,0.1,0.2,0.1,0.4,0.1s0.3,0,0.4-0.1
		c0.2-0.2,0.2-0.5,0-0.7l-5.7-5.7l5.7-5.7C22.4,9.8,22.4,9.5,22.2,9.3z"/>
</g>
</svg>
