<?xml version="1.0" encoding="utf-8"?>
<!-- Generator: Adobe Illustrator 18.0.0, SVG Export Plug-In . SVG Version: 6.00 Build 0)  -->
<!DOCTYPE svg PUBLIC "-//W3C//DTD SVG 1.1//EN" "http://www.w3.org/Graphics/SVG/1.1/DTD/svg11.dtd">
<svg version="1.1" id="Layer_1" xmlns="http://www.w3.org/2000/svg" xmlns:xlink="http://www.w3.org/1999/xlink" x="0px" y="0px"
	 viewBox="0 0 32.4 37.6" enable-background="new 0 0 32.4 37.6" xml:space="preserve">
<g id="camera">
	<path fill="#353535" d="M26.2,5.3h-0.5v-3c0-1.2-1-2.3-2.3-2.3c-1.2,0-2.3,1-2.3,2.3v3h-10v-3c0-1.2-1-2.3-2.3-2.3
		C7.7,0,6.7,1,6.7,2.3v3H6.2C2.8,5.3,0,8,0,11.4v20c0,3.4,2.8,6.2,6.2,6.2h20c3.4,0,6.2-2.8,6.2-6.2v-20C32.4,8,29.6,5.3,26.2,5.3z
		 M22.2,2.3c0-0.7,0.6-1.3,1.3-1.3s1.3,0.6,1.3,1.3v7c0,0.7-0.6,1.3-1.3,1.3s-1.3-0.6-1.3-1.3V2.3z M7.7,2.3C7.7,1.6,8.3,1,8.9,1
		s1.3,0.6,1.3,1.3v7c0,0.7-0.6,1.3-1.3,1.3S7.7,10,7.7,9.3V2.3z M31.4,31.5c0,2.9-2.3,5.2-5.2,5.2h-20c-2.9,0-5.2-2.3-5.2-5.2v-20
		c0-2.9,2.3-5.2,5.2-5.2h0.5v3c0,1.2,1,2.3,2.3,2.3c1.2,0,2.3-1,2.3-2.3v-3h10v3c0,1.2,1,2.3,2.3,2.3c1.2,0,2.3-1,2.3-2.3v-3h0.5
		c2.9,0,5.2,2.3,5.2,5.2V31.5z M23.9,15.3c-0.2-0.2-0.5-0.2-0.7,0l-7,7l-7-7c-0.2-0.2-0.5-0.2-0.7,0s-0.2,0.5,0,0.7l7,7l-7,7
		c-0.2,0.2-0.2,0.5,0,0.7s0.5,0.2,0.7,0l7-7l7,7c0.1,0.1,0.2,0.1,0.4,0.1s0.3,0,0.4-0.1c0.2-0.2,0.2-0.5,0-0.7l-7-7l7-7
		C24.1,15.8,24.1,15.5,23.9,15.3z"/>
</g>
</svg>
