<?xml version="1.0" encoding="utf-8"?>
<!-- Generator: Adobe Illustrator 18.0.0, SVG Export Plug-In . SVG Version: 6.00 Build 0)  -->
<!DOCTYPE svg PUBLIC "-//W3C//DTD SVG 1.1//EN" "http://www.w3.org/Graphics/SVG/1.1/DTD/svg11.dtd">
<svg version="1.1" id="Layer_1" xmlns="http://www.w3.org/2000/svg" xmlns:xlink="http://www.w3.org/1999/xlink" x="0px" y="0px"
	 viewBox="0 0 23.9 35.4" enable-background="new 0 0 23.9 35.4" xml:space="preserve">
<g id="camera">
	<path fill="#FFFFFF" d="M11.9,0C5.3,0,0,5.3,0,11.9c0,6.6,10.3,23.4,11.9,23.4s11.9-16.9,11.9-23.4C23.9,5.3,18.5,0,11.9,0z
		 M8.6,12.5l2.9,2.9c0.1,0.1,0.2,0.1,0.4,0.1s0.3,0,0.4-0.1l6-6c0.3,0.8,0.5,1.6,0.5,2.5c0,3.8-3.1,6.9-6.9,6.9
		c-3.8,0-6.9-3.1-6.9-6.9C5,8.1,8.1,5,11.9,5c2.5,0,4.7,1.4,5.9,3.4l-5.9,5.9l-2.6-2.6c-0.2-0.2-0.5-0.2-0.7,0S8.4,12.3,8.6,12.5z"
		/>
</g>
</svg>
