<?xml version="1.0" encoding="utf-8"?>
<!-- Generator: Adobe Illustrator 18.0.0, SVG Export Plug-In . SVG Version: 6.00 Build 0)  -->
<!DOCTYPE svg PUBLIC "-//W3C//DTD SVG 1.1//EN" "http://www.w3.org/Graphics/SVG/1.1/DTD/svg11.dtd">
<svg version="1.1" id="Layer_1" xmlns="http://www.w3.org/2000/svg" xmlns:xlink="http://www.w3.org/1999/xlink" x="0px" y="0px"
	 viewBox="0 0 34.2 34.2" enable-background="new 0 0 34.2 34.2" xml:space="preserve">
<g>
	<circle fill="#FFDA64" cx="17.1" cy="17.1" r="17.1"/>
	<circle fill="#F9EFD2" cx="17.1" cy="17.1" r="14.9"/>
	<circle fill="#FFCB07" cx="16.5" cy="16.5" r="14.3"/>
	<circle fill="#FFDA64" cx="17.5" cy="17.5" r="14.1"/>
	<path fill="#FFCB07" d="M17.1,15c0-2.3,1.9-4.1,4.2-3.9c2,0.2,3.5,1.9,3.5,4v0c0,4.1-3.9,8.9-7.8,10.4c-3.8-1.5-7.8-6.3-7.8-10.4v0
		c0-2,1.5-3.8,3.5-4C15.2,11,17.1,12.8,17.1,15z"/>
	<path fill="#F9EFD2" d="M17.4,15.4c0-2.2,1.9-3.9,4.1-3.7c2,0.2,3.4,1.9,3.4,3.8v0c0,4-3.8,8.6-7.5,10.1c-3.7-1.5-7.5-6.1-7.5-10.1
		v0c0-2,1.5-3.7,3.4-3.8C15.5,11.5,17.4,13.2,17.4,15.4z"/>
	<path fill="#FFDA64" d="M16.9,15.2c0-2.1,1.8-3.7,3.8-3.5c1.8,0.2,3.2,1.8,3.2,3.6v0c0,3.8-3.6,8.1-7.1,9.5
		c-3.5-1.4-7.1-5.7-7.1-9.5v0c0-1.8,1.4-3.4,3.2-3.6C15.2,11.5,16.9,13.1,16.9,15.2z"/>
</g>
</svg>
