<?xml version="1.0" encoding="utf-8"?>
<!-- Generator: Adobe Illustrator 18.0.0, SVG Export Plug-In . SVG Version: 6.00 Build 0)  -->
<!DOCTYPE svg PUBLIC "-//W3C//DTD SVG 1.1//EN" "http://www.w3.org/Graphics/SVG/1.1/DTD/svg11.dtd">
<svg version="1.1" id="Layer_1" xmlns="http://www.w3.org/2000/svg" xmlns:xlink="http://www.w3.org/1999/xlink" x="0px" y="0px"
	 viewBox="0 0 39 12.4" enable-background="new 0 0 39 12.4" xml:space="preserve">
<g id="camera">
	<path fill="#FFFFFF" d="M39,0.3C38.9,0.1,38.7,0,38.5,0h-38C0.3,0,0.1,0.1,0.1,0.3C0,0.4,0,0.6,0.1,0.8
		c5.2,7.5,12.1,11.7,19.4,11.7c7.4,0,14.3-4.1,19.4-11.7C39.1,0.6,39.1,0.4,39,0.3z M27,1c-0.3,3.9-3.5,7-7.5,7S12.3,4.9,12,1H27z
		 M19.5,11.4C12.8,11.4,6.4,7.7,1.5,1H11c0.3,4.5,4,8,8.5,8c4.5,0,8.2-3.6,8.5-8h9.6C32.7,7.7,26.3,11.4,19.5,11.4z"/>
</g>
</svg>
