<?xml version="1.0" encoding="utf-8"?>
<!-- Generator: Adobe Illustrator 18.0.0, SVG Export Plug-In . SVG Version: 6.00 Build 0)  -->
<!DOCTYPE svg PUBLIC "-//W3C//DTD SVG 1.1//EN" "http://www.w3.org/Graphics/SVG/1.1/DTD/svg11.dtd">
<svg version="1.1" id="Layer_1" xmlns="http://www.w3.org/2000/svg" xmlns:xlink="http://www.w3.org/1999/xlink" x="0px" y="0px"
	 viewBox="0 0 2592 1728" enable-background="new 0 0 2592 1728" xml:space="preserve">
<g id="camera">
	<path fill="#FFFFFF" d="M1755.6,243.6h-23V105.7c0-55.1-46-105.7-105.7-105.7s-105.7,46-105.7,105.7v137.9h-459.6V105.7
		c0-55.1-46-105.7-105.7-105.7S850.2,46,850.2,105.7v137.9h-13.8c-156.3,0-284.9,128.7-284.9,284.9v919.1
		c0,156.3,128.7,284.9,284.9,284.9h919.1c156.3,0,284.9-128.7,284.9-284.9V528.5C2040.5,372.3,1911.8,243.6,1755.6,243.6z
		 M1571.7,105.7c0-32.2,27.6-59.7,59.7-59.7s59.7,27.6,59.7,59.7v321.7c0,32.2-27.6,59.7-59.7,59.7s-59.7-27.6-59.7-59.7V105.7z
		 M905.4,105.7c0-32.2,27.6-59.7,59.7-59.7c32.2,0,59.7,27.6,59.7,59.7v321.7c0,32.2-27.6,59.7-59.7,59.7
		c-32.2,0-59.7-27.6-59.7-59.7V105.7z M1994.6,1447.7c0,133.3-105.7,239-239,239H836.4c-133.3,0-239-105.7-239-239V528.5
		c0-133.3,105.7-239,239-239h23v137.9c0,55.1,46,105.7,105.7,105.7s105.7-46,105.7-105.7V289.5h459.6v137.9
		c0,55.1,46,105.7,105.7,105.7s105.7-46,105.7-105.7V289.5h23c133.3,0,239,105.7,239,239v919.1H1994.6z M1709.6,726.1l-574.5,574.5
		l-252.8-252.8c-9.2-9.2-23-9.2-32.2,0c-9.2,9.2-9.2,23,0,32.2l266.6,266.6c4.6,4.6,9.2,4.6,18.4,4.6c9.2,0,13.8-4.6,18.4-4.6
		l592.9-592.9c9.2-9.2,9.2-23,0-32.2S1718.8,716.9,1709.6,726.1z"/>
</g>
</svg>
