<?xml version="1.0" encoding="utf-8"?>
<!-- Generator: Adobe Illustrator 18.0.0, SVG Export Plug-In . SVG Version: 6.00 Build 0)  -->
<!DOCTYPE svg PUBLIC "-//W3C//DTD SVG 1.1//EN" "http://www.w3.org/Graphics/SVG/1.1/DTD/svg11.dtd">
<svg version="1.1" id="Layer_1" xmlns="http://www.w3.org/2000/svg" xmlns:xlink="http://www.w3.org/1999/xlink" x="0px" y="0px"
	 viewBox="1912.2 995.2 33.7 39.2" enable-background="new 1912.2 995.2 33.7 39.2" xml:space="preserve">
<g>
	<g>
		<path fill="#EC1C24" d="M1929,1014.8c0-2.8,2.4-5.1,5.3-4.8c2.5,0.2,4.4,2.4,4.4,5l0,0c0,5.2-4.9,11.1-9.7,13
			c-4.8-1.9-9.7-7.8-9.7-13l0,0c0-2.5,1.9-4.7,4.4-5C1926.6,1009.7,1929,1012,1929,1014.8z"/>
	</g>
	<path fill="#FFFFFF" d="M1939.5,1000.7h-0.5v-3.1c0-1.3-1-2.3-2.3-2.3s-2.3,1-2.3,2.3v3.1h-10.4v-3.1c0-1.3-1-2.3-2.3-2.3
		c-1.3,0-2.3,1-2.3,2.3v3.1h-0.5c-3.5,0-6.4,2.9-6.4,6.4v20.8c0,3.5,2.9,6.4,6.4,6.4h20.8c3.5,0,6.4-2.9,6.4-6.4v-20.8
		C1945.9,1003.6,1943,1000.7,1939.5,1000.7z M1935.3,997.6c0-0.7,0.6-1.3,1.3-1.3s1.3,0.6,1.3,1.3v7.3c0,0.7-0.6,1.3-1.3,1.3
		s-1.3-0.6-1.3-1.3V997.6z M1921.5,996.2c0.7,0,1.3,0.6,1.3,1.3v7.3c0,0.7-0.6,1.3-1.3,1.3s-1.3-0.6-1.3-1.3v-3.6c0,0,0,0,0,0
		s0,0,0,0v-3.6C1920.2,996.8,1920.8,996.2,1921.5,996.2z M1944.9,1028c0,3-2.4,5.4-5.4,5.4h-20.8c-3,0-5.4-2.4-5.4-5.4v-20.8
		c0-3,2.4-5.4,5.4-5.4h0.5v3.1c0,1.3,1,2.3,2.3,2.3c1.3,0,2.3-1,2.3-2.3v-3.1h10.4v3.1c0,1.3,1,2.3,2.3,2.3s2.3-1,2.3-2.3v-3.1h0.5
		c3,0,5.4,2.4,5.4,5.4V1028z"/>
</g>
</svg>
