<?xml version="1.0" encoding="utf-8"?>
<!-- Generator: Adobe Illustrator 18.0.0, SVG Export Plug-In . SVG Version: 6.00 Build 0)  -->
<!DOCTYPE svg PUBLIC "-//W3C//DTD SVG 1.1//EN" "http://www.w3.org/Graphics/SVG/1.1/DTD/svg11.dtd">
<svg version="1.1" id="Layer_1" xmlns="http://www.w3.org/2000/svg" xmlns:xlink="http://www.w3.org/1999/xlink" x="0px" y="0px"
	 viewBox="0 0 33.7 39.2" enable-background="new 0 0 33.7 39.2" xml:space="preserve">
<g id="camera">
	<path fill="#FFFFFF" d="M22.2,14.2c-2.3-0.2-4.4,1.1-5.3,3.1c-0.9-2-3-3.3-5.3-3.1c-2.7,0.2-4.9,2.6-4.9,5.5
		c0,5.6,5.3,11.6,10,13.5c0.1,0,0.1,0,0.2,0s0.1,0,0.2,0c4.7-1.9,10-7.9,10-13.5C27.1,16.8,24.9,14.4,22.2,14.2z M16.8,32.1
		c-4.4-1.9-9.2-7.4-9.2-12.5c0-2.3,1.7-4.3,4-4.5c0.1,0,0.3,0,0.4,0c2.4,0,4.4,2,4.4,4.4c0,0.3,0.2,0.5,0.5,0.5s0.5-0.2,0.5-0.5
		c0-2.5,2.2-4.6,4.8-4.3c2.2,0.2,4,2.2,4,4.5C26.1,24.8,21.2,30.3,16.8,32.1z M27.3,5.5h-0.5V2.3c0-1.3-1-2.3-2.3-2.3
		s-2.3,1-2.3,2.3v3.1H11.6V2.3c0-1.3-1-2.3-2.3-2.3C8,0,7,1,7,2.3v3.1H6.4C2.9,5.5,0,8.4,0,11.9v20.8c0,3.5,2.9,6.4,6.4,6.4h20.8
		c3.5,0,6.4-2.9,6.4-6.4V11.9C33.7,8.4,30.8,5.5,27.3,5.5z M23.1,2.3c0-0.7,0.6-1.3,1.3-1.3s1.3,0.6,1.3,1.3v7.3
		c0,0.7-0.6,1.3-1.3,1.3s-1.3-0.6-1.3-1.3V2.3z M8,6C8,6,8,6,8,6C8,6,8,6,8,6V2.3C8,1.6,8.6,1,9.3,1s1.3,0.6,1.3,1.3v7.3
		c0,0.7-0.6,1.3-1.3,1.3S8,10.4,8,9.6V6z M32.7,32.8c0,3-2.4,5.4-5.4,5.4H6.4c-3,0-5.4-2.4-5.4-5.4V11.9c0-3,2.4-5.4,5.4-5.4H7v3.1
		C7,10.9,8,12,9.3,12c1.3,0,2.3-1,2.3-2.3V6.5h10.4v3.1c0,1.3,1,2.3,2.3,2.3s2.3-1,2.3-2.3V6.5h0.5c3,0,5.4,2.4,5.4,5.4V32.8z"/>
</g>
</svg>
