<?xml version="1.0" encoding="utf-8"?>
<!-- Generator: Adobe Illustrator 18.0.0, SVG Export Plug-In . SVG Version: 6.00 Build 0)  -->
<!DOCTYPE svg PUBLIC "-//W3C//DTD SVG 1.1//EN" "http://www.w3.org/Graphics/SVG/1.1/DTD/svg11.dtd">
<svg version="1.1" id="Layer_1" xmlns="http://www.w3.org/2000/svg" xmlns:xlink="http://www.w3.org/1999/xlink" x="0px" y="0px"
	 viewBox="0 0 22.1 25.7" enable-background="new 0 0 22.1 25.7" xml:space="preserve">
<g id="camera">
	<g>
		<path fill="#FFFFFF" d="M17.8,3.5h-0.2V1.7C17.6,0.8,16.9,0,16,0s-1.7,0.8-1.7,1.7v1.9H7.9V1.7C7.9,0.8,7.1,0,6.2,0
			S4.5,0.8,4.5,1.7v1.9H4.3C1.9,3.5,0,5.5,0,7.9v13.5c0,2.4,1.9,4.3,4.3,4.3h13.5c2.4,0,4.3-1.9,4.3-4.3V7.9
			C22.1,5.5,20.2,3.5,17.8,3.5z M15.3,1.7C15.3,1.3,15.6,1,16,1s0.7,0.3,0.7,0.7V4c0,0,0,0,0,0s0,0,0,0v2.4c0,0.4-0.3,0.7-0.7,0.7
			s-0.7-0.3-0.7-0.7V1.7z M5.5,1.7C5.5,1.3,5.8,1,6.2,1s0.7,0.3,0.7,0.7V4c0,0,0,0,0,0s0,0,0,0v2.4c0,0.4-0.3,0.7-0.7,0.7
			S5.5,6.8,5.5,6.4V1.7z M21.1,21.4c0,1.8-1.5,3.3-3.3,3.3H4.3c-1.8,0-3.3-1.5-3.3-3.3V7.9C1,6,2.5,4.5,4.3,4.5h0.2v1.9
			c0,0.9,0.8,1.7,1.7,1.7s1.7-0.8,1.7-1.7V4.5h6.4v1.9c0,0.9,0.8,1.7,1.7,1.7s1.7-0.8,1.7-1.7V4.5h0.2c1.8,0,3.3,1.5,3.3,3.3V21.4z"
			/>
		<path fill="#FFFFFF" d="M11.1,8.7c-3.6,0-6.6,2.9-6.6,6.6s2.9,6.6,6.6,6.6s6.6-2.9,6.6-6.6S14.7,8.7,11.1,8.7z M11.1,20.8
			c-3.1,0-5.6-2.5-5.6-5.6c0-3.1,2.5-5.6,5.6-5.6c2,0,3.8,1.1,4.8,2.7l-4.8,4.8L9,15.1c-0.2-0.2-0.5-0.2-0.7,0s-0.2,0.5,0,0.7
			l2.4,2.4c0.1,0.1,0.2,0.1,0.4,0.1s0.3-0.1,0.4-0.1l4.9-4.9c0.2,0.6,0.3,1.2,0.3,1.9C16.6,18.3,14.1,20.8,11.1,20.8z"/>
	</g>
</g>
</svg>
