<?xml version="1.0" encoding="utf-8"?>
<!-- Generator: Adobe Illustrator 18.0.0, SVG Export Plug-In . SVG Version: 6.00 Build 0)  -->
<!DOCTYPE svg PUBLIC "-//W3C//DTD SVG 1.1//EN" "http://www.w3.org/Graphics/SVG/1.1/DTD/svg11.dtd">
<svg version="1.1" id="Layer_1" xmlns="http://www.w3.org/2000/svg" xmlns:xlink="http://www.w3.org/1999/xlink" x="0px" y="0px"
	 viewBox="0 0 197.1 147.5" enable-background="new 0 0 197.1 147.5" xml:space="preserve">
<g id="camera">
	<g>
		<polygon fill="#FFFFFF" points="123.1,143.2 99.1,143.2 99.1,147.1 124.5,147.1 		"/>
		<polygon fill="#FFFFFF" points="98.6,143.2 74.6,143.2 73.4,147.1 98.7,147.1 		"/>
		<polygon fill="#FFFFFF" points="147.5,143.2 123.5,143.2 124.9,147.1 150.2,147.1 		"/>
		<polygon fill="#FFFFFF" points="77,134.5 77.6,132.4 57.3,132.4 56,134.5 		"/>
		<polygon fill="#FFFFFF" points="140.6,132.4 142,134.5 163,134.5 161,132.4 		"/>
		<polygon fill="#FFFFFF" points="140.1,132.4 119.7,132.4 120.4,134.5 141.5,134.5 		"/>
		<polygon fill="#FFFFFF" points="121.9,138.5 123.4,142.8 147.2,142.8 144.3,138.5 		"/>
		<polygon fill="#FFFFFF" points="120.6,134.9 121.7,138.1 144,138.1 141.8,134.9 		"/>
		<polygon fill="#FFFFFF" points="74.3,142.8 75.7,138.5 53.3,138.5 50.5,142.8 		"/>
		<polygon fill="#FFFFFF" points="163.4,134.9 142.3,134.9 144.5,138.1 166.7,138.1 		"/>
		<polygon fill="#FFFFFF" points="55.5,134.5 56.8,132.4 36.6,132.4 34.6,134.5 		"/>
		<polygon fill="#FFFFFF" points="73,147.1 74.2,143.2 50.2,143.2 47.7,147.1 		"/>
		<polygon fill="#FFFFFF" points="75.8,138.1 76.8,134.9 55.7,134.9 53.6,138.1 		"/>
		<polygon fill="#FFFFFF" points="121.4,138.5 99,138.5 99,142.8 122.9,142.8 		"/>
		<polygon fill="#FFFFFF" points="7.1,138.5 0,138.5 0,142.8 1.4,142.8 		"/>
		<polygon fill="#FFFFFF" points="98.6,142.8 98.6,138.5 76.1,138.5 74.8,142.8 		"/>
		<polygon fill="#FFFFFF" points="190.2,138.1 197.1,138.1 197.1,134.9 185.8,134.9 		"/>
		<polygon fill="#FFFFFF" points="15.3,132.4 0.2,132.4 0,132.5 0,134.5 12.6,134.5 		"/>
		<polygon fill="#FFFFFF" points="197.1,143.3 197.1,143.2 197,143.2 		"/>
		<polygon fill="#FFFFFF" points="196.5,142.8 197.1,142.8 197.1,138.5 190.7,138.5 		"/>
		<polygon fill="#FFFFFF" points="172.5,143.2 176.4,147.1 197.1,147.1 197.1,143.8 196.4,143.2 		"/>
		<polygon fill="#FFFFFF" points="12,134.9 0,134.9 0,138.1 7.7,138.1 		"/>
		<polygon fill="#FFFFFF" points="185.3,134.5 197.1,134.5 197.1,132.4 182.5,132.4 		"/>
		<polygon fill="#FFFFFF" points="120.1,134.9 98.9,134.9 99,138.1 121.3,138.1 		"/>
		<polygon fill="#FFFFFF" points="98.8,132.4 98.9,134.5 120,134.5 119.3,132.4 		"/>
		<polygon fill="#FFFFFF" points="53.1,138.1 55.2,134.9 34.2,134.9 30.9,138.1 		"/>
		<polygon fill="#FFFFFF" points="98.5,134.5 98.4,132.4 78,132.4 77.4,134.5 		"/>
		<polygon fill="#FFFFFF" points="25.3,143.2 1.5,143.2 0,144.3 0,147.1 21.4,147.1 		"/>
		<polygon fill="#FFFFFF" points="0,143.2 0,143.8 0.8,143.2 		"/>
		<polygon fill="#FFFFFF" points="98.5,138.1 98.5,134.9 77.3,134.9 76.2,138.1 		"/>
		<polygon fill="#FFFFFF" points="7.8,138.5 2,142.8 25.7,142.8 30,138.5 		"/>
		<polygon fill="#FFFFFF" points="176.1,132.4 161.6,132.4 163.6,134.5 184.6,134.5 181.8,132.4 176.1,132.4 		"/>
		<polygon fill="#FFFFFF" points="33.6,134.9 12.7,134.9 8.3,138.1 30.4,138.1 		"/>
		<polygon fill="#FFFFFF" points="36,132.4 20.6,132.4 20.6,132.4 16,132.4 13.3,134.5 34,134.5 		"/>
		<polygon fill="#FFFFFF" points="148,143.2 150.7,147.1 175.9,147.1 171.9,143.2 		"/>
		<polygon fill="#FFFFFF" points="144.8,138.5 147.7,142.8 171.5,142.8 167.2,138.5 		"/>
		<polygon fill="#FFFFFF" points="172.1,142.8 195.8,142.8 190.1,138.5 167.7,138.5 		"/>
		<polygon fill="#FFFFFF" points="52.8,138.5 30.5,138.5 26.3,142.8 50,142.8 		"/>
		<polygon fill="#FFFFFF" points="47.2,147.1 49.7,143.2 25.8,143.2 22,147.1 		"/>
		<polygon fill="#FFFFFF" points="167.3,138.1 189.5,138.1 185.1,134.9 164,134.9 		"/>
		<path fill="#FFFFFF" d="M76.2,64.5c0,4.1-3.3,7.4-7.4,7.4c-4.1,0-7.4-3.3-7.4-7.4c0,4.1-3.3,7.4-7.4,7.4c-4.1,0-7.4-3.3-7.4-7.4
			c0,4.1-3.3,7.4-7.4,7.4s-7.4-3.3-7.4-7.4c0,4.1-3.3,7.4-7.4,7.4c-0.2,0-0.3,0-0.5,0V86h59.4V71.9C79.4,71.8,76.2,68.5,76.2,64.5z"
			/>
		<path fill="#FFFFFF" d="M164.9,64.5c0,4.1-3.3,7.4-7.4,7.4s-7.4-3.3-7.4-7.4V86h22.1V71.9C168.2,71.9,164.9,68.6,164.9,64.5z"/>
		<path fill="#FFFFFF" d="M146.3,70.9C146.3,71,146.3,71,146.3,70.9c-0.1,0.1-0.3,0.1-0.4,0.2c-0.1,0-0.2,0.1-0.2,0.1
			c-0.1,0-0.2,0.1-0.3,0.1c-0.1,0-0.2,0.1-0.3,0.1c-0.1,0-0.2,0.1-0.3,0.1c-0.1,0-0.2,0.1-0.4,0.1c-0.1,0-0.2,0-0.3,0.1
			c-0.1,0-0.3,0-0.4,0.1c-0.1,0-0.2,0-0.2,0c-0.2,0-0.5,0-0.7,0c-4.1,0-7.4-3.3-7.4-7.4c0,4.1-3.3,7.4-7.4,7.4
			c-4.1,0-7.4-3.3-7.4-7.4c0,4.1-3.3,7.4-7.4,7.4s-7.4-3.3-7.4-7.4c0,4.1-3.3,7.4-7.4,7.4c-4.1,0-7.4-3.3-7.4-7.4c0,0.3,0,0.7-0.1,1
			c0,0.1,0,0.2,0,0.2c-0.1,0.3-0.1,0.6-0.2,0.9c0,0,0,0,0,0c-0.1,0.3-0.2,0.6-0.4,0.9c0,0.1-0.1,0.1-0.1,0.2
			c-0.1,0.3-0.3,0.6-0.5,0.8c0,0,0,0,0,0c-0.2,0.3-0.4,0.5-0.6,0.8c0,0.1-0.1,0.1-0.1,0.2c-0.4,0.5-0.9,0.9-1.5,1.2
			c-0.1,0-0.1,0.1-0.2,0.1c-0.1,0.1-0.3,0.2-0.4,0.2V86h59.7V70.8C146.5,70.8,146.4,70.9,146.3,70.9z"/>
		<path fill="#4060AC" d="M146.6,60.7v10.1c-0.1,0.1-0.2,0.1-0.3,0.2c0.1-0.1,0.2-0.1,0.3-0.2V86h0.7V70.3c1.7-1.4,2.8-3.4,2.8-5.8
			v-8.4C150.1,58.3,148.6,60.1,146.6,60.7z"/>
		<path fill="#4060AC" d="M172.2,60.9v11V86h1V71.8v0c1-0.1,2-0.5,2.8-1V60.7c-0.4,0.1-0.8,0.2-1.2,0.2H172.2z"/>
		<path fill="#4060AC" d="M143.7,71.8c-0.1,0-0.2,0-0.2,0C143.5,71.9,143.6,71.8,143.7,71.8z"/>
		<path fill="#4060AC" d="M90.8,65.8c-0.1,0.3-0.1,0.6-0.2,0.9C90.7,66.4,90.8,66.1,90.8,65.8z"/>
		<path fill="#4060AC" d="M90.6,66.7c-0.1,0.3-0.2,0.6-0.4,0.9C90.4,67.3,90.5,67,90.6,66.7z"/>
		<path fill="#4060AC" d="M89.7,68.6c-0.2,0.3-0.4,0.5-0.6,0.8C89.3,69.1,89.5,68.9,89.7,68.6z"/>
		<path fill="#4060AC" d="M89,69.5c-0.4,0.5-0.9,0.9-1.5,1.2C88,70.4,88.5,70,89,69.5z"/>
		<path fill="#4060AC" d="M90.2,67.8c-0.1,0.3-0.3,0.6-0.5,0.8C89.9,68.4,90,68.1,90.2,67.8z"/>
		<path fill="#4060AC" d="M145.7,71.3c-0.1,0-0.2,0.1-0.3,0.1C145.5,71.4,145.6,71.3,145.7,71.3z"/>
		<path fill="#4060AC" d="M144.4,71.7c-0.1,0-0.2,0-0.3,0.1C144.2,71.7,144.3,71.7,144.4,71.7z"/>
		<path fill="#4060AC" d="M146.3,71c-0.1,0.1-0.2,0.1-0.4,0.2C146.1,71.1,146.2,71,146.3,71z"/>
		<path fill="#4060AC" d="M145.1,71.5c-0.1,0-0.2,0.1-0.3,0.1C144.9,71.6,145,71.5,145.1,71.5z"/>
		<path fill="#4060AC" d="M91,64.5c0,0.3,0,0.7-0.1,1C90.9,65.2,91,64.8,91,64.5z"/>
		<path fill="#4060AC" d="M87.3,70.9c-0.1,0.1-0.3,0.1-0.4,0.2V60.8c-0.3,0-0.5,0.1-0.8,0.1h-2.8v11V86h0.4V71.9l0,0
			c1,0,1.9-0.2,2.7-0.6v0V86h0.4V71.1C87,71,87.2,70.9,87.3,70.9z"/>
		<path fill="#FFFFFF" d="M23.9,89.6v40.6h59.4V89.6H23.9z M81.7,128.5H25v-0.8h56.7V128.5z M81.7,125.9H28.8v-0.7h52.9V125.9z
			 M81.7,123.2H32.5v-0.6h49.2V123.2z M81.7,120.6H36.3V120h45.4V120.6z M81.7,117.9H40v-0.5h41.7V117.9z M81.7,115.3H43.7v-0.4
			h37.9V115.3z M81.7,112.6H47.5v-0.4h34.2V112.6z"/>
		<rect x="83.8" y="89.6" fill="#FFFFFF" width="0" height="40.6"/>
		<path fill="#FFFFFF" d="M86.9,89.6v40.6h59.7V89.6H86.9z M144.9,128.5l-56.7,0v-0.8l56.7,0V128.5z M144.9,125.9H88.3v-0.7h56.7
			V125.9z M144.9,123.2H88.3v-0.6h56.7V123.2z M144.9,120.6H88.3V120h56.7V120.6z M144.9,117.9H88.3v-0.5h56.7V117.9z M144.9,115.3
			H88.3v-0.4h56.7V115.3z M144.9,112.6H88.3v-0.4h56.7V112.6z"/>
		<path fill="#FFFFFF" d="M172.2,89.6h-22.1v40.6h22.1V89.6z M160.6,96.1l0.8-0.5c0,0,0,0,0.1,0c0,0,0,0,0,0c0,0,0,0,0,0s0,0,0,0
			c0,0,0,0,0-0.1c0,0,0,0,0-0.1s0,0,0-0.1s0,0,0-0.1v-0.4l-1.1,0v-0.5l2.7,0v1.2c0,0.1,0,0.1,0,0.2s0,0.1,0,0.2s0,0.1-0.1,0.2
			c0,0-0.1,0.1-0.1,0.1c0,0-0.1,0.1-0.1,0.1s-0.1,0.1-0.1,0.1c0,0-0.1,0-0.2,0c-0.1,0-0.1,0-0.2,0c-0.1,0-0.1,0-0.1,0
			c0,0-0.1,0-0.1,0s-0.1,0-0.1-0.1c0,0-0.1,0-0.1-0.1s-0.1-0.1-0.1-0.1c0,0-0.1-0.1-0.1-0.1c0,0,0-0.1-0.1-0.1c0,0,0-0.1,0-0.1
			c0,0,0,0.1,0,0.1c0,0,0,0.1-0.1,0.1c0,0-0.1,0.1-0.1,0.1s-0.1,0-0.1,0.1l-0.8,0.4V96.1z M160.6,97.8l2.7,0v0.5l-2.7,0V97.8z
			 M160.5,100.4c0,0,0-0.1,0-0.1c0,0,0-0.1,0-0.1c0,0,0-0.1,0-0.1c0,0,0-0.1,0-0.1c0,0,0-0.1,0.1-0.1s0-0.1,0.1-0.1
			c0,0,0-0.1,0.1-0.1l0.4,0.2c0,0,0,0.1-0.1,0.1s0,0.1-0.1,0.1c0,0,0,0.1,0,0.1c0,0,0,0.1,0,0.1c0,0,0,0.1,0,0.1c0,0,0,0.1,0,0.1
			c0,0,0,0.1,0,0.1c0,0,0,0.1,0,0.1c0,0,0,0.1,0,0.1c0,0,0,0.1,0,0.1c0,0,0,0.1,0,0.1c0,0,0,0.1,0,0.1s0,0,0.1,0.1c0,0,0,0,0.1,0
			c0,0,0,0,0.1,0s0.1,0,0.1,0c0,0,0,0,0.1,0c0,0,0,0,0.1,0s0,0,0.1,0c0,0,0,0,0-0.1c0,0,0,0,0-0.1c0,0,0-0.1,0-0.1c0,0,0-0.1,0-0.1
			c0,0,0-0.1,0-0.1c0-0.1,0-0.1,0-0.2c0-0.1,0-0.1,0-0.1c0,0,0-0.1,0-0.1c0,0,0-0.1,0-0.1c0,0,0-0.1,0.1-0.1c0,0,0-0.1,0.1-0.1
			s0-0.1,0.1-0.1c0,0,0,0,0.1-0.1s0.1,0,0.1,0c0,0,0.1,0,0.1,0c0,0,0.1,0,0.1,0c0,0,0.1,0,0.1,0c0,0,0.1,0,0.1,0s0.1,0,0.1,0
			s0.1,0,0.1,0s0.1,0,0.1,0.1s0.1,0,0.1,0.1c0,0,0.1,0.1,0.1,0.1c0,0,0,0.1,0.1,0.1c0,0,0,0.1,0.1,0.1c0,0,0,0.1,0,0.1
			c0,0,0,0.1,0,0.1c0,0,0,0.1,0,0.1c0,0,0,0.1,0,0.1c0,0,0,0.1,0,0.1c0,0,0,0.1,0,0.1s0,0.1,0,0.1c0,0,0,0.1,0,0.1c0,0,0,0.1,0,0.1
			c0,0,0,0.1-0.1,0.1c0,0,0,0.1-0.1,0.1c0,0,0,0.1-0.1,0.1l-0.4-0.2c0-0.1,0.1-0.1,0.1-0.2s0.1-0.1,0.1-0.2c0-0.1,0-0.1,0.1-0.2
			s0-0.1,0-0.2c0,0,0-0.1,0-0.1c0,0,0-0.1,0-0.1c0,0,0-0.1,0-0.1c0,0,0-0.1,0-0.1c0,0,0,0-0.1-0.1c0,0,0,0-0.1,0c0,0,0,0-0.1,0
			c0,0-0.1,0-0.1,0c0,0-0.1,0-0.1,0s0,0-0.1,0s0,0-0.1,0c0,0,0,0,0,0.1c0,0,0,0,0,0.1c0,0,0,0.1,0,0.1c0,0,0,0.1,0,0.1
			c0,0,0,0.1,0,0.1c0,0.1,0,0.1,0,0.2s0,0.1,0,0.1s0,0.1,0,0.1c0,0,0,0.1,0,0.1c0,0,0,0.1,0,0.1c0,0,0,0.1-0.1,0.1
			c0,0,0,0.1-0.1,0.1s0,0-0.1,0.1c0,0,0,0-0.1,0c0,0-0.1,0-0.1,0s-0.1,0-0.1,0s-0.1,0-0.1,0c0,0-0.1,0-0.1,0c0,0-0.1,0-0.1,0
			c0,0-0.1,0-0.1,0c0,0-0.1,0-0.1-0.1c0,0-0.1,0-0.1-0.1s-0.1-0.1-0.1-0.1s0-0.1-0.1-0.1c0,0,0-0.1-0.1-0.1c0,0,0-0.1,0-0.1
			c0,0,0-0.1,0-0.1s0-0.1,0-0.1c0-0.1,0-0.1,0-0.2C160.5,100.5,160.5,100.4,160.5,100.4z M160.6,103.8v-0.5l2.3,0v-0.9l0.4,0v2.2
			l-0.4,0v-0.9L160.6,103.8z M160.5,106.6c0-0.1,0-0.1,0-0.2c0-0.1,0-0.1,0.1-0.2c0-0.1,0-0.1,0.1-0.1c0,0,0.1-0.1,0.1-0.1
			c0,0,0.1-0.1,0.1-0.1c0,0,0.1-0.1,0.1-0.1c0,0,0.1-0.1,0.1-0.1c0.1,0,0.1,0,0.2-0.1c0.1,0,0.1,0,0.2,0c0.1,0,0.1,0,0.2,0
			c0.1,0,0.1,0,0.2,0s0.1,0,0.2,0c0.1,0,0.1,0,0.2,0c0.1,0,0.1,0,0.2,0c0.1,0,0.1,0,0.2,0.1c0.1,0,0.1,0.1,0.1,0.1
			c0,0,0.1,0.1,0.1,0.1s0.1,0.1,0.1,0.1c0,0,0.1,0.1,0.1,0.1c0,0,0.1,0.1,0.1,0.2s0,0.1,0.1,0.2c0,0.1,0,0.1,0,0.2
			c0,0.1,0,0.1,0,0.2s0,0.1,0,0.2c0,0.1,0,0.1,0,0.2c0,0.1,0,0.1-0.1,0.2s0,0.1-0.1,0.1c0,0-0.1,0.1-0.1,0.1s-0.1,0.1-0.1,0.1
			s-0.1,0.1-0.1,0.1c0,0-0.1,0.1-0.1,0.1c-0.1,0-0.1,0-0.2,0.1c-0.1,0-0.1,0-0.2,0c-0.1,0-0.1,0-0.2,0c-0.1,0-0.1,0-0.2,0
			s-0.1,0-0.2,0c-0.1,0-0.1,0-0.2,0c-0.1,0-0.1,0-0.2,0s-0.1,0-0.2-0.1c-0.1,0-0.1-0.1-0.1-0.1c0,0-0.1-0.1-0.1-0.1
			c0,0-0.1-0.1-0.1-0.1c0,0-0.1-0.1-0.1-0.1c0,0-0.1-0.1-0.1-0.1c0-0.1,0-0.1-0.1-0.2c0-0.1,0-0.1,0-0.2s0-0.1,0-0.2
			C160.5,106.8,160.5,106.7,160.5,106.6z M163.2,118.1v0.5l-2.7,0v-0.4l1.9-1.4l-1.9,0v-0.5l2.7,0v0.4l-1.8,1.4L163.2,118.1z
			 M160.6,121v-0.5l2.3,0v-0.9l0.4,0v2.2l-0.4,0V121L160.6,121z M160.6,115.2v-0.5l0.6-0.3v-1.3l-0.6-0.3v-0.5l2.7,1.2v0.4
			L160.6,115.2z M163.2,110.7c0,0.1,0,0.1,0,0.2c0,0.1,0,0.1-0.1,0.2c0,0-0.1,0.1-0.1,0.1c0,0-0.1,0.1-0.1,0.1s-0.1,0.1-0.1,0.1
			c0,0-0.1,0-0.2,0c-0.1,0-0.1,0-0.2,0c-0.1,0-0.1,0-0.1,0c0,0-0.1,0-0.1,0s-0.1,0-0.1-0.1c0,0-0.1,0-0.1-0.1c0,0-0.1-0.1-0.1-0.1
			c0,0-0.1-0.1-0.1-0.1c0,0,0-0.1-0.1-0.1c0,0,0-0.1,0-0.1c0,0,0,0.1,0,0.1c0,0,0,0.1-0.1,0.1c0,0-0.1,0.1-0.1,0.1s-0.1,0-0.1,0.1
			l-0.8,0.4v-0.5l0.8-0.5c0,0,0,0,0.1,0s0,0,0,0c0,0,0,0,0,0c0,0,0,0,0,0c0,0,0,0,0-0.1s0,0,0-0.1s0,0,0-0.1s0,0,0-0.1v-0.4h-1.1
			v-0.5l2.7,0v1.2C163.2,110.6,163.2,110.7,163.2,110.7z M153.2,117.4h3.1v0.5h-3.1V117.4z M153.2,120h6.5v0.6h-6.5V120z
			 M153.2,122.6h9.9v0.3l0.1,0v1.8l-0.4,0v-1.3l-0.7,0v1.2l-0.4,0v-1.2l-0.8,0v1.3l-0.4,0v-1.5h-7.4V122.6z M153.2,125.2h13.3v0.7
			h-13.3V125.2z M152.5,127c0,0.2-0.2,0.4-0.4,0.4h-0.4c-0.2,0-0.4-0.2-0.4-0.4v-25.2c0-0.2,0.2-0.4,0.4-0.4h0.4
			c0.2,0,0.4,0.2,0.4,0.4V127z M169.9,128.5l-16.7,0v-0.8l16.7,0V128.5z"/>
		<path fill="#FFFFFF" d="M162,110.5c0,0,0,0.1,0,0.1c0,0,0,0.1,0,0.1c0,0,0,0.1,0,0.1c0,0,0,0.1,0,0.1c0,0,0,0,0.1,0.1
			c0,0,0,0,0.1,0c0,0,0.1,0,0.1,0c0,0,0.1,0,0.1,0c0,0,0.1,0,0.1,0c0,0,0.1,0,0.1,0s0.1,0,0.1,0c0,0,0,0,0.1-0.1c0,0,0,0,0-0.1
			s0-0.1,0-0.1s0-0.1,0-0.1c0,0,0-0.1,0-0.1v-0.6H162V110.5z"/>
		<path fill="#FFFFFF" d="M161,107.2c0,0,0,0.1,0.1,0.1c0,0,0.1,0.1,0.1,0.1c0,0,0.1,0.1,0.1,0.1c0.1,0,0.1,0,0.2,0.1s0.1,0,0.2,0
			c0.1,0,0.1,0,0.2,0c0.1,0,0.2,0,0.2,0c0.1,0,0.1,0,0.2,0s0.1,0,0.2-0.1c0.1,0,0.1-0.1,0.1-0.1s0.1-0.1,0.1-0.1
			c0,0,0.1-0.1,0.1-0.1s0-0.1,0-0.2s0-0.1,0-0.2c0-0.1,0-0.1,0-0.2s0-0.1,0-0.2s0-0.1-0.1-0.1c0,0-0.1-0.1-0.1-0.1s-0.1-0.1-0.1-0.1
			c-0.1,0-0.1,0-0.2-0.1c-0.1,0-0.1,0-0.2,0c-0.1,0-0.1,0-0.2,0c-0.1,0-0.2,0-0.2,0c-0.1,0-0.1,0-0.2,0c-0.1,0-0.1,0-0.2,0.1
			s-0.1,0.1-0.1,0.1c0,0-0.1,0.1-0.1,0.1c0,0-0.1,0.1-0.1,0.1s0,0.1,0,0.2c0,0.1,0,0.1,0,0.2c0,0.1,0,0.1,0,0.2S161,107.1,161,107.2
			z"/>
		<polygon fill="#FFFFFF" points="161.6,114.3 162.7,113.8 161.6,113.3 		"/>
		<path fill="#FFFFFF" d="M162,95.8C162,95.8,162.1,95.8,162,95.8c0,0.1,0.1,0.1,0.1,0.2c0,0,0,0,0.1,0.1s0,0,0.1,0c0,0,0.1,0,0.1,0
			c0,0,0.1,0,0.1,0c0,0,0.1,0,0.1,0s0.1,0,0.1,0c0,0,0.1,0,0.1,0c0,0,0,0,0.1-0.1s0,0,0-0.1c0,0,0-0.1,0-0.1c0,0,0-0.1,0-0.1
			c0,0,0-0.1,0-0.1v-0.6l-0.8,0v0.6c0,0,0,0.1,0,0.1C162,95.7,162,95.7,162,95.8z"/>
		<path fill="#62C6C2" d="M157.5,71.9c4.1,0,7.4-3.3,7.4-7.4c0,4.1,3.3,7.4,7.3,7.4v-11h-2.5c-2.7,0-4.8-2.2-4.8-4.8
			c0,2.7-2.2,4.8-4.8,4.8h-5.1c-2.7,0-4.8-2.2-4.8-4.8v8.4C150.1,68.6,153.4,71.9,157.5,71.9z"/>
		<path fill="#62C6C2" d="M140.2,60.9c-2.7,0-4.8-2.2-4.8-4.8c0,2.7-2.2,4.8-4.8,4.8h-5.1c-2.7,0-4.8-2.2-4.8-4.8
			c0,2.7-2.2,4.8-4.8,4.8h-5.1c-2.7,0-4.8-2.2-4.8-4.8c0,2.7-2.2,4.8-4.8,4.8h-5.1c-2.7,0-4.8-2.2-4.8-4.8c0,2.4-1.8,4.4-4.1,4.8
			v10.3c0.1-0.1,0.3-0.1,0.4-0.2c0.1,0,0.1-0.1,0.2-0.1c0.5-0.3,1-0.8,1.5-1.2c0-0.1,0.1-0.1,0.1-0.2c0.2-0.2,0.4-0.5,0.6-0.8
			c0,0,0,0,0,0c0.2-0.3,0.3-0.5,0.5-0.8c0-0.1,0.1-0.1,0.1-0.2c0.1-0.3,0.3-0.6,0.4-0.9c0,0,0,0,0,0c0.1-0.3,0.2-0.6,0.2-0.9
			c0-0.1,0-0.2,0-0.2c0-0.3,0.1-0.7,0.1-1c0,4.1,3.3,7.4,7.4,7.4c4.1,0,7.4-3.3,7.4-7.4c0,4.1,3.3,7.4,7.4,7.4s7.4-3.3,7.4-7.4
			c0,4.1,3.3,7.4,7.4,7.4c4.1,0,7.4-3.3,7.4-7.4c0,4.1,3.3,7.4,7.4,7.4c0.2,0,0.5,0,0.7,0c0.1,0,0.2,0,0.2,0c0.1,0,0.3,0,0.4-0.1
			c0.1,0,0.2,0,0.3-0.1c0.1,0,0.2-0.1,0.4-0.1c0.1,0,0.2-0.1,0.3-0.1c0.1,0,0.2-0.1,0.3-0.1c0.1,0,0.2-0.1,0.3-0.1
			c0.1,0,0.2-0.1,0.2-0.1c0.1-0.1,0.3-0.1,0.4-0.2c0,0,0,0,0,0c0.1-0.1,0.2-0.1,0.3-0.2V60.7c-0.4,0.1-0.9,0.2-1.3,0.2H140.2z"/>
		<path fill="#62C6C2" d="M31.8,64.5c0,4.1,3.3,7.4,7.4,7.4s7.4-3.3,7.4-7.4c0,4.1,3.3,7.4,7.4,7.4c4.1,0,7.4-3.3,7.4-7.4
			c0,4.1,3.3,7.4,7.4,7.4c4.1,0,7.4-3.3,7.4-7.4c0,4,3.2,7.3,7.2,7.4v-11H81c-2.7,0-4.8-2.2-4.8-4.8c0,2.7-2.2,4.8-4.8,4.8h-5.1
			c-2.7,0-4.8-2.2-4.8-4.8c0,2.7-2.2,4.8-4.8,4.8h-5.1c-2.7,0-4.8-2.2-4.8-4.8c0,2.7-2.2,4.8-4.8,4.8h-5.1c-2.7,0-4.8-2.2-4.8-4.8
			c0,2.7-2.2,4.8-4.8,4.8h-3v11c0.2,0,0.3,0,0.5,0C28.5,71.9,31.8,68.6,31.8,64.5z"/>
		<path fill="#4060AC" d="M22.9,71.7V86h1V71.9v-11h-2.1c-0.4,0-0.8-0.1-1.2-0.2v10.1l0,0C21.3,71.3,22.1,71.6,22.9,71.7L22.9,71.7z
			"/>
		<path fill="#62C6C2" d="M44.5,34.7h12h12h12h12h12h12h12h12h12h12h12V0H20.6v34.7h12H44.5z M173.6,2.5v29.7H23.1V2.5H173.6z"/>
		<path fill="#FFFFFF" d="M173.6,32.2V2.5H23.1v29.7H173.6z M23.9,3.2h149v28.2h-149V3.2z"/>
		<path fill="#FFFFFF" d="M24.2,31.1h148.2V3.6H24.2V31.1z M25,4.4h146.7v25.9H25V4.4z"/>
		<path fill="#FFFFFF" d="M25.4,29.9h146V4.7h-146V29.9z M26.1,5.5h144.5v23.7H26.1V5.5z"/>
		<path fill="#FFFFFF" d="M26.5,28.8h143.7V5.9H26.5V28.8z M27.3,6.6h142.2V28H27.3V6.6z"/>
		<path fill="#62C6C2" d="M172.9,3.2h-149v28.2h149V3.2z M172.5,31.1H24.2V3.6h148.2V31.1z"/>
		<path fill="#62C6C2" d="M171.7,4.4H25v25.9h146.7V4.4z M171.3,29.9h-146V4.7h146V29.9z"/>
		<path fill="#62C6C2" d="M170.6,5.5H26.1v23.7h144.5V5.5z M170.2,28.8H26.5V5.9h143.7V28.8z"/>
		<path fill="#FFFFFF" d="M105.2,14.6c0-0.1-0.1-0.2-0.2-0.3s-0.2-0.2-0.3-0.3c-0.1-0.1-0.2-0.1-0.3-0.2c-0.1-0.1-0.3-0.1-0.4-0.1
			s-0.3-0.1-0.5-0.1s-0.4,0-0.6,0h-2.8l0,2.8l0,0v0h2.9c0.2,0,0.4,0,0.6,0c0,0,0,0,0,0c0.2,0,0.3,0,0.5-0.1c0.2,0,0.3-0.1,0.4-0.1
			s0.2-0.1,0.3-0.2c0.1-0.1,0.2-0.2,0.2-0.3c0,0,0-0.1,0.1-0.1c0-0.1,0.1-0.1,0.1-0.2c0,0,0-0.1,0-0.2c0-0.1,0-0.1,0-0.2
			c0,0,0,0,0,0C105.3,14.8,105.2,14.7,105.2,14.6z"/>
		<path fill="#FFFFFF" d="M90.1,16.7c0-0.1,0-0.2,0-0.2c0-0.1,0-0.1,0-0.2c0-0.1,0-0.2-0.1-0.2c0-0.1,0-0.1,0-0.2
			c0-0.1,0-0.1-0.1-0.2c0-0.1,0-0.1-0.1-0.2c0-0.1-0.1-0.1-0.1-0.2c0,0,0-0.1-0.1-0.1c0-0.1-0.1-0.1-0.1-0.2c0,0,0-0.1-0.1-0.1
			c-0.1-0.1-0.1-0.2-0.2-0.3c-0.2-0.2-0.3-0.4-0.5-0.5s-0.4-0.3-0.6-0.4c-0.2-0.1-0.4-0.2-0.7-0.2c-0.2,0-0.5-0.1-0.8-0.1
			c-0.3,0-0.5,0-0.8,0.1c-0.2,0-0.5,0.1-0.7,0.2c-0.2,0.1-0.4,0.2-0.6,0.4s-0.4,0.3-0.5,0.5c-0.2,0.2-0.3,0.4-0.4,0.6
			c-0.1,0.2-0.2,0.5-0.3,0.7c-0.1,0.3-0.1,0.6-0.2,0.9c0,0.3-0.1,0.6-0.1,1c0,0,0,0.1,0,0.1c0,0.2,0.1,0.4,0.1,0.6
			c0,0.1,0,0.2,0.1,0.3c0.1,0.2,0.1,0.3,0.2,0.5c0,0.1,0.1,0.2,0.1,0.2c0.1,0.2,0.2,0.4,0.4,0.6c0.2,0.2,0.3,0.4,0.5,0.5
			c0.2,0.1,0.4,0.3,0.6,0.4c0.1,0,0.1,0,0.2,0c0.2,0.1,0.3,0.1,0.5,0.2c0.2,0,0.5,0.1,0.8,0.1c0,0,0,0,0.1,0c0.3,0,0.5,0,0.7-0.1
			c0.2,0,0.4-0.1,0.6-0.2c0,0,0.1,0,0.1,0c0.1,0,0.2-0.1,0.3-0.2c0.1-0.1,0.2-0.1,0.3-0.2c0.2-0.1,0.4-0.3,0.5-0.5
			c0.2-0.2,0.3-0.4,0.4-0.6c0.1-0.2,0.2-0.5,0.3-0.8s0.1-0.6,0.2-0.9c0-0.3,0-0.6,0.1-0.9c0,0,0-0.1,0-0.1
			C90.1,16.8,90.1,16.8,90.1,16.7z"/>
		<polygon fill="#FFFFFF" points="81,18 81,18 81,18 		"/>
		<path fill="#FFFFFF" d="M54.1,15.5C54.1,15.5,54.1,15.5,54.1,15.5C54.1,15.5,54.1,15.5,54.1,15.5C54.1,15.5,54.1,15.5,54.1,15.5
			C54.1,15.5,54.1,15.5,54.1,15.5z"/>
		<polygon fill="#FFFFFF" points="116.2,18.4 119.8,18.4 118,14.2 		"/>
		<path fill="#FFFFFF" d="M40.3,13.9C40.3,13.9,40.3,13.9,40.3,13.9C40.3,13.9,40.3,13.9,40.3,13.9C40.3,13.9,40.3,13.9,40.3,13.9
			C40.3,13.9,40.3,13.9,40.3,13.9z"/>
		<path fill="#FFFFFF" d="M27.6,27.6h141.4V7H27.6V27.6z M158.9,10.9L158.9,10.9L158.9,10.9h8l0,0l0,0l0,1.7l0,0l-0.3,0.9h-5.6
			l0,2.3l0,0h5.5l0,0l0,0l0,1.7l-0.3,0.9h-5.3l0,2.6l0,0h5.9l0,0l0,0l0,1.7h0l-0.3,0.9h-8l0-11.9L158.9,10.9L158.9,10.9z M144,10.9
			L144,10.9L144,10.9h10l0,0l0,0l0,1.8h0l-0.2,0.9h-3.7l0,9.2l-0.2,0.9h-2.2l0-10.1h-3.9l0-1.8L144,10.9L144,10.9z M129,10.9h1.6
			l2.9,3.8l3.4,4.4l0-7.2l0.1-0.9v0l0,0l0,0h2.1l0,0l0,0l0,11.9l0,0l-0.2,0.9h-1.6l-6.3-8.1l0,7.2l-0.1,0.9h-2l0-11.9L129,10.9z
			 M111.7,22.9l5.4-11.9h1.8l5.4,11.9l-0.1,0.9h-2.2l-1.2-2.8h-5.8l-1.2,2.8h-2.2L111.7,22.9z M98,10.9L98,10.9L98,10.9h5.3
			c0.3,0,0.7,0,1,0.1c0.3,0,0.6,0.1,0.8,0.2s0.5,0.2,0.7,0.3c0.2,0.1,0.4,0.2,0.6,0.4c0.2,0.2,0.3,0.3,0.5,0.5
			c0.1,0.2,0.2,0.4,0.3,0.6s0.2,0.5,0.2,0.7c0,0.1,0,0.3,0,0.4c0,0.1,0,0.3,0,0.4c0,0,0,0,0,0c0,0,0,0,0,0c0,0,0,0,0,0c0,0,0,0,0,0
			s0,0,0,0l0,0.3c0,0.2,0,0.5,0,0.6c0,0,0,0,0,0c0,0.2,0,0.3,0,0.4c0,0,0,0.1,0,0.1c0,0,0,0,0,0c0,0,0,0,0,0c0,0.2-0.1,0.3-0.1,0.4
			c0,0,0,0,0,0c0,0,0,0,0,0c0,0,0,0,0,0c-0.1,0.1-0.1,0.3-0.2,0.4c0,0,0,0,0,0c0,0,0,0,0,0c0,0,0,0,0,0c-0.1,0.1-0.2,0.3-0.3,0.4
			c-0.1,0.1-0.3,0.3-0.4,0.4c-0.2,0.1-0.3,0.2-0.5,0.3c-0.1,0-0.2,0.1-0.2,0.1c0.1,0.1,0.2,0.2,0.2,0.3c0.1,0.1,0.2,0.3,0.3,0.5
			l2,3.7h0l0,0.9h-2.4l-2-3.8c0-0.1-0.1-0.2-0.2-0.3s-0.1-0.1-0.2-0.2s-0.1-0.1-0.2-0.2c-0.1,0-0.1-0.1-0.2-0.1
			c-0.1,0-0.1-0.1-0.2-0.1c-0.1,0-0.2-0.1-0.3-0.1c-0.1,0-0.2,0-0.3,0c-0.1,0-0.2,0-0.3,0h-1.7l0,3.9l0,0.9H98l0-0.9L98,10.9z
			 M81,16c0-0.3,0.1-0.6,0.1-0.8c0.1-0.3,0.1-0.5,0.2-0.8c0.1-0.2,0.2-0.5,0.3-0.7c0.1-0.2,0.2-0.4,0.4-0.7c0.1-0.2,0.3-0.4,0.5-0.6
			c0.2-0.2,0.3-0.3,0.5-0.5c0.2-0.2,0.4-0.3,0.6-0.4c0.2-0.1,0.4-0.2,0.7-0.3c0.2-0.1,0.5-0.2,0.7-0.2s0.5-0.1,0.8-0.1s0.6,0,0.8,0
			c0.3,0,0.6,0,0.8,0c0.3,0,0.5,0.1,0.8,0.1c0.3,0.1,0.5,0.1,0.7,0.2c0.2,0.1,0.5,0.2,0.7,0.3c0.2,0.1,0.4,0.3,0.6,0.4
			c0.2,0.2,0.4,0.3,0.5,0.5c0.2,0.2,0.3,0.4,0.5,0.6c0.1,0.2,0.3,0.4,0.4,0.7c0,0,0,0,0,0c0.1,0.2,0.2,0.4,0.3,0.7c0,0,0,0,0,0
			c0,0,0,0,0,0c0,0.1,0,0.1,0.1,0.2c0,0.1,0.1,0.3,0.1,0.4c0,0,0,0,0,0.1c0,0,0,0,0,0.1c0,0.1,0,0.2,0,0.3c0,0.1,0.1,0.3,0.1,0.4
			c0,0,0,0.1,0,0.1c0,0,0,0.1,0,0.1c0,0.1,0,0.2,0,0.3c0,0.1,0,0.2,0,0.4c0,0.3,0,0.6,0,0.9c0,0,0,0,0,0.1c0,0,0,0,0,0.1
			c0,0,0,0,0,0.1c0,0,0,0,0,0.1c0,0.3,0,0.6,0,0.9c0,0.3-0.1,0.6-0.1,0.8s-0.1,0.5-0.2,0.8c-0.1,0.3-0.2,0.5-0.3,0.7
			s-0.2,0.4-0.4,0.7s-0.3,0.4-0.5,0.6c-0.2,0.2-0.3,0.3-0.5,0.5c-0.2,0.2-0.4,0.3-0.6,0.4c-0.2,0.1-0.4,0.2-0.7,0.3
			c-0.2,0.1-0.5,0.2-0.7,0.2c-0.3,0.1-0.5,0.1-0.8,0.1c-0.3,0-0.5,0-0.8,0c-0.3,0-0.6,0-0.8,0c-0.3,0-0.5-0.1-0.8-0.1
			c-0.3-0.1-0.5-0.1-0.7-0.2s-0.5-0.2-0.7-0.3c-0.2-0.1-0.4-0.3-0.6-0.4s-0.4-0.3-0.5-0.5c-0.2-0.2-0.3-0.4-0.5-0.6
			c-0.1-0.2-0.3-0.4-0.4-0.7c-0.1-0.2-0.2-0.3-0.2-0.5c0,0,0,0,0-0.1c0,0,0,0,0,0c0,0,0-0.1,0-0.1c-0.1-0.1-0.1-0.3-0.1-0.4
			c0,0,0,0,0,0c0,0,0,0,0-0.1c0-0.1,0-0.2-0.1-0.2c0-0.1,0-0.2-0.1-0.3c0,0,0,0,0-0.1c0,0,0,0,0,0c0-0.2,0-0.3-0.1-0.5
			c0-0.1,0-0.1,0-0.2c0,0,0,0,0-0.1c0-0.1,0-0.3,0-0.5l0-0.4c0-0.1,0-0.1,0-0.2c0-0.1,0-0.1,0-0.2c0-0.1,0-0.1,0-0.2
			c0-0.1,0-0.1,0-0.2c0,0,0,0,0,0c0-0.2,0-0.3,0-0.5S81,16.1,81,16z M67.1,10.9L67.1,10.9L67.1,10.9h10l0.1,0.9l0,1.8h-3.9l0,10.1
			h-2.2L71,22.9h0l0-9.2h-3.8l-0.1-0.9L67.1,10.9z M53.7,21.6l0.7-1.6c0.1,0.1,0.3,0.2,0.4,0.3c0.1,0.1,0.3,0.2,0.5,0.3
			c0.2,0.1,0.3,0.2,0.5,0.2s0.3,0.1,0.5,0.2c0.1,0,0.2,0,0.2,0.1c0.1,0,0.2,0,0.2,0.1c0.2,0,0.3,0.1,0.5,0.1c0.2,0,0.4,0,0.5,0.1
			c0.2,0,0.4,0,0.6,0c0.2,0,0.4,0,0.6,0c0.2,0,0.4,0,0.5-0.1s0.3-0.1,0.4-0.1c0.1-0.1,0.3-0.1,0.4-0.2c0.1,0,0.1-0.1,0.1-0.1
			c0.1,0,0.1-0.1,0.2-0.1c0.1-0.1,0.2-0.2,0.2-0.3c0.1-0.1,0.1-0.2,0.1-0.3c0,0,0-0.1,0-0.1c0,0,0,0,0,0c0-0.1-0.1-0.1-0.1-0.2
			c0,0,0,0-0.1-0.1c-0.1-0.1-0.2-0.1-0.3-0.2c-0.1-0.1-0.2-0.1-0.4-0.2c-0.1-0.1-0.3-0.1-0.5-0.2c-0.2-0.1-0.4-0.1-0.6-0.2
			s-0.4-0.1-0.7-0.2c-0.2-0.1-0.5-0.1-0.7-0.2c-0.2-0.1-0.4-0.1-0.6-0.2c-0.2-0.1-0.4-0.1-0.6-0.2s-0.3-0.1-0.5-0.2
			c-0.2-0.1-0.3-0.1-0.4-0.2c-0.1-0.1-0.3-0.2-0.4-0.3s-0.2-0.2-0.3-0.3c-0.1-0.1-0.2-0.2-0.3-0.3c-0.1-0.1-0.1-0.1-0.1-0.2
			c0,0,0-0.1,0-0.1c0,0,0,0,0,0c0,0,0,0,0,0c0,0,0-0.1,0-0.1c0-0.1-0.1-0.2-0.1-0.3c0,0,0,0,0,0c0,0,0,0,0,0c0,0,0,0,0,0
			c0-0.1,0-0.2-0.1-0.2L54,15.4c0-0.1,0-0.2-0.1-0.3c0-0.1,0-0.1,0-0.2c0,0,0,0,0,0c0,0,0,0,0,0c0,0,0,0,0,0c0,0,0-0.1,0-0.1
			c0-0.1,0-0.1,0-0.2s0-0.1,0-0.2c0-0.2,0-0.3,0-0.5c0-0.2,0.1-0.3,0.1-0.5c0-0.2,0.1-0.3,0.2-0.5c0,0,0.1-0.1,0.1-0.1
			c0.1-0.1,0.1-0.2,0.2-0.3c0.1-0.1,0.2-0.3,0.3-0.4c0.1-0.1,0.2-0.2,0.4-0.3c0.1-0.1,0.2-0.1,0.3-0.2c0,0,0.1-0.1,0.1-0.1
			c0.2-0.1,0.3-0.2,0.5-0.3c0.2-0.1,0.4-0.1,0.5-0.2s0.4-0.1,0.6-0.1s0.4-0.1,0.6-0.1c0.1,0,0.2,0,0.3,0c0.1,0,0.2,0,0.3,0l0,0l0,0
			c0.2,0,0.4,0,0.6,0c0.2,0,0.4,0,0.5,0.1c0,0,0,0,0.1,0c0.1,0,0.2,0,0.3,0.1s0.2,0,0.3,0.1c0.2,0,0.4,0.1,0.6,0.2
			c0.2,0.1,0.4,0.1,0.5,0.2c0.2,0.1,0.3,0.2,0.5,0.2s0.3,0.2,0.4,0.3s0.3,0.2,0.4,0.3l0.1,0.9l-0.7,1.6c-0.3-0.2-0.5-0.4-0.8-0.6
			c-0.3-0.2-0.6-0.3-0.9-0.4c-0.3-0.1-0.6-0.2-0.9-0.2c-0.3-0.1-0.6-0.1-0.9-0.1c-0.2,0-0.4,0-0.5,0c-0.2,0-0.3,0-0.5,0.1
			c-0.2,0-0.3,0.1-0.4,0.1c-0.1,0.1-0.3,0.1-0.4,0.2c-0.1,0.1-0.2,0.2-0.3,0.3c-0.1,0.1-0.2,0.2-0.2,0.3c-0.1,0.1-0.1,0.2-0.1,0.3
			c0,0,0,0.1,0,0.1c0,0,0.1,0.1,0.1,0.1c0,0,0,0,0.1,0.1c0.1,0.1,0.1,0.1,0.2,0.2c0.1,0.1,0.2,0.1,0.3,0.2c0.1,0.1,0.3,0.1,0.5,0.2
			c0.2,0.1,0.4,0.1,0.6,0.2s0.4,0.1,0.7,0.2c0.3,0.1,0.5,0.1,0.7,0.2c0.2,0.1,0.4,0.1,0.6,0.2c0.2,0.1,0.4,0.1,0.6,0.2
			c0.2,0.1,0.3,0.1,0.5,0.2c0.2,0.1,0.3,0.1,0.4,0.2c0.1,0,0.1,0.1,0.2,0.1c0.1,0,0.1,0.1,0.2,0.1c0.1,0.1,0.2,0.2,0.3,0.3
			s0.2,0.2,0.3,0.3c0.1,0.1,0.1,0.2,0.2,0.2c0,0,0,0,0,0.1c0,0,0,0,0,0c0,0,0,0,0,0.1c0,0,0,0.1,0.1,0.1c0,0,0,0.1,0,0.1
			c0,0,0,0,0,0.1c0,0,0,0,0,0c0,0,0,0,0,0.1c0,0.1,0,0.2,0.1,0.3l0.1,0.9c0,0,0,0,0,0c0,0,0,0,0,0c0,0,0,0,0,0c0,0,0,0.1,0,0.1
			c0,0,0,0.1,0,0.1c0,0,0,0.1,0,0.1c0,0,0,0.1,0,0.1c0,0.2,0,0.3,0,0.5s-0.1,0.3-0.1,0.5s-0.1,0.3-0.2,0.4s-0.2,0.3-0.2,0.4
			c-0.1,0.1-0.2,0.3-0.3,0.4c-0.1,0.1-0.2,0.2-0.4,0.3s-0.3,0.2-0.4,0.3c-0.2,0.1-0.3,0.2-0.5,0.2c-0.2,0.1-0.4,0.1-0.6,0.2
			s-0.4,0.1-0.6,0.1c-0.2,0-0.4,0.1-0.7,0.1c-0.2,0-0.5,0-0.7,0c-0.2,0-0.5,0-0.7,0c-0.2,0-0.4,0-0.7-0.1c-0.2,0-0.4-0.1-0.6-0.1
			c-0.2,0-0.4-0.1-0.6-0.2c-0.2-0.1-0.4-0.1-0.6-0.2s-0.4-0.2-0.5-0.2c-0.2-0.1-0.3-0.2-0.5-0.3c-0.2-0.1-0.3-0.2-0.4-0.3L53.7,21.6
			L53.7,21.6z M46.1,10.9L46.1,10.9L46.1,10.9h2.2l0.2,0.9l0,11.9h-2.2l-0.2-0.9l0,0L46.1,10.9z M30.8,22.9l0-11.9l0,0l0,0h5.3
			c0.3,0,0.7,0,1,0.1c0.3,0,0.6,0.1,0.8,0.2c0.2,0.1,0.3,0.1,0.5,0.2c0.1,0,0.1,0,0.2,0.1c0.2,0.1,0.4,0.2,0.6,0.4
			c0.1,0.1,0.2,0.2,0.3,0.3c0,0,0.1,0.1,0.1,0.1c0,0,0,0,0.1,0.1c0,0,0,0,0,0.1c0,0,0.1,0.1,0.1,0.1c0.1,0.1,0.1,0.2,0.2,0.4
			c0,0,0,0,0,0c0,0,0,0,0,0c0,0,0,0,0,0c0.1,0.1,0.1,0.3,0.1,0.5l0.1,0.3c0.1,0.2,0.1,0.5,0.2,0.7c0,0.1,0,0.1,0,0.2c0,0,0,0,0,0
			c0,0,0,0,0,0c0,0,0,0,0,0c0,0.1,0,0.2,0,0.2c0,0,0,0.1,0,0.1c0,0,0,0.1,0,0.1c0,0,0,0.1,0,0.1c0,0.1,0,0.2,0,0.3
			c0,0.2,0,0.4,0,0.7s-0.1,0.4-0.1,0.6c-0.1,0.2-0.1,0.4-0.2,0.5c-0.1,0.2-0.2,0.3-0.3,0.5c-0.1,0.1-0.3,0.3-0.4,0.4
			c-0.2,0.1-0.3,0.2-0.5,0.3c-0.1,0.1-0.3,0.1-0.4,0.2c0.1,0.1,0.1,0.1,0.1,0.2c0.1,0.1,0.2,0.3,0.3,0.5l2,3.7l0.2,0.9h-2.4l-2-3.8
			c0-0.1-0.1-0.2-0.2-0.3c-0.1-0.1-0.1-0.1-0.2-0.2s-0.1-0.1-0.2-0.2c-0.1,0-0.1-0.1-0.2-0.1c-0.1,0-0.1-0.1-0.2-0.1
			c-0.1,0-0.2-0.1-0.3-0.1c-0.1,0-0.2,0-0.3,0s-0.2,0-0.3,0h-1.7l0,4.8h-2.2L30.8,22.9L30.8,22.9z"/>
		<path fill="#FFFFFF" d="M38.1,14.2c-0.1-0.1-0.1-0.2-0.2-0.2c-0.1-0.1-0.2-0.1-0.3-0.2c-0.1-0.1-0.3-0.1-0.4-0.1s-0.3-0.1-0.5-0.1
			s-0.4,0-0.6,0h-2.8l0,2.8h2.6c0.2,0,0.4,0,0.6,0c0,0,0,0,0,0c0.2,0,0.3,0,0.5-0.1c0.2,0,0.3-0.1,0.4-0.1c0.1-0.1,0.2-0.1,0.3-0.2
			c0.1-0.1,0.2-0.2,0.3-0.3c0,0,0.1-0.1,0.1-0.2c0-0.1,0.1-0.1,0.1-0.2c0-0.1,0.1-0.2,0.1-0.4c0-0.1,0-0.3,0-0.5c0,0,0,0,0-0.1
			C38.2,14.4,38.2,14.3,38.1,14.2C38.2,14.3,38.2,14.3,38.1,14.2z"/>
		<path fill="#62C6C2" d="M169.4,6.6H27.3V28h142.2V6.6z M169.1,27.6H27.6V7h141.4V27.6z"/>
		<path fill="#353535" d="M21.9,60.9h2.1h3c2.7,0,4.8-2.2,4.8-4.8v-7.7l12.7-13.7h-12L17,48.3v5.2v2.6c0,2.2,1.5,4.1,3.6,4.7
			C21,60.8,21.4,60.9,21.9,60.9z"/>
		<path fill="#ED1C24" d="M36.7,60.9h5.1c2.7,0,4.8-2.2,4.8-4.8v-7.7l9.9-13.7h-12L31.8,48.3v7.7C31.8,58.7,34,60.9,36.7,60.9z"/>
		<path fill="#353535" d="M46.6,48.3v7.7c0,2.7,2.2,4.8,4.8,4.8h5.1c2.7,0,4.8-2.2,4.8-4.8v-7.7l7.1-13.7h-12L46.6,48.3z"/>
		<path fill="#ED1C24" d="M61.4,48.3v7.7c0,2.7,2.2,4.8,4.8,4.8h5.1c2.7,0,4.8-2.2,4.8-4.8v-7.7l4.2-13.7h-12L61.4,48.3z"/>
		<path fill="#353535" d="M76.2,48.3v7.7c0,2.7,2.2,4.8,4.8,4.8h2.3h2.8c0.3,0,0.5,0,0.8-0.1c2.3-0.4,4.1-2.4,4.1-4.8v-7.7l1.4-13.7
			h-12L76.2,48.3z"/>
		<path fill="#ED1C24" d="M91,48.3v7.7c0,2.7,2.2,4.8,4.8,4.8h5.1c2.7,0,4.8-2.2,4.8-4.8v-7.7l-1.4-13.7h-12L91,48.3z"/>
		<path fill="#353535" d="M105.7,48.3v7.7c0,2.7,2.2,4.8,4.8,4.8h5.1c2.7,0,4.8-2.2,4.8-4.8v-7.7l-4.2-13.7h-12L105.7,48.3z"/>
		<path fill="#ED1C24" d="M120.5,48.3v7.7c0,2.7,2.2,4.8,4.8,4.8h5.1c2.7,0,4.8-2.2,4.8-4.8v-7.7l-7.1-13.7h-12L120.5,48.3z"/>
		<path fill="#353535" d="M135.3,48.3v7.7c0,2.7,2.2,4.8,4.8,4.8h5.1c0.5,0,0.9-0.1,1.3-0.2c2-0.6,3.5-2.4,3.5-4.6v-7.7l-9.9-13.7
			h-12L135.3,48.3z"/>
		<path fill="#ED1C24" d="M150.1,48.3v7.7c0,2.7,2.2,4.8,4.8,4.8h5.1c2.7,0,4.8-2.2,4.8-4.8v-7.7l-12.7-13.7h-12L150.1,48.3z"/>
		<path fill="#ED1C24" d="M32.6,34.7h-12l0,0L4.9,46.4c-1.7,1.2-2.6,3.2-2.6,5.3v1.7c0,4,3.1,7.4,7.1,7.6c4.2,0.1,7.7-3.2,7.7-7.4
			v-5.2L32.6,34.7z"/>
		<path fill="#ED1C24" d="M179.7,48.3v5c0,4,3.1,7.4,7.1,7.6c4.2,0.1,7.7-3.2,7.7-7.4v-1.9c0-2.1-1-4-2.6-5.3l-15.7-11.7h-12
			L179.7,48.3z"/>
		<path fill="#353535" d="M164.1,34.7h-12l12.7,13.7v7.7c0,2.7,2.2,4.8,4.8,4.8h2.5h2.6c0.4,0,0.8-0.1,1.2-0.2
			c2.1-0.5,3.6-2.4,3.6-4.7v-2.7v-5L164.1,34.7z"/>
		<path fill="#62C6C2" d="M83.4,18.8C83.4,18.8,83.4,18.8,83.4,18.8c0,0,0-0.1,0-0.2C83.3,18.6,83.4,18.7,83.4,18.8z"/>
		<path fill="#62C6C2" d="M62.9,18.4c0,0,0-0.1-0.1-0.1c0,0.1,0.1,0.2,0.1,0.3C62.9,18.5,62.9,18.4,62.9,18.4z"/>
		<path fill="#62C6C2" d="M62.7,18.1c-0.1-0.1-0.1-0.2-0.2-0.2C62.6,17.9,62.7,18,62.7,18.1C62.7,18.1,62.7,18.1,62.7,18.1z"/>
		<path fill="#62C6C2" d="M60,16.4c-0.2-0.1-0.4-0.1-0.6-0.2c-0.2-0.1-0.5-0.1-0.7-0.2c0.3,0.1,0.5,0.1,0.7,0.2S59.8,16.3,60,16.4z"
			/>
		<path fill="#62C6C2" d="M62.3,17.5c-0.1-0.1-0.2-0.2-0.3-0.3c-0.1,0-0.1-0.1-0.2-0.1c0.1,0,0.1,0.1,0.2,0.1
			C62.1,17.3,62.2,17.4,62.3,17.5z"/>
		<path fill="#62C6C2" d="M57.4,15.7c-0.2-0.1-0.3-0.1-0.5-0.2c-0.1-0.1-0.3-0.1-0.3-0.2c0.1,0.1,0.2,0.1,0.3,0.2
			C57.1,15.6,57.3,15.6,57.4,15.7z"/>
		<path fill="#62C6C2" d="M61.3,13.2c-0.3-0.2-0.6-0.3-0.9-0.4c-0.3-0.1-0.6-0.2-0.9-0.2c-0.3-0.1-0.6-0.1-0.9-0.1
			c-0.2,0-0.4,0-0.5,0s-0.3,0-0.5,0.1c-0.2,0-0.3,0.1-0.4,0.1s-0.3,0.1-0.4,0.2c-0.1,0.1-0.2,0.2-0.3,0.3c-0.1,0.1-0.2,0.2-0.2,0.3
			c-0.1,0.1-0.1,0.2-0.1,0.3s0,0.3,0,0.4c0,0.1,0,0.2,0,0.3c0,0.1,0.1,0.2,0.1,0.3c0,0,0,0,0,0.1c0,0,0-0.1,0-0.1
			c0-0.1,0.1-0.2,0.1-0.3c0.1-0.1,0.1-0.2,0.2-0.3c0.1-0.1,0.2-0.2,0.3-0.3c0.1-0.1,0.2-0.1,0.4-0.2c0.1-0.1,0.3-0.1,0.4-0.1
			c0.2,0,0.3-0.1,0.5-0.1c0.2,0,0.4,0,0.5,0c0.3,0,0.6,0,0.9,0.1c0.3,0.1,0.6,0.1,0.9,0.2c0.3,0.1,0.6,0.2,0.9,0.4
			c0.3,0.2,0.6,0.3,0.8,0.6l0.7-1.6l-0.1-0.9l-0.7,1.6C61.8,13.6,61.5,13.4,61.3,13.2z"/>
		<path fill="#62C6C2" d="M60.1,10.9c-0.1,0-0.2,0-0.3-0.1c0,0,0,0-0.1,0c0,0,0,0,0.1,0C59.9,10.9,60,10.9,60.1,10.9z"/>
		<path fill="#62C6C2" d="M56.4,15.2C56.4,15.1,56.4,15.1,56.4,15.2C56.4,15.1,56.4,15.1,56.4,15.2C56.4,15.1,56.4,15.1,56.4,15.2z"
			/>
		<path fill="#62C6C2" d="M53.9,14.6c0,0.1,0,0.1,0,0.2c0,0,0,0.1,0,0.1c0-0.2,0-0.3,0-0.5C53.9,14.5,53.9,14.5,53.9,14.6z"/>
		<path fill="#62C6C2" d="M85.3,21c0.2,0.1,0.3,0.1,0.5,0.2c0.2,0,0.5,0.1,0.8,0.1l0,0c-0.3,0-0.5,0-0.8-0.1
			C85.7,21.2,85.5,21.1,85.3,21z"/>
		<path fill="#62C6C2" d="M88.4,20.8c0.1-0.1,0.2-0.1,0.3-0.2c0.2-0.1,0.4-0.3,0.5-0.5c-0.2,0.2-0.3,0.4-0.5,0.5
			C88.6,20.7,88.5,20.7,88.4,20.8z"/>
		<path fill="#62C6C2" d="M86.7,21.3c0.3,0,0.5,0,0.7-0.1c0.2,0,0.4-0.1,0.6-0.2c-0.2,0.1-0.4,0.1-0.6,0.2
			C87.2,21.2,87,21.3,86.7,21.3z"/>
		<path fill="#62C6C2" d="M83.2,17.9C83.2,17.9,83.2,17.8,83.2,17.9c0-0.4,0-0.8,0.1-1.1c0-0.3,0.1-0.6,0.2-0.9
			c0.1-0.3,0.2-0.5,0.3-0.7c0.1-0.2,0.3-0.4,0.4-0.6c0.2-0.2,0.3-0.4,0.5-0.5s0.4-0.3,0.6-0.4c0.2-0.1,0.4-0.2,0.7-0.2
			c0.2,0,0.5-0.1,0.8-0.1c0.3,0,0.5,0,0.8,0.1c0.2,0,0.5,0.1,0.7,0.2c0.2,0.1,0.4,0.2,0.6,0.4s0.4,0.3,0.5,0.5
			c0.1,0.1,0.1,0.2,0.2,0.3c0,0,0,0.1,0.1,0.1c0,0.1,0.1,0.1,0.1,0.2c0,0,0,0.1,0.1,0.1c0,0.1,0.1,0.1,0.1,0.2c0,0,0,0.1,0.1,0.2
			c0,0.1,0.1,0.1,0.1,0.2c0,0.1,0,0.1,0,0.2c0,0.1,0,0.2,0.1,0.2c0,0.1,0,0.1,0,0.2c0,0.1,0,0.2,0,0.2c0,0.1,0,0.1,0,0.2
			c0,0,0,0.1,0,0.1c0,0,0-0.1,0-0.1c0-0.4,0-0.7-0.1-1c0-0.3-0.1-0.6-0.2-0.9s-0.2-0.5-0.3-0.7s-0.3-0.4-0.4-0.6
			c-0.2-0.2-0.3-0.4-0.5-0.5c-0.2-0.1-0.4-0.3-0.6-0.4c-0.2-0.1-0.4-0.2-0.7-0.2s-0.5-0.1-0.8-0.1c-0.3,0-0.5,0-0.8,0.1
			s-0.5,0.1-0.7,0.2c-0.2,0.1-0.4,0.2-0.6,0.4c-0.2,0.1-0.4,0.3-0.5,0.5s-0.3,0.4-0.4,0.6c-0.1,0.2-0.2,0.5-0.3,0.7
			s-0.1,0.6-0.2,0.9c0,0.3-0.1,0.6-0.1,1C83.1,17.2,83.2,17.6,83.2,17.9C83.2,17.9,83.2,17.9,83.2,17.9z"/>
		<polygon fill="#62C6C2" points="71,13.7 71,12.7 67.3,12.7 67.1,12.7 67.3,13.7 		"/>
		<polygon fill="#62C6C2" points="77.1,12.7 73.2,12.7 73.2,22.9 71.1,22.9 71,22.9 71,22.9 71.1,23.8 73.3,23.8 73.3,13.7 
			77.2,13.7 77.2,11.9 77.1,10.9 67.1,10.9 67.1,10.9 77.1,10.9 		"/>
		<path fill="#62C6C2" d="M58.5,10.8c-0.1,0-0.2,0-0.3,0C58.3,10.8,58.4,10.8,58.5,10.8L58.5,10.8z"/>
		<path fill="#62C6C2" d="M40.3,14.4c0,0.2,0,0.4,0,0.7s-0.1,0.4-0.1,0.6c-0.1,0.2-0.1,0.4-0.2,0.5c-0.1,0.2-0.2,0.3-0.3,0.5
			c-0.1,0.1-0.3,0.3-0.4,0.4c-0.2,0.1-0.3,0.2-0.5,0.3s-0.4,0.2-0.6,0.3s-0.4,0.1-0.7,0.2c0.2,0,0.3,0.1,0.5,0.2s0.3,0.2,0.4,0.3
			c0.1,0.1,0.2,0.2,0.4,0.4c0-0.1-0.1-0.1-0.1-0.2c0.1-0.1,0.3-0.1,0.4-0.2c0.2-0.1,0.3-0.2,0.5-0.3c0.2-0.1,0.3-0.3,0.4-0.4
			c0.1-0.1,0.2-0.3,0.3-0.5c0.1-0.2,0.2-0.3,0.2-0.5c0.1-0.2,0.1-0.4,0.1-0.6s0-0.4,0-0.7c0-0.1,0-0.2,0-0.3c0,0,0-0.1,0-0.1
			c0,0,0-0.1,0-0.1c0,0,0-0.1,0-0.1c0-0.1,0-0.2,0-0.2c0,0,0,0,0,0c0,0,0,0,0,0c0,0,0,0,0,0c0-0.1,0-0.1,0-0.2
			c0-0.2-0.1-0.5-0.2-0.7l-0.1-0.3c0-0.2-0.1-0.3-0.1-0.5c0,0,0,0,0,0c0.1,0.2,0.2,0.4,0.2,0.7C40.3,13.9,40.3,14.2,40.3,14.4z
			 M40.3,13.9C40.3,13.9,40.3,13.9,40.3,13.9C40.3,13.9,40.3,13.9,40.3,13.9C40.3,13.9,40.3,13.9,40.3,13.9
			C40.3,13.9,40.3,13.9,40.3,13.9z"/>
		<polygon fill="#62C6C2" points="48.3,22.9 46.3,22.9 46.1,22.9 46.3,23.8 48.4,23.8 48.5,11.9 48.3,10.9 46.1,10.9 46.1,10.9 
			48.3,10.9 		"/>
		<path fill="#62C6C2" d="M39.6,12.2c-0.1-0.1-0.2-0.2-0.3-0.3c0.2,0.1,0.3,0.3,0.4,0.4C39.7,12.2,39.6,12.2,39.6,12.2z"/>
		<path fill="#62C6C2" d="M37.1,11c0.3,0,0.6,0.1,0.8,0.2c0.2,0.1,0.3,0.1,0.5,0.2c-0.2-0.1-0.3-0.1-0.5-0.2
			C37.7,11.1,37.4,11,37.1,11c-0.3,0-0.6-0.1-1-0.1h-5.3l0,0h5.3C36.5,10.9,36.8,10.9,37.1,11z"/>
		<path fill="#62C6C2" d="M39.9,12.5c0,0-0.1-0.1-0.1-0.1c0.1,0.2,0.2,0.3,0.3,0.5C40,12.8,39.9,12.7,39.9,12.5z"/>
		<path fill="#62C6C2" d="M37.7,15.9c-0.1,0.1-0.2,0.1-0.3,0.2c-0.1,0.1-0.3,0.1-0.4,0.1c0.2,0,0.3-0.1,0.4-0.1
			C37.5,16.1,37.6,16,37.7,15.9c0.1-0.1,0.2-0.2,0.3-0.3c0,0,0.1-0.1,0.1-0.2c0,0.1-0.1,0.1-0.1,0.2C37.9,15.8,37.8,15.8,37.7,15.9z
			"/>
		<path fill="#62C6C2" d="M33.3,23.8l0-4.8h1.7c0.1,0,0.2,0,0.3,0s0.2,0,0.3,0c0.1,0,0.2,0,0.3,0.1c0.1,0,0.2,0.1,0.2,0.1
			c0.1,0,0.1,0.1,0.2,0.1c0.1,0,0.1,0.1,0.2,0.2s0.1,0.1,0.2,0.2c0.1,0.1,0.1,0.2,0.2,0.3l2,3.8h2.4l-0.2-0.9h-2.4L36.5,19
			c0-0.1-0.1-0.2-0.2-0.3s-0.1-0.1-0.2-0.2c-0.1-0.1-0.1-0.1-0.2-0.2s-0.1-0.1-0.2-0.1c-0.1,0-0.1-0.1-0.2-0.1
			c-0.1,0-0.2-0.1-0.3-0.1c-0.1,0-0.2,0-0.3,0s-0.2,0-0.3,0H33l0,4.8h-1.9h-0.3l0,0l0.3,0.9H33.3z"/>
		<path fill="#62C6C2" d="M36.4,16.4c-0.2,0-0.4,0-0.6,0h-2.6l0-2.8h2.8c0.2,0,0.4,0,0.6,0s0.3,0,0.5,0.1s0.3,0.1,0.4,0.1
			c0.1,0.1,0.2,0.1,0.3,0.2c0.1,0.1,0.2,0.1,0.2,0.2c0,0,0,0,0,0.1c0,0,0,0.1,0.1,0.1c0-0.1,0-0.3,0-0.4c0-0.1-0.1-0.3-0.1-0.4
			c0-0.1-0.1-0.2-0.2-0.3c-0.1-0.1-0.2-0.2-0.3-0.3c-0.1-0.1-0.2-0.1-0.3-0.2c-0.1-0.1-0.3-0.1-0.4-0.1c-0.2,0-0.3-0.1-0.5-0.1
			c-0.2,0-0.4,0-0.6,0H33l0,3.8h2.9C36.1,16.4,36.2,16.4,36.4,16.4z"/>
		<path fill="#62C6C2" d="M60.7,20.3c-0.1,0.1-0.1,0.2-0.2,0.3c0,0-0.1,0.1-0.2,0.1c0.1,0,0.1-0.1,0.2-0.1
			C60.6,20.5,60.7,20.4,60.7,20.3z"/>
		<path fill="#62C6C2" d="M60.9,19.3c0-0.1-0.1-0.2-0.1-0.3s-0.1-0.2-0.2-0.2c-0.1-0.1-0.2-0.1-0.3-0.2c-0.1-0.1-0.2-0.1-0.4-0.2
			c-0.1-0.1-0.3-0.1-0.5-0.2c-0.2-0.1-0.4-0.1-0.6-0.2s-0.4-0.1-0.7-0.2c-0.2-0.1-0.5-0.1-0.7-0.2c-0.2-0.1-0.4-0.1-0.6-0.2
			s-0.4-0.1-0.6-0.2c-0.2-0.1-0.3-0.1-0.5-0.2c-0.2-0.1-0.3-0.1-0.4-0.2c-0.1-0.1-0.3-0.2-0.4-0.3c-0.1-0.1-0.2-0.2-0.3-0.3
			c-0.1-0.1-0.2-0.2-0.3-0.3c-0.1-0.1-0.1-0.2-0.2-0.4c0-0.1-0.1-0.2-0.1-0.2c0,0,0,0,0,0c0,0,0,0,0,0c0,0,0,0,0,0
			c0,0,0-0.1-0.1-0.1c0-0.1-0.1-0.3-0.1-0.4c0,0,0,0,0,0c0,0.1,0,0.1,0,0.2c0,0.1,0,0.2,0.1,0.3l0.1,0.6c0,0.1,0,0.2,0.1,0.2
			c0,0,0,0,0,0c0,0,0,0,0,0c0,0,0,0,0,0c0,0.1,0.1,0.2,0.1,0.3c0,0,0,0.1,0,0.1c0,0,0,0,0,0c0,0,0,0,0,0c0,0,0,0.1,0,0.1
			c0,0.1,0.1,0.2,0.1,0.2c0.1,0.1,0.2,0.2,0.3,0.3c0.1,0.1,0.2,0.2,0.3,0.3s0.2,0.2,0.4,0.3c0.1,0.1,0.3,0.2,0.4,0.2
			c0.2,0.1,0.3,0.1,0.5,0.2s0.4,0.1,0.6,0.2c0.2,0.1,0.4,0.1,0.6,0.2c0.2,0.1,0.5,0.1,0.7,0.2c0.2,0.1,0.5,0.1,0.7,0.2
			s0.4,0.1,0.6,0.2c0.2,0.1,0.3,0.1,0.5,0.2c0.1,0.1,0.3,0.1,0.4,0.2c0.1,0.1,0.2,0.1,0.3,0.2c0,0,0,0,0.1,0.1c0,0,0.1,0.1,0.1,0.2
			c0,0,0,0,0,0c0-0.1,0-0.2,0-0.3C60.9,19.5,60.9,19.4,60.9,19.3z"/>
		<path fill="#62C6C2" d="M54.8,12.1c-0.1,0.1-0.2,0.3-0.3,0.4c-0.1,0.1-0.1,0.2-0.2,0.3c0.1-0.1,0.1-0.2,0.2-0.3
			C54.6,12.4,54.7,12.3,54.8,12.1z"/>
		<path fill="#62C6C2" d="M54.3,22.8c0.2,0.1,0.3,0.2,0.5,0.3c0.2,0.1,0.3,0.2,0.5,0.2s0.4,0.1,0.6,0.2c0.2,0.1,0.4,0.1,0.6,0.2
			c0.2,0,0.4,0.1,0.6,0.1c0.2,0,0.4,0.1,0.7,0.1c0.2,0,0.4,0,0.7,0c0.2,0,0.5,0,0.7,0c0.2,0,0.4,0,0.7-0.1c0.2,0,0.4-0.1,0.6-0.1
			s0.4-0.1,0.6-0.2c0.2-0.1,0.3-0.2,0.5-0.2c0.2-0.1,0.3-0.2,0.4-0.3s0.3-0.2,0.4-0.3c0.1-0.1,0.2-0.2,0.3-0.4
			c0.1-0.1,0.2-0.3,0.2-0.4s0.1-0.3,0.2-0.4s0.1-0.3,0.1-0.5s0-0.3,0-0.5c0,0,0-0.1,0-0.1c0,0,0-0.1,0-0.1c0,0,0-0.1,0-0.1
			c0,0,0-0.1,0-0.1c0,0,0,0,0,0c0,0,0,0,0,0c0,0,0,0,0,0L63,19c0-0.1,0-0.2-0.1-0.3c0,0,0,0,0-0.1c0,0.1,0.1,0.3,0.1,0.4
			c0,0.1,0,0.3,0,0.5c0,0.2,0,0.4,0,0.5s-0.1,0.3-0.1,0.5c0,0.2-0.1,0.3-0.2,0.5c-0.1,0.1-0.2,0.3-0.3,0.4c-0.1,0.1-0.2,0.3-0.3,0.4
			c-0.1,0.1-0.2,0.2-0.4,0.3c-0.1,0.1-0.3,0.2-0.4,0.3c-0.2,0.1-0.3,0.2-0.5,0.2c-0.2,0.1-0.4,0.1-0.6,0.2c-0.2,0.1-0.4,0.1-0.6,0.1
			S59.2,23,59,23c-0.2,0-0.5,0-0.7,0c-0.2,0-0.5,0-0.7,0c-0.2,0-0.4,0-0.7-0.1c-0.2,0-0.4-0.1-0.6-0.1c-0.2,0-0.4-0.1-0.6-0.2
			c-0.2-0.1-0.4-0.1-0.6-0.2c-0.2-0.1-0.4-0.2-0.5-0.2s-0.3-0.2-0.5-0.3c-0.2-0.1-0.3-0.2-0.4-0.3v0l0.2,0.9
			C54,22.6,54.1,22.7,54.3,22.8z"/>
		<path fill="#62C6C2" d="M56.1,11.2c-0.2,0.1-0.3,0.2-0.5,0.3c0,0-0.1,0.1-0.1,0.1c0,0,0.1-0.1,0.1-0.1
			C55.8,11.4,55.9,11.3,56.1,11.2z"/>
		<path fill="#62C6C2" d="M58.3,21.3c-0.2,0-0.4,0-0.6,0c-0.2,0-0.4,0-0.5-0.1c0.2,0,0.4,0,0.5,0.1S58.1,21.3,58.3,21.3z"/>
		<path fill="#62C6C2" d="M55.8,20.8c-0.2-0.1-0.3-0.1-0.5-0.2c-0.2-0.1-0.3-0.2-0.5-0.3c0.1,0.1,0.3,0.2,0.5,0.3
			C55.4,20.6,55.6,20.7,55.8,20.8z"/>
		<path fill="#62C6C2" d="M56.5,21c-0.1,0-0.2,0-0.2-0.1c-0.2-0.1-0.3-0.1-0.5-0.2c0.2,0.1,0.3,0.1,0.5,0.2C56.3,21,56.4,21,56.5,21
			z"/>
		<rect x="158.9" y="10.9" fill="#62C6C2" width="8" height="0"/>
		<polygon fill="#62C6C2" points="137.5,22.9 131.1,14.5 131.1,15.6 137.3,23.8 139,23.8 139.1,22.9 139.1,22.9 139,22.9 		"/>
		<polygon fill="#62C6C2" points="137.1,10.9 136.9,11.9 136.9,19 137.1,19.2 		"/>
		<rect x="137.1" y="10.9" fill="#62C6C2" width="2.1" height="0"/>
		<polygon fill="#62C6C2" points="130.9,23.8 131.1,22.9 130.9,22.9 129,22.9 129,10.9 130.6,10.9 133.6,14.7 130.6,10.9 129,10.9 
			128.9,11.9 128.9,23.8 		"/>
		<polygon fill="#62C6C2" points="118,14.2 119.8,18.4 120.2,18.4 118,13.3 115.9,18.4 116.2,18.4 		"/>
		<polygon fill="#62C6C2" points="115.1,21 120.9,21 122.1,23.8 124.3,23.8 124.4,22.9 122.2,22.9 121,20.1 115.1,20.1 113.9,22.9 
			111.7,22.9 111.7,23.8 113.9,23.8 		"/>
		<polygon fill="#62C6C2" points="143.9,13.7 147.7,13.7 147.8,23.8 149.9,23.8 150.1,22.9 149.9,22.9 147.9,22.9 147.9,12.7 
			144,12.7 144,10.9 143.8,11.9 		"/>
		<polygon fill="#62C6C2" points="118.9,10.9 124.4,22.9 118.9,10.9 117.1,10.9 111.7,22.9 117.1,10.9 		"/>
		<polygon fill="#62C6C2" points="167,21.1 167,21.1 161.1,21.1 161.1,21.1 161.1,21.1 		"/>
		<polygon fill="#62C6C2" points="166.6,15.9 166.6,15.9 161.1,15.9 161.1,15.9 161.1,15.9 		"/>
		<polygon fill="#62C6C2" points="161.1,17.6 161.1,18.6 166.4,18.6 166.6,17.6 166.4,17.6 		"/>
		<path fill="#62C6C2" d="M103.6,19c0-0.1-0.1-0.2-0.2-0.3s-0.1-0.1-0.2-0.2c-0.1-0.1-0.1-0.1-0.2-0.2s-0.1-0.1-0.2-0.1
			c-0.1,0-0.1-0.1-0.2-0.1c-0.1,0-0.2-0.1-0.3-0.1c-0.1,0-0.2,0-0.3,0c-0.1,0-0.2,0-0.3,0h-1.7V19h1.7c0.1,0,0.2,0,0.3,0
			c0.1,0,0.2,0,0.3,0c0.1,0,0.2,0,0.3,0.1c0.1,0,0.2,0.1,0.2,0.1c0.1,0,0.1,0.1,0.2,0.1c0.1,0,0.1,0.1,0.2,0.2s0.1,0.1,0.2,0.2
			s0.1,0.2,0.2,0.3l2,3.8h2.4l0-0.9h-2.4L103.6,19z"/>
		<polygon fill="#62C6C2" points="161.1,12.7 161.1,13.6 166.7,13.6 166.9,12.7 166.9,12.7 166.7,12.7 		"/>
		<polygon fill="#62C6C2" points="150.1,12.7 150.1,13.7 153.8,13.7 154,12.7 153.8,12.7 		"/>
		<rect x="144" y="10.9" fill="#62C6C2" width="10" height="0"/>
		<polygon fill="#62C6C2" points="158.7,23.8 166.7,23.8 167,22.9 166.7,22.9 158.9,22.9 158.9,10.9 158.7,11.9 		"/>
		<path fill="#62C6C2" d="M92.3,15.8c0-0.1,0-0.3-0.1-0.4C92.2,15.6,92.3,15.7,92.3,15.8C92.3,15.9,92.3,15.8,92.3,15.8z"/>
		<path fill="#62C6C2" d="M92.3,17.8c0,0.3-0.1,0.6-0.1,0.8c-0.1,0.3-0.1,0.5-0.2,0.8c-0.1,0.3-0.2,0.5-0.3,0.7
			c-0.1,0.2-0.2,0.4-0.4,0.7s-0.3,0.4-0.5,0.6c-0.2,0.2-0.3,0.3-0.5,0.5c-0.2,0.2-0.4,0.3-0.6,0.4c-0.2,0.1-0.4,0.2-0.7,0.3
			c-0.2,0.1-0.5,0.2-0.7,0.2c-0.3,0.1-0.5,0.1-0.8,0.1c-0.3,0-0.5,0-0.8,0c-0.3,0-0.6,0-0.8,0c-0.3,0-0.5-0.1-0.8-0.1
			c-0.3-0.1-0.5-0.1-0.7-0.2c-0.2-0.1-0.5-0.2-0.7-0.3c-0.2-0.1-0.4-0.3-0.6-0.4c-0.2-0.2-0.4-0.3-0.5-0.5c-0.2-0.2-0.3-0.4-0.5-0.6
			c-0.1-0.2-0.3-0.4-0.4-0.7c-0.1-0.2-0.2-0.5-0.3-0.7s-0.2-0.5-0.2-0.8c0-0.2-0.1-0.4-0.1-0.7c0,0,0,0,0,0c0,0,0,0,0,0
			c0-0.1,0-0.1,0-0.2c0-0.3,0-0.6,0-0.9c0,0.1,0,0.1,0,0.2c0,0.1,0,0.1,0,0.2c0,0.1,0,0.1,0,0.2c0,0.1,0,0.1,0,0.2l0,0.4
			c0,0.2,0,0.3,0,0.5c0,0,0,0,0,0.1c0,0.1,0,0.1,0,0.2c0,0.2,0,0.3,0.1,0.5c0,0,0,0,0,0c0,0,0,0,0,0.1c0,0.1,0,0.2,0.1,0.3
			c0,0.1,0,0.2,0.1,0.2c0,0,0,0,0,0.1c0,0,0,0,0,0c0,0.2,0.1,0.3,0.1,0.4c0,0,0,0.1,0,0.1c0,0,0,0,0,0c0,0,0,0,0,0.1
			c0.1,0.2,0.1,0.4,0.2,0.5c0.1,0.2,0.2,0.4,0.4,0.7c0.1,0.2,0.3,0.4,0.5,0.6c0.2,0.2,0.3,0.3,0.5,0.5s0.4,0.3,0.6,0.4
			c0.2,0.1,0.4,0.2,0.7,0.3s0.5,0.2,0.7,0.2c0.3,0.1,0.5,0.1,0.8,0.1c0.3,0,0.6,0,0.8,0c0.3,0,0.6,0,0.8,0c0.3,0,0.5-0.1,0.8-0.1
			c0.3-0.1,0.5-0.1,0.7-0.2c0.2-0.1,0.5-0.2,0.7-0.3c0.2-0.1,0.4-0.3,0.6-0.4c0.2-0.2,0.4-0.3,0.5-0.5c0.2-0.2,0.3-0.4,0.5-0.6
			s0.3-0.4,0.4-0.7s0.2-0.5,0.3-0.7c0.1-0.3,0.2-0.5,0.2-0.8s0.1-0.5,0.1-0.8C92.4,18.4,92.4,18.1,92.3,17.8
			C92.4,17.8,92.4,17.8,92.3,17.8c0.1-0.1,0.1-0.1,0.1-0.1c0,0,0,0,0-0.1c0,0,0,0,0-0.1c0-0.3,0-0.6,0-0.9c0-0.1,0-0.2,0-0.4
			c0,0.2,0,0.4,0,0.6C92.3,17.2,92.3,17.5,92.3,17.8z"/>
		<path fill="#62C6C2" d="M83.7,19.5C83.7,19.5,83.7,19.5,83.7,19.5c0,0,0-0.1-0.1-0.2C83.6,19.4,83.6,19.4,83.7,19.5z"/>
		<path fill="#62C6C2" d="M92.1,15c0-0.2-0.1-0.3-0.1-0.4C92.1,14.7,92.1,14.9,92.1,15C92.2,15.1,92.2,15,92.1,15z"/>
		<path fill="#62C6C2" d="M91.9,14.3c-0.1-0.2-0.2-0.4-0.3-0.7C91.8,13.9,91.9,14.1,91.9,14.3C91.9,14.3,91.9,14.3,91.9,14.3z"/>
		<path fill="#62C6C2" d="M107.2,15.7c-0.1,0.2-0.1,0.4-0.2,0.5c-0.1,0.2-0.2,0.3-0.3,0.5c-0.1,0.1-0.3,0.3-0.4,0.4
			c-0.2,0.1-0.3,0.2-0.5,0.3c-0.2,0.1-0.4,0.2-0.6,0.3s-0.4,0.1-0.7,0.2c0.2,0,0.3,0.1,0.5,0.2c0.1,0.1,0.3,0.2,0.4,0.3
			c0.1,0.1,0.2,0.2,0.4,0.4c0.1,0.1,0.2,0.3,0.3,0.5c-0.1-0.2-0.2-0.3-0.3-0.5c-0.1-0.1-0.1-0.2-0.2-0.3c0.1,0,0.2-0.1,0.2-0.1
			c0.2-0.1,0.3-0.2,0.5-0.3c0.2-0.1,0.3-0.3,0.4-0.4c0.1-0.1,0.2-0.3,0.3-0.4c0,0,0,0,0,0c0,0,0,0,0,0c0,0,0,0,0,0
			c0.1-0.1,0.1-0.3,0.2-0.4c0,0,0,0,0,0c0,0,0,0,0,0c0,0,0,0,0,0c0-0.1,0.1-0.3,0.1-0.4c0,0,0,0,0,0c0,0,0,0,0,0c0,0,0-0.1,0-0.1
			c0-0.1,0-0.3,0-0.4c0,0,0,0,0,0c0-0.2,0-0.4,0-0.6l0-0.3c0,0,0,0,0,0s0,0,0,0c0,0,0,0,0,0c0,0,0,0,0,0c0,0.2,0,0.4,0,0.7
			C107.3,15.3,107.3,15.5,107.2,15.7z"/>
		<polygon fill="#62C6C2" points="100.1,23.8 100.1,22.9 100.1,22.9 98,22.9 98,22.9 98,23.8 		"/>
		<path fill="#62C6C2" d="M83.6,11.5c-0.2,0.1-0.4,0.3-0.6,0.4c-0.2,0.2-0.4,0.3-0.5,0.5c0.2-0.2,0.3-0.3,0.5-0.5
			C83.2,11.8,83.4,11.6,83.6,11.5z"/>
		<path fill="#62C6C2" d="M82.5,12.4c-0.2,0.2-0.3,0.4-0.5,0.6c-0.1,0.2-0.3,0.4-0.4,0.7c0.1-0.2,0.2-0.4,0.4-0.7
			C82.2,12.8,82.3,12.6,82.5,12.4z"/>
		<path fill="#62C6C2" d="M81.1,15.1C81.1,15.4,81,15.7,81,16c0,0.1,0,0.3,0,0.5c0-0.2,0-0.3,0-0.5C81,15.7,81.1,15.4,81.1,15.1z"/>
		<path fill="#62C6C2" d="M106.8,12.3c-0.1-0.2-0.3-0.4-0.5-0.5c-0.2-0.2-0.4-0.3-0.6-0.4c0.2,0.1,0.4,0.2,0.6,0.4
			C106.5,12,106.7,12.1,106.8,12.3z"/>
		<path fill="#62C6C2" d="M104.2,11c0.3,0,0.6,0.1,0.8,0.2c0.3,0.1,0.5,0.2,0.7,0.3c-0.2-0.1-0.5-0.2-0.7-0.3S104.5,11,104.2,11
			c-0.3,0-0.6-0.1-1-0.1H98l0,0h5.3C103.6,10.9,103.9,10.9,104.2,11z"/>
		<path fill="#62C6C2" d="M107.3,13.6c0,0.1,0,0.3,0,0.4C107.4,13.9,107.4,13.8,107.3,13.6c0-0.3-0.1-0.5-0.2-0.7s-0.2-0.4-0.3-0.6
			c0.1,0.2,0.2,0.4,0.3,0.6C107.2,13.2,107.3,13.4,107.3,13.6z"/>
		<path fill="#62C6C2" d="M105.2,15.3c0,0,0-0.1,0-0.1C105.2,15.2,105.2,15.3,105.2,15.3C105.2,15.3,105.2,15.3,105.2,15.3z"/>
		<path fill="#62C6C2" d="M100.1,16.4L100.1,16.4l2.9,0c0.2,0,0.4,0,0.6,0c-0.2,0-0.4,0-0.6,0H100.1z"/>
		<path fill="#62C6C2" d="M105,15.7C105,15.6,105.1,15.6,105,15.7C105.1,15.6,105,15.6,105,15.7C105,15.7,105,15.7,105,15.7z"/>
		<path fill="#62C6C2" d="M102.9,13.6c0.2,0,0.4,0,0.6,0s0.3,0,0.5,0.1s0.3,0.1,0.4,0.1c0.1,0.1,0.2,0.1,0.3,0.2
			c0.1,0.1,0.2,0.2,0.3,0.3s0.1,0.2,0.2,0.3c0,0.1,0.1,0.2,0.1,0.4c0,0,0,0,0,0c0,0,0,0,0-0.1c0-0.1,0-0.3,0-0.5c0-0.2,0-0.3,0-0.5
			c0-0.1-0.1-0.3-0.1-0.4c0-0.1-0.1-0.2-0.2-0.3s-0.2-0.2-0.3-0.3c-0.1-0.1-0.2-0.1-0.3-0.2c-0.1-0.1-0.3-0.1-0.4-0.1
			c-0.2,0-0.3-0.1-0.5-0.1c-0.2,0-0.4,0-0.6,0h-2.9v0.9H102.9z"/>
		<path fill="#ED1C24" d="M33,22.9l0-4.8h1.7c0.1,0,0.2,0,0.3,0s0.2,0,0.3,0c0.1,0,0.2,0,0.3,0.1c0.1,0,0.2,0.1,0.2,0.1
			c0.1,0,0.1,0.1,0.2,0.1s0.1,0.1,0.2,0.2c0.1,0.1,0.1,0.1,0.2,0.2s0.1,0.2,0.2,0.3l2.1,3.8h2.4l-2-3.7c-0.1-0.2-0.2-0.3-0.3-0.5
			s-0.2-0.3-0.4-0.4c-0.1-0.1-0.3-0.2-0.4-0.3s-0.3-0.1-0.5-0.2c0.2,0,0.5-0.1,0.7-0.2s0.4-0.2,0.6-0.3s0.4-0.2,0.5-0.3
			c0.2-0.1,0.3-0.3,0.4-0.4c0.1-0.1,0.2-0.3,0.3-0.5c0.1-0.2,0.2-0.3,0.2-0.5c0.1-0.2,0.1-0.4,0.1-0.6s0-0.4,0-0.7
			c0-0.3,0-0.6-0.1-0.8c0-0.2-0.1-0.5-0.2-0.7c0,0,0,0,0,0c0,0,0,0,0,0c-0.1-0.2-0.2-0.3-0.3-0.5c0,0,0,0,0-0.1c0,0,0,0-0.1-0.1
			c-0.1-0.2-0.3-0.3-0.4-0.4c-0.2-0.2-0.4-0.3-0.6-0.4c-0.1,0-0.1-0.1-0.2-0.1c-0.2-0.1-0.3-0.1-0.5-0.2c-0.3-0.1-0.5-0.1-0.8-0.2
			c-0.3,0-0.6-0.1-1-0.1h-5.3l0,0l0,11.9h0.3H33z M33,12.6h2.9c0.2,0,0.4,0,0.6,0c0.2,0,0.3,0,0.5,0.1c0.2,0,0.3,0.1,0.4,0.1
			c0.1,0.1,0.2,0.1,0.3,0.2c0.1,0.1,0.2,0.2,0.3,0.3c0.1,0.1,0.1,0.2,0.2,0.3c0,0.1,0.1,0.2,0.1,0.4c0,0.1,0,0.2,0,0.4
			c0,0,0,0,0,0.1c0,0.2,0,0.3,0,0.5c0,0.1-0.1,0.3-0.1,0.4c0,0.1-0.1,0.1-0.1,0.2c0,0.1-0.1,0.1-0.1,0.2c-0.1,0.1-0.2,0.2-0.3,0.3
			s-0.2,0.1-0.3,0.2c-0.1,0.1-0.3,0.1-0.4,0.1c-0.2,0-0.3,0.1-0.5,0.1c0,0,0,0,0,0c-0.2,0-0.4,0-0.6,0H33L33,12.6z"/>
		<polygon fill="#ED1C24" points="46.3,22.9 48.3,22.9 48.3,10.9 46.1,10.9 46.1,10.9 46.1,22.9 46.1,22.9 		"/>
		<path fill="#ED1C24" d="M54.6,22.2c0.2,0.1,0.3,0.2,0.5,0.2c0.2,0.1,0.4,0.1,0.6,0.2c0.2,0.1,0.4,0.1,0.6,0.2
			c0.2,0,0.4,0.1,0.6,0.1c0.2,0,0.4,0.1,0.7,0.1c0.2,0,0.4,0,0.7,0c0.2,0,0.5,0,0.7,0c0.2,0,0.4,0,0.7-0.1s0.4-0.1,0.6-0.1
			c0.2-0.1,0.4-0.1,0.6-0.2c0.2-0.1,0.3-0.2,0.5-0.2c0.2-0.1,0.3-0.2,0.4-0.3c0.1-0.1,0.3-0.2,0.4-0.3c0.1-0.1,0.2-0.2,0.3-0.4
			c0.1-0.1,0.2-0.3,0.3-0.4c0.1-0.1,0.1-0.3,0.2-0.5c0-0.2,0.1-0.3,0.1-0.5s0-0.3,0-0.5c0-0.2,0-0.3,0-0.5c0-0.1,0-0.3-0.1-0.4
			c0,0,0,0,0,0c0,0,0,0,0-0.1c0-0.1-0.1-0.2-0.1-0.3c0,0,0,0,0-0.1c0,0,0,0,0,0c-0.1-0.1-0.1-0.2-0.2-0.3c-0.1-0.1-0.2-0.2-0.3-0.3
			s-0.2-0.2-0.3-0.3c-0.1,0-0.1-0.1-0.2-0.1c-0.1,0-0.1-0.1-0.2-0.1c-0.1-0.1-0.3-0.2-0.4-0.2c-0.2-0.1-0.3-0.1-0.5-0.2
			c-0.2-0.1-0.4-0.1-0.6-0.2c-0.2-0.1-0.4-0.1-0.6-0.2s-0.5-0.1-0.7-0.2c-0.2-0.1-0.5-0.1-0.7-0.2s-0.4-0.1-0.6-0.2
			c-0.2-0.1-0.3-0.1-0.5-0.2c-0.1-0.1-0.3-0.1-0.3-0.2c-0.1-0.1-0.2-0.1-0.2-0.2c0,0,0,0,0,0c0,0,0,0,0-0.1c0,0-0.1-0.1-0.1-0.1
			c0,0,0,0,0-0.1c0-0.1-0.1-0.2-0.1-0.3c0-0.1,0-0.2,0-0.3c0-0.1,0-0.3,0-0.4s0.1-0.2,0.1-0.3c0.1-0.1,0.1-0.2,0.2-0.3
			c0.1-0.1,0.2-0.2,0.3-0.3c0.1-0.1,0.2-0.1,0.4-0.2s0.3-0.1,0.4-0.1c0.2,0,0.3-0.1,0.5-0.1s0.4,0,0.5,0c0.3,0,0.6,0,0.9,0.1
			c0.3,0.1,0.6,0.1,0.9,0.2c0.3,0.1,0.6,0.2,0.9,0.4c0.3,0.2,0.6,0.3,0.8,0.6l0.7-1.6c-0.1-0.1-0.3-0.2-0.4-0.3s-0.3-0.2-0.4-0.3
			s-0.3-0.2-0.5-0.2c-0.2-0.1-0.4-0.1-0.5-0.2c-0.2-0.1-0.4-0.1-0.6-0.2c-0.1,0-0.2,0-0.3-0.1s-0.2,0-0.3-0.1c0,0,0,0-0.1,0
			c-0.2,0-0.4,0-0.5-0.1c-0.2,0-0.4,0-0.6,0l0,0c-0.1,0-0.2,0-0.3,0s-0.2,0-0.3,0c-0.2,0-0.4,0-0.6,0.1S56.9,11,56.7,11
			s-0.4,0.1-0.5,0.2c-0.2,0.1-0.3,0.2-0.5,0.3c0,0-0.1,0.1-0.1,0.1c-0.1,0.1-0.2,0.1-0.3,0.2c-0.1,0.1-0.3,0.2-0.4,0.3
			c-0.1,0.1-0.2,0.3-0.3,0.4c-0.1,0.1-0.1,0.2-0.2,0.3c0,0-0.1,0.1-0.1,0.1c-0.1,0.1-0.1,0.3-0.2,0.5c0,0.2-0.1,0.3-0.1,0.5
			c0,0.2,0,0.3,0,0.5c0,0.2,0,0.3,0,0.5c0,0,0,0,0,0c0,0,0,0,0,0c0,0.2,0,0.3,0.1,0.4c0,0.1,0,0.1,0.1,0.1c0,0,0,0,0,0
			c0,0.1,0.1,0.2,0.1,0.2c0.1,0.1,0.1,0.2,0.2,0.4c0.1,0.1,0.2,0.2,0.3,0.3c0.1,0.1,0.2,0.2,0.3,0.3c0.1,0.1,0.2,0.2,0.4,0.3
			c0.1,0.1,0.3,0.2,0.4,0.2c0.2,0.1,0.3,0.1,0.5,0.2c0.2,0.1,0.4,0.1,0.6,0.2s0.4,0.1,0.6,0.2c0.2,0.1,0.5,0.1,0.7,0.2
			c0.2,0.1,0.5,0.1,0.7,0.2s0.4,0.1,0.6,0.2c0.2,0.1,0.3,0.1,0.5,0.2c0.1,0.1,0.3,0.1,0.4,0.2c0.1,0.1,0.2,0.1,0.3,0.2
			c0.1,0.1,0.1,0.2,0.2,0.2s0.1,0.2,0.1,0.3c0,0.1,0,0.2,0,0.3c0,0.1,0,0.2,0,0.3c0,0,0,0.1,0,0.1c0,0.1-0.1,0.2-0.1,0.3
			c-0.1,0.1-0.1,0.2-0.2,0.3c0,0-0.1,0.1-0.2,0.1c0,0-0.1,0.1-0.1,0.1C60.1,20.9,60,21,59.9,21c-0.1,0.1-0.3,0.1-0.4,0.1
			s-0.3,0.1-0.5,0.1c-0.2,0-0.4,0-0.6,0c-0.2,0-0.4,0-0.6,0s-0.4,0-0.5-0.1c-0.2,0-0.3-0.1-0.5-0.1c-0.1,0-0.2,0-0.2-0.1
			c-0.1,0-0.2,0-0.2-0.1c-0.2-0.1-0.3-0.1-0.5-0.2s-0.3-0.1-0.5-0.2c-0.2-0.1-0.3-0.2-0.5-0.3c-0.1-0.1-0.3-0.2-0.4-0.3l-0.7,1.6
			c0.1,0.1,0.3,0.2,0.4,0.3C54.3,22,54.4,22.1,54.6,22.2z"/>
		<polygon fill="#ED1C24" points="71,12.7 71,13.7 71,22.9 71.1,22.9 73.2,22.9 73.2,12.7 77.1,12.7 77.1,10.9 67.1,10.9 67.1,10.9 
			67.1,12.7 67.3,12.7 		"/>
		<path fill="#ED1C24" d="M80.9,16.9c0,0.3,0,0.6,0,0.9c0,0.1,0,0.1,0,0.2c0,0,0,0,0,0c0,0.2,0.1,0.4,0.1,0.7
			c0.1,0.3,0.1,0.5,0.2,0.8s0.2,0.5,0.3,0.7c0.1,0.2,0.2,0.4,0.4,0.7c0.1,0.2,0.3,0.4,0.5,0.6c0.2,0.2,0.3,0.3,0.5,0.5
			c0.2,0.2,0.4,0.3,0.6,0.4c0.2,0.1,0.4,0.2,0.7,0.3c0.2,0.1,0.5,0.2,0.7,0.2c0.3,0.1,0.5,0.1,0.8,0.1c0.3,0,0.6,0,0.8,0
			c0.3,0,0.6,0,0.8,0c0.3,0,0.5-0.1,0.8-0.1c0.3-0.1,0.5-0.1,0.7-0.2c0.2-0.1,0.5-0.2,0.7-0.3c0.2-0.1,0.4-0.3,0.6-0.4
			c0.2-0.2,0.4-0.3,0.5-0.5c0.2-0.2,0.3-0.4,0.5-0.6s0.3-0.4,0.4-0.7c0.1-0.2,0.2-0.5,0.3-0.7c0.1-0.3,0.2-0.5,0.2-0.8
			c0.1-0.3,0.1-0.6,0.1-0.8s0-0.6,0-0.9c0-0.2,0-0.4,0-0.6c0-0.1,0-0.2,0-0.3c0,0,0-0.1,0-0.1c0-0.2,0-0.3-0.1-0.5
			c0-0.1,0-0.2,0-0.3c0,0,0,0,0-0.1c0-0.2-0.1-0.3-0.1-0.5c0-0.1,0-0.1-0.1-0.2c0,0,0,0,0,0c-0.1-0.2-0.2-0.5-0.3-0.7c0,0,0,0,0,0
			c-0.1-0.2-0.2-0.4-0.4-0.7c-0.1-0.2-0.3-0.4-0.5-0.6c-0.2-0.2-0.3-0.3-0.5-0.5c-0.2-0.2-0.4-0.3-0.6-0.4c-0.2-0.1-0.4-0.2-0.7-0.3
			c-0.2-0.1-0.5-0.2-0.7-0.2c-0.3-0.1-0.5-0.1-0.8-0.1c-0.3,0-0.6,0-0.8,0c-0.3,0-0.6,0-0.8,0S85.3,10.9,85,11s-0.5,0.1-0.7,0.2
			c-0.2,0.1-0.5,0.2-0.7,0.3c-0.2,0.1-0.4,0.3-0.6,0.4c-0.2,0.2-0.4,0.3-0.5,0.5c-0.2,0.2-0.3,0.4-0.5,0.6c-0.1,0.2-0.3,0.4-0.4,0.7
			c-0.1,0.2-0.2,0.5-0.3,0.7c-0.1,0.2-0.2,0.5-0.2,0.8C81.1,15.4,81,15.7,81,16c0,0.1,0,0.3,0,0.5S80.9,16.7,80.9,16.9
			C80.9,16.9,80.9,16.9,80.9,16.9z M83.2,15.9c0-0.3,0.1-0.6,0.2-0.9s0.2-0.5,0.3-0.7c0.1-0.2,0.3-0.4,0.4-0.6s0.3-0.4,0.5-0.5
			c0.2-0.1,0.4-0.3,0.6-0.4c0.2-0.1,0.4-0.2,0.7-0.2s0.5-0.1,0.8-0.1c0.3,0,0.5,0,0.8,0.1s0.5,0.1,0.7,0.2c0.2,0.1,0.4,0.2,0.6,0.4
			c0.2,0.1,0.4,0.3,0.5,0.5c0.2,0.2,0.3,0.4,0.4,0.6s0.2,0.5,0.3,0.7s0.1,0.6,0.2,0.9c0,0.3,0.1,0.6,0.1,1c0,0,0,0.1,0,0.1
			c0,0.3,0,0.6-0.1,0.9c0,0.3-0.1,0.6-0.2,0.9s-0.2,0.5-0.3,0.8c-0.1,0.2-0.3,0.4-0.4,0.6c-0.2,0.2-0.3,0.4-0.5,0.5
			c-0.1,0.1-0.2,0.1-0.3,0.2c-0.1,0.1-0.2,0.1-0.3,0.2c0,0-0.1,0-0.1,0c-0.2,0.1-0.4,0.1-0.6,0.2c-0.2,0-0.5,0.1-0.7,0.1
			c0,0,0,0-0.1,0l0,0c-0.3,0-0.5,0-0.8-0.1c-0.2,0-0.4-0.1-0.5-0.2c-0.1,0-0.1,0-0.2,0c-0.2-0.1-0.4-0.2-0.6-0.4
			c-0.2-0.1-0.4-0.3-0.5-0.5c-0.1-0.2-0.3-0.4-0.4-0.6c0,0,0,0,0,0c0-0.1,0-0.1-0.1-0.2c-0.1-0.2-0.1-0.3-0.2-0.5c0,0,0-0.1,0-0.1
			c0-0.1,0-0.1,0-0.2c-0.1-0.2-0.1-0.4-0.1-0.6c0,0,0,0,0,0c0-0.3-0.1-0.6-0.1-1C83.1,16.5,83.2,16.2,83.2,15.9z"/>
		<polygon fill="#ED1C24" points="166.7,22.9 167,22.9 167,22.9 167,21.1 167,21.1 161.1,21.1 161.1,21.1 161.1,18.6 161.1,17.6 
			166.4,17.6 166.6,17.6 166.6,15.9 166.6,15.9 161.1,15.9 161.1,15.9 161.1,13.6 161.1,12.7 166.7,12.7 166.9,12.7 166.9,10.9 
			166.9,10.9 158.9,10.9 158.9,10.9 158.9,10.9 158.9,22.9 		"/>
		<polygon fill="#ED1C24" points="147.9,12.7 147.9,22.9 149.9,22.9 150.1,22.9 150.1,13.7 150.1,12.7 153.8,12.7 154,12.7 
			154,12.7 154,10.9 154,10.9 144,10.9 144,10.9 144,10.9 144,12.7 		"/>
		<polygon fill="#ED1C24" points="129,10.9 129,22.9 130.9,22.9 131.1,22.9 131.1,15.6 131.1,14.5 137.5,22.9 139,22.9 139.1,22.9 
			139.1,10.9 139.1,10.9 137.1,10.9 137.1,10.9 137.1,10.9 137.1,19.2 136.9,19 133.6,14.7 130.6,10.9 		"/>
		<path fill="#ED1C24" d="M115.1,20.1h5.8l1.2,2.8h2.2l-5.4-11.9h-1.8l-5.4,11.9h2.2L115.1,20.1z M118,13.3l2.2,5.1h-0.5h-3.6h-0.3
			L118,13.3z"/>
		<path fill="#ED1C24" d="M100.1,22.9L100.1,22.9l0-3.9v-0.9h1.7c0.1,0,0.2,0,0.3,0c0.1,0,0.2,0,0.3,0c0.1,0,0.2,0,0.3,0.1
			c0.1,0,0.2,0.1,0.2,0.1c0.1,0,0.1,0.1,0.2,0.1s0.1,0.1,0.2,0.2c0.1,0.1,0.1,0.1,0.2,0.2s0.1,0.2,0.2,0.3l2.1,3.8h2.4h0l-2-3.7
			c-0.1-0.2-0.2-0.3-0.3-0.5c-0.1-0.1-0.2-0.3-0.4-0.4c-0.1-0.1-0.3-0.2-0.4-0.3c-0.1-0.1-0.3-0.1-0.5-0.2c0.2,0,0.5-0.1,0.7-0.2
			s0.4-0.2,0.6-0.3c0.2-0.1,0.4-0.2,0.5-0.3c0.2-0.1,0.3-0.3,0.4-0.4c0.1-0.1,0.2-0.3,0.3-0.5c0.1-0.2,0.2-0.3,0.2-0.5
			c0.1-0.2,0.1-0.4,0.1-0.6c0-0.2,0-0.4,0-0.7c0,0,0,0,0,0c0-0.1,0-0.3,0-0.4c0-0.1,0-0.3,0-0.4c0-0.3-0.1-0.5-0.2-0.7
			c-0.1-0.2-0.2-0.4-0.3-0.6c-0.1-0.2-0.3-0.4-0.5-0.5c-0.2-0.2-0.4-0.3-0.6-0.4c-0.2-0.1-0.5-0.2-0.7-0.3c-0.3-0.1-0.5-0.1-0.8-0.2
			c-0.3,0-0.6-0.1-1-0.1H98l0,0l0,11.9h0H100.1z M102.9,12.6c0.2,0,0.4,0,0.6,0c0.2,0,0.3,0,0.5,0.1c0.2,0,0.3,0.1,0.4,0.1
			c0.1,0.1,0.2,0.1,0.3,0.2c0.1,0.1,0.2,0.2,0.3,0.3s0.1,0.2,0.2,0.3c0,0.1,0.1,0.2,0.1,0.4c0,0.1,0,0.3,0,0.5c0,0.2,0,0.3,0,0.5
			c0,0,0,0,0,0.1c0,0.1,0,0.1,0,0.2c0,0,0,0.1,0,0.1c0,0,0,0,0,0c0,0.1-0.1,0.1-0.1,0.2c0,0,0,0.1-0.1,0.1c0,0,0,0,0,0
			c-0.1,0.1-0.2,0.2-0.2,0.3c-0.1,0.1-0.2,0.1-0.3,0.2s-0.3,0.1-0.4,0.1c-0.2,0-0.3,0.1-0.5,0.1c0,0,0,0,0,0c-0.2,0-0.4,0-0.6,0
			h-2.9l0,0l0-2.8v-0.9H102.9z"/>
		<path fill="#62C6C2" d="M161.5,96.1C161.5,96.1,161.6,96.1,161.5,96.1c0.1-0.1,0.1-0.1,0.1-0.2c0,0,0-0.1,0-0.1c0,0.1,0,0.1,0,0.1
			c0,0,0,0.1,0.1,0.1c0,0,0,0.1,0.1,0.1c0,0,0.1,0.1,0.1,0.1s0.1,0.1,0.1,0.1c0,0,0.1,0,0.1,0.1s0.1,0,0.1,0c0,0,0.1,0,0.1,0
			c0.1,0,0.1,0,0.2,0c0.1,0,0.1,0,0.2,0c0,0,0.1,0,0.1-0.1s0.1-0.1,0.1-0.1c0,0,0.1-0.1,0.1-0.1c0,0,0-0.1,0.1-0.2s0-0.1,0-0.2
			s0-0.1,0-0.2v-1.2l-2.7,0v0.5l1.1,0v0.4c0,0,0,0,0,0.1s0,0,0,0.1s0,0,0,0.1c0,0,0,0,0,0.1c0,0,0,0,0,0s0,0,0,0c0,0,0,0,0,0
			c0,0,0,0-0.1,0l-0.8,0.5v0.5l0.8-0.4C161.4,96.2,161.5,96.2,161.5,96.1z M162,94.9l0.8,0v0.6c0,0,0,0.1,0,0.1c0,0,0,0.1,0,0.1
			c0,0,0,0.1,0,0.1c0,0,0,0.1,0,0.1s0,0-0.1,0.1c0,0,0,0-0.1,0c0,0-0.1,0-0.1,0s-0.1,0-0.1,0c0,0-0.1,0-0.1,0c0,0-0.1,0-0.1,0
			c0,0-0.1,0-0.1,0s0,0-0.1-0.1c0,0,0,0,0-0.1c0,0,0-0.1,0-0.1c0,0,0-0.1,0-0.1c0,0,0-0.1,0-0.1V94.9z"/>
		<rect x="160.6" y="97.8" fill="#62C6C2" width="2.7" height="0.5"/>
		<path fill="#62C6C2" d="M160.6,100.8c0,0,0,0.1,0,0.1c0,0,0,0.1,0,0.1c0,0,0,0.1,0.1,0.1c0,0,0,0.1,0.1,0.1s0,0.1,0.1,0.1
			s0.1,0,0.1,0.1c0,0,0.1,0,0.1,0.1c0,0,0.1,0,0.1,0c0,0,0.1,0,0.1,0c0,0,0.1,0,0.1,0c0,0,0.1,0,0.1,0s0.1,0,0.1,0s0.1,0,0.1,0
			c0,0,0.1,0,0.1,0c0,0,0,0,0.1-0.1s0,0,0.1-0.1c0,0,0-0.1,0.1-0.1c0,0,0-0.1,0-0.1c0,0,0-0.1,0-0.1c0,0,0-0.1,0-0.1s0-0.1,0-0.1
			s0-0.1,0-0.2c0-0.1,0-0.1,0-0.1c0,0,0-0.1,0-0.1c0,0,0-0.1,0-0.1c0,0,0-0.1,0-0.1c0,0,0,0,0-0.1c0,0,0,0,0.1,0s0,0,0.1,0
			s0,0,0.1,0c0,0,0.1,0,0.1,0c0,0,0.1,0,0.1,0c0,0,0,0,0.1,0c0,0,0,0,0.1,0.1c0,0,0,0.1,0,0.1c0,0,0,0.1,0,0.1c0,0,0,0.1,0,0.1
			c0,0,0,0.1,0,0.1c0,0.1,0,0.1,0,0.2s0,0.1-0.1,0.2c0,0.1-0.1,0.1-0.1,0.2s-0.1,0.1-0.1,0.2l0.4,0.2c0,0,0-0.1,0.1-0.1
			c0,0,0-0.1,0.1-0.1c0,0,0-0.1,0.1-0.1c0,0,0-0.1,0-0.1c0,0,0-0.1,0-0.1c0,0,0-0.1,0-0.1s0-0.1,0-0.1c0,0,0-0.1,0-0.1
			c0-0.1,0-0.1,0-0.1c0,0,0-0.1,0-0.1c0,0,0-0.1,0-0.1c0,0,0-0.1,0-0.1c0,0,0-0.1-0.1-0.1c0,0,0-0.1-0.1-0.1c0,0,0-0.1-0.1-0.1
			c0,0-0.1,0-0.1-0.1s-0.1,0-0.1-0.1s-0.1,0-0.1,0s-0.1,0-0.1,0s-0.1,0-0.1,0c0,0-0.1,0-0.1,0c0,0-0.1,0-0.1,0c0,0-0.1,0-0.1,0
			c0,0-0.1,0-0.1,0s0,0-0.1,0.1c0,0,0,0-0.1,0.1s0,0.1-0.1,0.1c0,0,0,0.1-0.1,0.1c0,0,0,0.1,0,0.1c0,0,0,0.1,0,0.1c0,0,0,0.1,0,0.1
			c0,0.1,0,0.1,0,0.2c0,0.1,0,0.1,0,0.1c0,0,0,0.1,0,0.1c0,0,0,0.1,0,0.1c0,0,0,0.1,0,0.1c0,0,0,0,0,0.1c0,0,0,0-0.1,0s0,0-0.1,0
			c0,0,0,0-0.1,0c0,0-0.1,0-0.1,0s0,0-0.1,0c0,0,0,0-0.1,0c0,0,0,0-0.1-0.1s0-0.1,0-0.1c0,0,0-0.1,0-0.1c0,0,0-0.1,0-0.1
			c0,0,0-0.1,0-0.1c0,0,0-0.1,0-0.1c0,0,0-0.1,0-0.1c0,0,0-0.1,0-0.1c0,0,0-0.1,0-0.1c0,0,0-0.1,0-0.1c0,0,0-0.1,0-0.1
			c0,0,0-0.1,0.1-0.1s0-0.1,0.1-0.1l-0.4-0.2c0,0,0,0.1-0.1,0.1c0,0,0,0.1-0.1,0.1s0,0.1-0.1,0.1c0,0,0,0.1,0,0.1c0,0,0,0.1,0,0.1
			c0,0,0,0.1,0,0.1c0,0,0,0.1,0,0.1s0,0.1,0,0.2c0,0.1,0,0.1,0,0.2C160.5,100.7,160.6,100.8,160.6,100.8z"/>
		<polygon fill="#62C6C2" points="163.2,104.7 163.2,102.5 162.8,102.5 162.8,103.4 160.6,103.4 160.6,103.8 162.8,103.8 
			162.8,104.7 		"/>
		<path fill="#62C6C2" d="M160.6,107.2c0,0.1,0,0.1,0.1,0.2c0,0.1,0,0.1,0.1,0.1c0,0,0.1,0.1,0.1,0.1c0,0,0.1,0.1,0.1,0.1
			c0,0,0.1,0.1,0.1,0.1c0,0,0.1,0.1,0.1,0.1c0.1,0,0.1,0,0.2,0.1s0.1,0,0.2,0c0.1,0,0.1,0,0.2,0c0.1,0,0.1,0,0.2,0s0.1,0,0.2,0
			c0.1,0,0.1,0,0.2,0c0.1,0,0.1,0,0.2,0c0.1,0,0.1,0,0.2-0.1c0.1,0,0.1-0.1,0.1-0.1c0,0,0.1-0.1,0.1-0.1s0.1-0.1,0.1-0.1
			s0.1-0.1,0.1-0.1c0,0,0.1-0.1,0.1-0.1s0-0.1,0.1-0.2c0-0.1,0-0.1,0-0.2c0-0.1,0-0.1,0-0.2s0-0.1,0-0.2c0-0.1,0-0.1,0-0.2
			c0-0.1,0-0.1-0.1-0.2s0-0.1-0.1-0.2c0,0-0.1-0.1-0.1-0.1c0,0-0.1-0.1-0.1-0.1s-0.1-0.1-0.1-0.1c0,0-0.1-0.1-0.1-0.1
			c-0.1,0-0.1,0-0.2-0.1c-0.1,0-0.1,0-0.2,0c-0.1,0-0.1,0-0.2,0c-0.1,0-0.1,0-0.2,0s-0.1,0-0.2,0c-0.1,0-0.1,0-0.2,0
			c-0.1,0-0.1,0-0.2,0c-0.1,0-0.1,0-0.2,0.1c-0.1,0-0.1,0.1-0.1,0.1c0,0-0.1,0.1-0.1,0.1c0,0-0.1,0.1-0.1,0.1c0,0-0.1,0.1-0.1,0.1
			c0,0-0.1,0.1-0.1,0.1c0,0.1,0,0.1-0.1,0.2c0,0.1,0,0.1,0,0.2s0,0.1,0,0.2c0,0.1,0,0.1,0,0.2S160.6,107.1,160.6,107.2z
			 M160.9,106.7c0-0.1,0-0.1,0-0.2s0-0.1,0.1-0.1c0,0,0.1-0.1,0.1-0.1c0,0,0.1-0.1,0.1-0.1s0.1,0,0.2-0.1c0.1,0,0.1,0,0.2,0
			c0.1,0,0.1,0,0.2,0c0.1,0,0.2,0,0.2,0c0.1,0,0.1,0,0.2,0c0.1,0,0.1,0,0.2,0.1c0.1,0,0.1,0.1,0.1,0.1s0.1,0.1,0.1,0.1
			c0,0,0.1,0.1,0.1,0.1s0,0.1,0,0.2s0,0.1,0,0.2c0,0.1,0,0.1,0,0.2s0,0.1,0,0.2s0,0.1-0.1,0.1c0,0-0.1,0.1-0.1,0.1s-0.1,0.1-0.1,0.1
			c-0.1,0-0.1,0-0.2,0.1s-0.1,0-0.2,0c-0.1,0-0.1,0-0.2,0c-0.1,0-0.2,0-0.2,0c-0.1,0-0.1,0-0.2,0s-0.1,0-0.2-0.1
			c-0.1,0-0.1-0.1-0.1-0.1c0,0-0.1-0.1-0.1-0.1c0,0-0.1-0.1-0.1-0.1s0-0.1,0-0.2s0-0.1,0-0.2C160.9,106.8,160.9,106.7,160.9,106.7z"
			/>
		<polygon fill="#62C6C2" points="160.6,124.7 161,124.7 161,123.4 161.7,123.4 161.7,124.6 162.1,124.6 162.1,123.4 162.8,123.4 
			162.8,124.7 163.2,124.7 163.2,122.9 163.1,122.9 163.1,122.6 153.2,122.6 153.2,123.2 160.6,123.2 		"/>
		<polygon fill="#62C6C2" points="163.2,121.8 163.2,119.6 162.8,119.6 162.8,120.5 160.6,120.5 160.6,121 162.8,121 162.8,121.8 		
			"/>
		<polygon fill="#62C6C2" points="163.2,116.3 160.6,116.3 160.6,116.7 162.4,116.7 160.6,118.2 160.6,118.5 163.2,118.5 
			163.2,118.1 161.4,118.1 163.2,116.6 		"/>
		<path fill="#62C6C2" d="M163.2,113.6l-2.7-1.2v0.5l0.6,0.3v1.3l-0.6,0.3v0.5l2.7-1.2V113.6z M161.6,114.3v-1l1.1,0.5L161.6,114.3z
			"/>
		<path fill="#62C6C2" d="M163.2,109.4l-2.7,0v0.5h1.1v0.4c0,0,0,0,0,0.1s0,0,0,0.1s0,0,0,0.1s0,0,0,0.1c0,0,0,0,0,0c0,0,0,0,0,0
			c0,0,0,0,0,0s0,0-0.1,0l-0.8,0.5v0.5l0.8-0.4c0,0,0.1,0,0.1-0.1s0.1-0.1,0.1-0.1c0,0,0-0.1,0.1-0.1c0,0,0-0.1,0-0.1
			c0,0.1,0,0.1,0,0.1c0,0,0,0.1,0.1,0.1c0,0,0,0.1,0.1,0.1c0,0,0.1,0.1,0.1,0.1c0,0,0.1,0.1,0.1,0.1c0,0,0.1,0,0.1,0.1s0.1,0,0.1,0
			c0,0,0.1,0,0.1,0c0.1,0,0.1,0,0.2,0c0.1,0,0.1,0,0.2,0c0,0,0.1,0,0.1-0.1s0.1-0.1,0.1-0.1c0,0,0.1-0.1,0.1-0.1c0,0,0-0.1,0.1-0.2
			c0-0.1,0-0.1,0-0.2s0-0.1,0-0.2V109.4z M162.8,110.5c0,0,0,0.1,0,0.1c0,0,0,0.1,0,0.1s0,0.1,0,0.1s0,0.1,0,0.1c0,0,0,0-0.1,0.1
			c0,0,0,0-0.1,0s-0.1,0-0.1,0c0,0-0.1,0-0.1,0c0,0-0.1,0-0.1,0c0,0-0.1,0-0.1,0c0,0-0.1,0-0.1,0c0,0,0,0-0.1-0.1c0,0,0,0,0-0.1
			c0,0,0-0.1,0-0.1c0,0,0-0.1,0-0.1c0,0,0-0.1,0-0.1v-0.6h0.8V110.5z"/>
		<polygon fill="#4060AC" points="23.9,89.6 83.3,89.6 83.3,130.2 83.8,130.2 83.8,89.6 83.8,89.6 83.8,88.5 83.8,88.5 83.3,88.5 
			23.9,88.5 22.9,88.5 22.9,89.6 22.9,130.2 23.9,130.2 		"/>
		<polygon fill="#4060AC" points="172.2,130.2 173.3,130.2 173.3,89.6 173.3,88.5 172.2,88.5 150.1,88.5 150.1,89.6 172.2,89.6 		
			"/>
		<polygon fill="#4060AC" points="86.9,89.6 146.6,89.6 146.6,130.2 147.3,130.2 147.3,130.2 147.3,89.6 147.3,88.5 147.3,88.5 
			146.6,88.5 86.9,88.5 86.5,88.5 86.5,89.6 86.5,130.2 86.9,130.2 		"/>
		<rect x="25" y="127.8" fill="#62C6C2" width="56.7" height="0.8"/>
		<rect x="28.8" y="125.2" fill="#62C6C2" width="52.9" height="0.7"/>
		<rect x="32.5" y="122.6" fill="#62C6C2" width="49.2" height="0.6"/>
		<rect x="36.3" y="120" fill="#62C6C2" width="45.4" height="0.6"/>
		<rect x="40" y="117.4" fill="#62C6C2" width="41.7" height="0.5"/>
		<rect x="43.7" y="114.8" fill="#62C6C2" width="37.9" height="0.4"/>
		<rect x="47.5" y="112.3" fill="#62C6C2" width="34.2" height="0.4"/>
		<rect x="153.2" y="127.8" fill="#62C6C2" width="16.7" height="0.8"/>
		<rect x="153.2" y="125.2" fill="#62C6C2" width="13.3" height="0.7"/>
		<rect x="153.2" y="120" fill="#62C6C2" width="6.5" height="0.6"/>
		<rect x="153.2" y="117.4" fill="#62C6C2" width="3.1" height="0.5"/>
		<rect x="88.3" y="127.8" fill="#62C6C2" width="56.7" height="0.8"/>
		<rect x="88.3" y="125.2" fill="#62C6C2" width="56.7" height="0.7"/>
		<rect x="88.3" y="122.6" fill="#62C6C2" width="56.7" height="0.6"/>
		<rect x="88.3" y="120" fill="#62C6C2" width="56.7" height="0.6"/>
		<rect x="88.3" y="117.4" fill="#62C6C2" width="56.7" height="0.5"/>
		<rect x="88.3" y="114.8" fill="#62C6C2" width="56.7" height="0.4"/>
		<rect x="88.3" y="112.3" fill="#62C6C2" width="56.7" height="0.4"/>
		<path fill="#62C6C2" d="M197.1,147.1h-20.6l-3.9-3.9h23.8l0.7,0.5v-0.5l0,0h0v-0.4h-0.6l-5.8-4.3h6.4v-0.4h-6.9l-4.4-3.3h11.3
			v-0.4h-11.8l-2.8-2.1h14.6V132h-21V70.8c-0.8,0.5-1.8,0.9-2.8,1v0V86h-1h-22.1V64.5c0,2.3-1.1,4.4-2.8,5.8V86h-0.7H86.9h-0.4V71.3
			v0c-0.8,0.4-1.7,0.6-2.7,0.6l0,0V86h-0.4H23.9h-1V71.7v0c-0.8-0.2-1.6-0.5-2.3-0.9V132H0.1l0-0.1L0,132h0v0.5l0.2-0.1h15.2
			l-2.8,2.1H0v0.4h12l-4.4,3.3H0v0.4h7.1l-5.8,4.3H0v0.4h0.8L0,143.8v0.5l1.5-1.1h23.8l-3.9,3.9H0v0.4h197.1V147.1z M98.9,134.9
			h21.2l1.2,3.3H99L98.9,134.9z M98.9,134.5l0-2h20.4l0.7,2H98.9z M98.4,132.4l0,2H77.4l0.6-2H98.4z M98.5,134.9l0.1,3.3H76.2l1-3.3
			H98.5z M98.6,138.5l0.1,4.3H74.8l1.4-4.3H98.6z M99,138.5h22.5l1.5,4.3H99L99,138.5z M119.7,132.4h20.4l1.4,2h-21.1L119.7,132.4z
			 M77.6,132.4l-0.6,2H56l1.3-2H77.6z M74.6,143.2h24l0.1,3.9H73.4L74.6,143.2z M99.1,143.2h24l1.4,3.9H99.1L99.1,143.2z
			 M123.5,143.2h24l2.7,3.9h-25.3L123.5,143.2z M123.4,142.8l-1.5-4.3h22.4l2.9,4.3H123.4z M121.7,138.1l-1.2-3.3h21.2l2.2,3.3
			H121.7z M76.8,134.9l-1,3.3H53.6l2.1-3.3H76.8z M75.7,138.5l-1.4,4.3H50.5l2.8-4.3H75.7z M74.2,143.2l-1.2,3.9H47.7l2.5-3.9H74.2z
			 M142.3,134.9h21.2l3.3,3.3h-22.2L142.3,134.9z M142,134.5l-1.4-2H161l2,2H142z M56.8,132.4l-1.3,2H34.6l2-2H56.8z M55.2,134.9
			l-2.1,3.3H30.9l3.3-3.3H55.2z M150.7,147.1l-2.7-3.9h23.9l3.9,3.9H150.7z M147.7,142.8l-2.9-4.3h22.4l4.4,4.3H147.7z M30.5,138.5
			h22.3l-2.8,4.3H26.3L30.5,138.5z M49.7,143.2l-2.5,3.9H22l3.9-3.9H49.7z M195.8,142.8h-23.7l-4.4-4.3h22.3L195.8,142.8z
			 M189.5,138.1h-22.2l-3.3-3.3h21.1L189.5,138.1z M184.6,134.5h-21l-2-2h14.5v0h5.7L184.6,134.5z M150.1,89.6v-1.1h22.1h1v1.1v40.6
			h-1h-22.1V89.6z M86.5,89.6v-1.1h0.4h59.7h0.7l0,0v1.1v40.6l0,0h-0.7H86.9h-0.4V89.6z M22.9,89.6v-1.1h1h59.4h0.4h0v1.1v40.6h0
			h-0.4H23.9h-1V89.6z M16,132.4h4.6v0H36l-2,2H13.3L16,132.4z M12.7,134.9h20.9l-3.3,3.3h-22L12.7,134.9z M2,142.8l5.8-4.3H30
			l-4.3,4.3H2z"/>
		<path fill="#353535" d="M152.2,101.4h-0.4c-0.2,0-0.4,0.2-0.4,0.4V127c0,0.2,0.2,0.4,0.4,0.4h0.4c0.2,0,0.4-0.2,0.4-0.4v-25.2
			C152.5,101.5,152.4,101.4,152.2,101.4z"/>
	</g>
</g>
</svg>
