<?xml version="1.0" encoding="utf-8"?>
<!-- Generator: Adobe Illustrator 18.0.0, SVG Export Plug-In . SVG Version: 6.00 Build 0)  -->
<!DOCTYPE svg PUBLIC "-//W3C//DTD SVG 1.1//EN" "http://www.w3.org/Graphics/SVG/1.1/DTD/svg11.dtd">
<svg version="1.1" id="Layer_1" xmlns="http://www.w3.org/2000/svg" xmlns:xlink="http://www.w3.org/1999/xlink" x="0px" y="0px"
	 viewBox="0 0 37.7 23" enable-background="new 0 0 37.7 23" xml:space="preserve">
<g id="camera">
	<path fill="#FFFFFF" d="M37.6,11.2C32.6,4,25.9,0,18.8,0C11.7,0,5.1,4,0.1,11.2c-0.1,0.2-0.1,0.4,0,0.6C5.1,19.1,11.7,23,18.8,23
		c7.1,0,13.7-4,18.7-11.2C37.7,11.6,37.7,11.4,37.6,11.2z M18.8,22c-6.7,0-12.9-3.7-17.7-10.5C5.9,4.7,12.2,1,18.8,1
		c6.7,0,12.9,3.7,17.7,10.5C31.8,18.3,25.5,22,18.8,22z M18.8,3.3c-4.5,0-8.2,3.7-8.2,8.2s3.7,8.2,8.2,8.2s8.2-3.7,8.2-8.2
		S23.4,3.3,18.8,3.3z M18.8,18.8c-4,0-7.2-3.2-7.2-7.2s3.2-7.2,7.2-7.2s7.2,3.2,7.2,7.2S22.8,18.8,18.8,18.8z"/>
</g>
</svg>
