<?xml version="1.0" encoding="utf-8"?>
<!-- Generator: Adobe Illustrator 18.0.0, SVG Export Plug-In . SVG Version: 6.00 Build 0)  -->
<!DOCTYPE svg PUBLIC "-//W3C//DTD SVG 1.1//EN" "http://www.w3.org/Graphics/SVG/1.1/DTD/svg11.dtd">
<svg version="1.1" id="Layer_1" xmlns="http://www.w3.org/2000/svg" xmlns:xlink="http://www.w3.org/1999/xlink" x="0px" y="0px"
	 viewBox="0 0 95.2 95.2" enable-background="new 0 0 95.2 95.2" xml:space="preserve">
<g id="camera">
	<g>
		<path fill="#353535" d="M47.6,0C21.4,0,0,21.4,0,47.6s21.4,47.6,47.6,47.6c26.2,0,47.6-21.4,47.6-47.6S73.8,0,47.6,0z M93.5,47.6
			c0,25.3-20.6,45.9-45.9,45.9c-25.3,0-45.9-20.6-45.9-45.9S22.3,1.7,47.6,1.7C72.9,1.7,93.5,22.3,93.5,47.6z"/>
		<path fill="#353535" d="M63.2,23.6c-0.4,0-0.9-0.1-1.3-0.1c-6.4,0-12.2,4.1-14.3,10.1c-2.1-6-7.9-10.1-14.3-10.1
			c-0.4,0-0.9,0-1.4,0.1c-7.7,0.7-13.8,7.5-13.8,15.4c0,16.2,15.4,33.6,29.1,39.1c0.1,0,0.2,0.1,0.3,0.1s0.2,0,0.3-0.1
			C61.7,72.6,77.1,55.2,77.1,39C77.1,31.1,71,24.3,63.2,23.6z M75.3,39c0,15.3-14.6,31.9-27.7,37.4C34.5,71,19.9,54.3,19.9,39
			c0-7.1,5.4-13.1,12.2-13.7c0.4,0,0.8-0.1,1.2-0.1c7.4,0,13.4,6,13.4,13.4c0,0.5,0.4,0.9,0.9,0.9s0.9-0.4,0.9-0.9
			c0-7.4,6-13.4,13.4-13.4c0.4,0,0.8,0,1.2,0.1C70,25.9,75.3,31.9,75.3,39z"/>
	</g>
</g>
</svg>
