<?xml version="1.0" encoding="utf-8"?>
<!-- Generator: Adobe Illustrator 18.0.0, SVG Export Plug-In . SVG Version: 6.00 Build 0)  -->
<!DOCTYPE svg PUBLIC "-//W3C//DTD SVG 1.1//EN" "http://www.w3.org/Graphics/SVG/1.1/DTD/svg11.dtd">
<svg version="1.1" id="Layer_1" xmlns="http://www.w3.org/2000/svg" xmlns:xlink="http://www.w3.org/1999/xlink" x="0px" y="0px"
	 viewBox="0 0 200.7 231.2" enable-background="new 0 0 200.7 231.2" xml:space="preserve">
<g id="camera">
	<g>
		<path fill="none" d="M83.4,122.4C83.4,122.4,83.4,122.4,83.4,122.4c0.1-0.1,0.1-0.1,0.2-0.1C83.5,122.3,83.5,122.4,83.4,122.4z"/>
		<path fill="#62C6C2" d="M83.2,122.6c-6.3,5.1-18.1,11.5-31,17.7C63,135.3,75.5,128.8,83.2,122.6z"/>
		<path fill="#62C6C2" d="M88.9,66.2c0,0,4-0.8,5.4,0.8c-1.4-5.3,0.3-21.1,2.2-30.8c2-9.8-2.2-13.6-2.2-13.6
			c-1.1,0.7-1.6,1.8-1.9,2.6l-0.5,1.2C87.8,41.7,87.3,52.5,88.9,66.2z"/>
		<path fill="#62C6C2" d="M45.5,122.8c20.9,11.1,34.7,2.2,37.9-0.4c0.1,0,0.1-0.1,0.2-0.1c0.2-0.2,0.4-0.3,0.6-0.5
			c1.2-1,2.2-2,3.1-2.9c0,0,2.7-4.1,7-16.7s0-35.2,0-35.2s-4.4-0.1-6.2,0.6c-1.8,0.7-2.9-0.9-2.8-12.5s8.7-39.3,3.4-47.3
			c-1.3-0.7-2.8-0.7-3.9,0c-1.1,0.7-1.6,1.8-1.9,2.6L79,19.1c-1.8,18.6-6.3,21.5-3.8,42.4c0,0,2.2,2.9,4.9,2.2c0,0-3.1,2.3-8,0.1
			c0,0-3.3-10.3-1-22c2.3-11.7,9.3-33.3,2.6-41.5c0,0,0,0,0.1,0c-0.5-0.2-1-0.3-1.6-0.3c-1.1,0-2.1,0.3-2.8,1
			c-0.7,0.6-1.1,1.5-1.4,2.2c-1.7,4-3.4,8.1-5,12.1c0,0-2.7,12.7-4.9,20.2c-2.2,7.5-0.6,22.9,0.9,27.4c7.3-1.2,8.8,1.2,8.8,1.2
			s-2.1-1-6,1.2c-3.8,2.3-7.9,0.7-9.2-9C51.5,46.5,53,27.8,56,20.9s2.4-16.8,2.4-16.8c0.7,0.3,1.2,0.7,1.7,1.2
			c-0.4-0.4-0.9-0.8-1.4-1.1c-1.3-0.7-2.8-0.7-3.9,0C53.8,5,53.3,6.1,53,6.9l-4.2,9.7c-2,4.7-4.1,9.5-5.6,14.5
			C41.4,37.3,40.6,43.7,40,50c4.8,1,6,10.5,9.4,26.4c3.4,15.9,35.5,3.5,28.7,19.9C71.2,112.8,55.4,112,55.4,112
			c5.4-16.7-2.9-22.9-9.1-27.6c-6.2-4.7-4.6-15.5-3.9-22.6C43.1,54.8,40,50,40,50c-1.1-1.2-2.4-2.1-3.9-2.5
			c-1.3-0.3-2.6-0.2-3.6,0.4c-1.9,1.1-2.4,3.4-2.7,4.9c-1,4.9-2.5,9.8-4,14.5c-0.6,2-1.3,4-1.8,6c-1.8,6.3-3.7,13.8-3.3,21.5
			c0.2,5.1,1.4,9.8,3.5,13.8L0,123.6v6.5C11.8,123.7,31.6,115.4,45.5,122.8z"/>
		<path fill="#4060AC" d="M42.4,61.9c-0.7,7.1-2.3,17.8,3.9,22.6c6.2,4.7,14.5,10.8,9.1,27.6c0,0,15.9,0.8,22.7-15.6
			c6.8-16.4-25.3-4-28.7-19.9C46,60.5,44.9,51.1,40,50C40,50,43.1,54.8,42.4,61.9z"/>
		<path fill="#4060AC" d="M56,20.9c-3.1,6.9-4.5,25.6-3.2,35.3c1.3,9.7,5.3,11.3,9.2,9c3.8-2.3,6-1.2,6-1.2s-1.5-2.4-8.8-1.2
			c-1.5-4.5-3.1-19.9-0.9-27.4c2.2-7.5,4.9-20.2,4.9-20.2s0.5-6.6-2.9-9.9c-0.5-0.5-1.1-0.9-1.7-1.2C58.4,4.1,59.1,14,56,20.9z"/>
		<path fill="#4060AC" d="M71.1,41.8c-2.3,11.7,1,22,1,22c4.9,2.2,8-0.1,8-0.1c-2.7,0.7-4.9-2.2-4.9-2.2
			c-2.5-20.9,2.1-23.8,3.8-42.4c1.7-17.5-4.5-18.7-5.2-18.8c0,0-0.1,0-0.1,0C80.5,8.5,73.4,30.1,71.1,41.8z"/>
		<path fill="#4060AC" d="M85.2,55.1c-0.1,11.6,1,13.2,2.8,12.5c1.8-0.7,6.2-0.6,6.2-0.6c-1.4-1.6-5.4-0.8-5.4-0.8
			c-1.6-13.7-1.1-24.5,2.9-39.9l0,0c4-15.4-3.2-18.5-3.2-18.5C93.9,15.8,85.4,43.5,85.2,55.1z"/>
		<path fill="#4060AC" d="M96.5,36.1c-2,9.8-3.7,25.5-2.2,30.8c0,0,4.3,22.7,0,35.2s-7,16.7-7,16.7c9.5-10.4,13.6-23.2,12.4-38
			c-1.1-13.4-1.8-25.5,0.9-37.3l0.4-1.8c0.6-2.4,1.2-4.8,1.4-7.3c0.3-3.7-0.3-7-1.8-9.6c-0.7-1.2-1.5-2-2.4-2.5
			c-1.3-0.7-2.8-0.7-3.9,0C94.2,22.5,98.4,26.4,96.5,36.1z"/>
		<path fill="#4060AC" d="M83.4,122.4c0.5-0.4,0.7-0.6,0.7-0.6c0,0,0,0,0,0c-0.2,0.2-0.4,0.3-0.6,0.5
			C83.5,122.3,83.5,122.3,83.4,122.4z"/>
		<path fill="#4060AC" d="M52.1,140.3c12.9-6.3,24.7-12.7,31-17.7c0.1-0.1,0.2-0.1,0.3-0.2c0,0,0,0,0,0c-3.3,2.5-17.1,11.5-37.9,0.4
			c-13.9-7.4-33.7,0.9-45.5,7.4v33.2C10,159.3,32.4,149.9,52.1,140.3z"/>
		<path fill="#62C6C2" d="M200.7,180.3c-11,1.5-22.5,0.2-32.6-4.2c-11.7-5.2-21.7-14.2-28.1-25.3c-4.4-7.8-7.1-16.9-5.2-25.7
			c0.5-2.5,1.7-5.1,4-6.1c1.8-0.7,3.9-0.3,5.6-1c2.3-0.9,3.7-3.6,6.2-3.9c2-0.2,3.9,1.4,5.9,1.6c2.9,0.3,5.3-2.2,8.1-2.5
			c2.4-0.3,4.8,1.1,7.2,1c2.2-0.1,4.2-1.4,6.1-2.6c4.6-3.1,9.6-6.6,11.5-11.7c0-0.3,0-0.7,0-1c-0.3-4.8-1.6-9.5-2.8-14l-8-29.6
			c-0.5-1.7-1-3.6-2.2-5.2c-1.2-1.6-3.5-2.9-5.8-2.4c-1.2,0.3-2.1,1-2.7,1.9c0.4-0.5,0.8-0.9,0.8-0.9c-0.3,2.4,4.9,19.7,6.6,27.8
			c1.7,8.1-0.8,22.9-0.6,25.1c0.2,2.2,2.1,5.4,2.1,5.4c-2.6-1.6-3.8-3.7-3.8-3.7c1-3.9,1.8-16.3,0.6-26.6
			c-1.2-10.3-6.5-25.7-6.5-25.7c-1.5-3.4-3.3-6.7-5.2-9.8c-1-1.6-2.6-3.7-5-3.6c-1.2,0.1-3,0.8-4.4,3.7c-0.3,0.6-0.5,1.2-0.7,1.8
			c0,5.1,6.8,20.6,9.2,28.4c2.4,7.9,1.7,22.2,1.1,27c-0.6,4.8,0.8,9.4,0.8,9.4c-1.7-2.1-3.6-5.4-3.6-5.4c2.1-6,0.7-23.1-1.1-29.5
			s-7.6-24.4-7.6-24.4l-4.2-11c-0.4-1.1-1.2-3.2-3.2-3.8c-1.4-0.4-3,0.1-4.1,1.3c-0.9,0.9-1.4,2.1-1.7,3.3c-0.8,2.3-1.2,4.7-1.5,7.2
			c0.5,3.5,6.6,18.3,8.1,27.3c1.5,9,1.3,24.2,1.7,28.6c0.4,4.4,3.3,7.3,3.3,7.3c-0.2-0.3-4.4-2-4.4-6.1c0-4.1-1-21.4-2.2-28.6
			s-6.6-24.4-6.6-24.4c-0.2-0.4-0.3-0.9-0.5-1.3c-0.4-1.1-1.3-3.3-3.4-3.9c-2.2-0.6-4.3,1-5.4,2.8c-2,3.1-3,7-2.9,11.7
			c0,2.8,0.4,5.6,0.8,8.2c0.2,1.1,0.3,2.3,0.4,3.4c0.3,2.7,0.4,5.6,0.3,8.4c0,0-0.7,7.1-0.9,16c-0.2,9-1.5,19.4,0.4,27.3
			c1.9,8-0.3,13.2-0.3,13.2s0.1-8.2-1.1-13.2s-3-15.4-2.2-19.4s2.3-10,1.3-16.8c-1-6.8-1.4-9.2-3-10.1c-2,0-4,0.9-4.8,2.8
			c-0.7,1.7-0.3,3.4,0.1,5l0.1,0.6c1.1,4.8,0.2,9.6-0.7,14.8c-0.3,1.9-0.7,3.7-0.9,5.5c-0.9,6.5-0.5,12.9-0.2,19.2
			c0.3,5.3,0.6,10.9,1.8,16.3c1.4,6.1,3.8,11.2,7.2,15.1c0.3,0.3,59.6,59.5,78.7,75.5V180.3z"/>
		<path fill="#62C6C2" d="M180,149.4c-0.1-0.5-0.2-1.1-0.3-1.6C179.8,148.3,179.9,148.9,180,149.4C180,149.3,180,149.4,180,149.4z"
			/>
		<path fill="#62C6C2" d="M135.7,49.9c0-1.5,0.1-3.5,0.2-4C135.7,47.2,135.7,48.5,135.7,49.9z"/>
		<path fill="#62C6C2" d="M189.4,102c-0.3,3.4-0.9,9.5-2.2,14.6C188.5,111.8,189.4,106.9,189.4,102z"/>
		<path fill="#62C6C2" d="M184.4,126.2c0.8-2.5,1.6-5,2.3-7.5c-0.9,2.9-2.3,7.2-3.6,11.7C183.5,129,183.9,127.6,184.4,126.2z"/>
		<path fill="#4060AC" d="M159.3,102.7c0,0,1.8,3.3,3.6,5.4c0,0-1.4-4.7-0.8-9.4c0.6-4.8,1.3-19.1-1.1-27
			c-2.4-7.9-9.2-23.4-9.2-28.4c0,0,0,0,0,0c0,0-1,2.7-1.2,5.5c0,0,5.9,18,7.6,24.4S161.4,96.7,159.3,102.7z"/>
		<path fill="#4060AC" d="M173,103.5c0,0,1.2,2.1,3.8,3.7c0,0-1.9-3.2-2.1-5.4c-0.2-2.2,2.2-17,0.6-25.1c-1.7-8.1-6.9-25.3-6.6-27.8
			c0,0-0.4,0.4-0.8,0.9c-0.3,0.4-0.7,0.9-0.8,1.4c0,0,5.2,15.4,6.5,25.7C174.7,87.2,174,99.6,173,103.5z"/>
		<path fill="#4060AC" d="M144.6,102.9c0,4.1,4.2,5.8,4.4,6.1c0,0-2.9-2.9-3.3-7.3c-0.4-4.4-0.3-19.6-1.7-28.6
			c-1.5-9-7.5-23.8-8.1-27.3c0,0,0,0,0,0c0,0,0,0.1,0,0.1c0,0.5-0.1,2.5-0.2,4c0,0,5.4,17.2,6.6,24.4S144.6,98.8,144.6,102.9z"/>
		<path fill="#4060AC" d="M122.4,86.4c1,6.8-0.5,12.7-1.3,16.8s1,14.4,2.2,19.4s1.1,13.2,1.1,13.2s2.2-5.3,0.3-13.2
			c-1.9-8-0.6-18.4-0.4-27.3c0.2-9,0.9-16,0.9-16c-2.6-3.4-5.7-2.9-5.7-2.9c0,0,0,0,0,0C121,77.2,121.4,79.7,122.4,86.4z"/>
		<path fill="#4060AC" d="M177.9,111.7c-1.9,1.2-3.8,2.5-6.1,2.6c-2.4,0.1-4.8-1.3-7.2-1c-2.9,0.3-5.3,2.8-8.1,2.5
			c-2-0.2-3.9-1.8-5.9-1.6c-2.4,0.3-3.9,2.9-6.2,3.9c-1.8,0.7-3.9,0.3-5.6,1c-2.3,0.9-3.5,3.6-4,6.1c-1.9,8.7,0.8,17.9,5.2,25.7
			c6.3,11.1,16.4,20.2,28.1,25.3c10.1,4.4,21.6,5.8,32.6,4.2v-6.4c-7.2-7.5-19.4-20.7-20.6-24.5c0,0,0,0,0,0c-0.1-0.4-0.2-1-0.3-1.6
			c-0.3-3.9,1.4-10.8,3.3-17.3c1.3-4.5,2.7-8.9,3.6-11.7c0,0,0,0,0-0.1c0.2-0.7,0.4-1.4,0.6-2.1c1.2-5,1.9-11.1,2.2-14.6
			c0.1-1.7,0.2-2.7,0.2-2.7c-0.1,0.2-0.2,0.5-0.2,0.7C187.5,105.1,182.5,108.6,177.9,111.7z"/>
	</g>
</g>
</svg>
