<?xml version="1.0" encoding="utf-8"?>
<!-- Generator: Adobe Illustrator 18.0.0, SVG Export Plug-In . SVG Version: 6.00 Build 0)  -->
<!DOCTYPE svg PUBLIC "-//W3C//DTD SVG 1.1//EN" "http://www.w3.org/Graphics/SVG/1.1/DTD/svg11.dtd">
<svg version="1.1" id="Layer_1" xmlns="http://www.w3.org/2000/svg" xmlns:xlink="http://www.w3.org/1999/xlink" x="0px" y="0px"
	 viewBox="0 0 9.9 9.9" enable-background="new 0 0 9.9 9.9" xml:space="preserve">
<g>
	<circle fill="#353535" cx="5" cy="5" r="5"/>
	<g>
		<path fill="#62C6C2" d="M4.8,5.9c0-0.3,0-0.5,0.1-0.7C5,5.1,5.2,4.9,5.3,4.6c0.1-0.2,0.2-0.3,0.3-0.5c0.1-0.1,0.1-0.3,0.1-0.4
			c0-0.2-0.1-0.3-0.2-0.4C5.4,3.2,5.3,3.2,5.1,3.2c-0.2,0-0.4,0-0.6,0.1C4.3,3.4,4.1,3.5,3.9,3.7L3.7,3.3C3.8,3.1,4.1,3,4.3,2.9
			c0.3-0.1,0.5-0.1,0.8-0.1c0.4,0,0.6,0.1,0.9,0.3c0.2,0.2,0.3,0.4,0.3,0.7c0,0.2,0,0.4-0.1,0.6C6,4.5,5.9,4.6,5.7,4.9
			C5.5,5.1,5.4,5.2,5.3,5.4C5.2,5.6,5.1,5.7,5.1,5.9l0,0.1H4.8V5.9z M4.6,7.2V6.6h0.6v0.6H4.6z"/>
	</g>
</g>
</svg>
