<?xml version="1.0" encoding="utf-8"?>
<!-- Generator: Adobe Illustrator 18.0.0, SVG Export Plug-In . SVG Version: 6.00 Build 0)  -->
<!DOCTYPE svg PUBLIC "-//W3C//DTD SVG 1.1//EN" "http://www.w3.org/Graphics/SVG/1.1/DTD/svg11.dtd">
<svg version="1.1" id="Layer_1" xmlns="http://www.w3.org/2000/svg" xmlns:xlink="http://www.w3.org/1999/xlink" x="0px" y="0px"
	 viewBox="0 0 17.2 17.2" enable-background="new 0 0 17.2 17.2" xml:space="preserve">
<g>
	<path fill="#FFFFFF" d="M8.6,17.2C3.8,17.2,0,13.3,0,8.6C0,3.8,3.8,0,8.6,0c4.7,0,8.6,3.8,8.6,8.6S13.3,17.2,8.6,17.2z M8.6,1
		C4.4,1,1,4.4,1,8.6s3.4,7.6,7.6,7.6c4.2,0,7.6-3.4,7.6-7.6S12.8,1,8.6,1z"/>
</g>
<g>
	<path fill="#FFFFFF" d="M12.2,10c-0.1,0-0.3,0-0.4-0.1L8.6,6.5L5.3,9.8C5.1,10,4.8,10,4.6,9.8s-0.2-0.5,0-0.7l3.7-3.7
		c0.2-0.2,0.5-0.2,0.7,0l3.7,3.7c0.2,0.2,0.2,0.5,0,0.7C12.5,9.9,12.4,10,12.2,10z"/>
</g>
</svg>
