<?xml version="1.0" encoding="utf-8"?>
<!-- Generator: Adobe Illustrator 18.0.0, SVG Export Plug-In . SVG Version: 6.00 Build 0)  -->
<!DOCTYPE svg PUBLIC "-//W3C//DTD SVG 1.1//EN" "http://www.w3.org/Graphics/SVG/1.1/DTD/svg11.dtd">
<svg version="1.1" id="Layer_1" xmlns="http://www.w3.org/2000/svg" xmlns:xlink="http://www.w3.org/1999/xlink" x="0px" y="0px"
	 viewBox="0 0 36.1 36.1" enable-background="new 0 0 36.1 36.1" xml:space="preserve">
<path fill="#FFFFFF" d="M18.1,0C8.1,0,0,8.1,0,18.1c0,10,8.1,18.1,18.1,18.1c10,0,18.1-8.1,18.1-18.1C36.1,8.1,28,0,18.1,0z
	 M24.6,19.3l-8.2,8.2c-0.1,0.1-0.2,0.1-0.4,0.1c-0.1,0-0.3,0-0.4-0.1c-0.2-0.2-0.2-0.5,0-0.7l7.8-7.8l-7.8-7.8
	c-0.2-0.2-0.2-0.5,0-0.7s0.5-0.2,0.7,0l8.2,8.2c0.1,0.1,0.1,0.2,0.1,0.4S24.7,19.2,24.6,19.3z"/>
</svg>
