<?xml version="1.0" encoding="utf-8"?>
<!-- Generator: Adobe Illustrator 18.0.0, SVG Export Plug-In . SVG Version: 6.00 Build 0)  -->
<!DOCTYPE svg PUBLIC "-//W3C//DTD SVG 1.1//EN" "http://www.w3.org/Graphics/SVG/1.1/DTD/svg11.dtd">
<svg version="1.1" id="Layer_1" xmlns="http://www.w3.org/2000/svg" xmlns:xlink="http://www.w3.org/1999/xlink" x="0px" y="0px"
	 viewBox="0 0 95.2 95.2" enable-background="new 0 0 95.2 95.2" xml:space="preserve">
<g id="camera">
	<g>
		<path fill="#353535" d="M47.6,0C21.4,0,0,21.4,0,47.6s21.4,47.6,47.6,47.6c26.2,0,47.6-21.4,47.6-47.6S73.8,0,47.6,0z M93.5,47.6
			c0,25.3-20.6,45.9-45.9,45.9S1.7,72.9,1.7,47.6S22.3,1.7,47.6,1.7S93.5,22.3,93.5,47.6z"/>
		<path fill="#353535" d="M38.5,52.3H28.3l10.8-10.8c0.2-0.2,0.3-0.6,0.2-0.9c-0.1-0.3-0.4-0.5-0.8-0.5H26c-0.5,0-0.9,0.4-0.9,0.9
			s0.4,0.9,0.9,0.9h10.4L25.6,52.5c-0.2,0.2-0.3,0.6-0.2,0.9c0.1,0.3,0.4,0.5,0.8,0.5h12.2c0.5,0,0.9-0.4,0.9-0.9
			C39.3,52.7,39,52.3,38.5,52.3z"/>
		<path fill="#353535" d="M62.6,30.9H47.4l15.8-15.8c0.2-0.2,0.3-0.6,0.2-0.9c-0.1-0.3-0.4-0.5-0.8-0.5H45c-0.5,0-0.9,0.4-0.9,0.9
			c0,0.5,0.4,0.9,0.9,0.9h15.5L44.7,31.2c-0.2,0.2-0.3,0.6-0.2,0.9c0.1,0.3,0.4,0.5,0.8,0.5h17.3c0.5,0,0.9-0.4,0.9-0.9
			S63.1,30.9,62.6,30.9z"/>
		<path fill="#353535" d="M62.6,78.7H47.4l15.8-15.8c0.2-0.2,0.3-0.6,0.2-0.9c-0.1-0.3-0.4-0.5-0.8-0.5H45c-0.5,0-0.9,0.4-0.9,0.9
			c0,0.5,0.4,0.9,0.9,0.9h15.5L44.7,78.9c-0.2,0.2-0.3,0.6-0.2,0.9c0.1,0.3,0.4,0.5,0.8,0.5h17.3c0.5,0,0.9-0.4,0.9-0.9
			S63.1,78.7,62.6,78.7z"/>
	</g>
</g>
</svg>
