<?xml version="1.0" encoding="utf-8"?>
<!-- Generator: Adobe Illustrator 18.0.0, SVG Export Plug-In . SVG Version: 6.00 Build 0)  -->
<!DOCTYPE svg PUBLIC "-//W3C//DTD SVG 1.1//EN" "http://www.w3.org/Graphics/SVG/1.1/DTD/svg11.dtd">
<svg version="1.1" id="Layer_1" xmlns="http://www.w3.org/2000/svg" xmlns:xlink="http://www.w3.org/1999/xlink" x="0px" y="0px"
	 viewBox="0 0 76.3 20.5" enable-background="new 0 0 76.3 20.5" xml:space="preserve">
<path fill="#FFFFFF" d="M53.5,0.3c-1.5-0.4-3-0.2-4.2-0.2c-1.3,0-2.4,0-3.5,0c-0.7,0-1.1,0.4-1.2,1.1c-0.7,4.7-1.4,9.4-2.2,14.1
	c-0.2,1.2,0.2,1.5,1.3,1.4c3.2-0.1,2.5,0.5,3.1-2.7c0.5-2.9-0.1-2.8,3.1-2.8c4.1,0,6.6-2.5,6.8-6.6C56.8,2.3,55.7,0.9,53.5,0.3z
	 M52.1,5.4c-0.1,0.9-0.4,1.7-1.3,2c-0.6,0.2-1.2,0.3-1.8,0.3c-0.9,0-1.6,0-1.2-0.8c0.2-0.8,0.2-1.3,0.3-1.8c0.1-0.6-0.1-1.5,0.6-1.7
	c0.9-0.2,1.9-0.2,2.7,0.3C52.1,4.2,52.2,4.8,52.1,5.4z M11,0.3C9.6,0,8.1,0.1,6.7,0c-1,0-2,0-3,0C2.8,0,2.4,0.4,2.3,1.2
	C2,3.1,1.7,4.9,1.4,6.7C1,9.7,0.5,12.6,0,15.6c-0.1,0.5-0.1,0.9,0.6,1C3.7,17,4,16.7,4.5,13.7c0.4-2.7-0.1-2.6,3-2.6
	c4.3,0,6.8-2.5,6.8-6.8C14.3,2.1,13.2,0.7,11,0.3z M7.8,7.7C5.7,8.1,5.4,7.9,5.7,5.9c0.1-0.4,0.2-0.8,0.2-1.2c0-1.1,0.5-1.4,1.4-1.2
	c1.8,0,2.4,0.4,2.5,1.4C10,6.3,9.2,7.4,7.8,7.7z M67.1,5.6c-0.7,0-1.3-0.1-1.4,0.9c-0.6-0.7-1.2-1-1.8-1.1C60,4.6,56.3,7.1,55.8,11
	c-0.4,2.8,0.8,5.1,3.1,5.7c1.6,0.4,3.1,0.3,4.6-0.6c0.2-0.1,0.7-0.4,0.7-0.3c0.4,1.6,1.7,0.6,2.5,0.8c1.1,0.3,1.6-0.4,1.7-1.5
	c0.3-2.3,0.7-4.6,1-6.9C69.8,5.6,69.8,5.6,67.1,5.6z M62.1,13.7c-1.5,0-2.4-0.8-2.4-2.1c0-1.7,1.5-3.2,3.1-3.3
	c1.4,0,2.5,0.9,2.5,2.3C65.3,12.3,63.8,13.7,62.1,13.7z M26,5.6c-0.5,0-1.1,0-1.6,0c-0.7-0.1-1,0.2-1,1c-0.6-0.7-1.3-1.1-2.1-1.2
	c-3.7-0.7-7.2,1.7-7.8,5.5c-0.6,3.8,1.7,6.3,5.4,5.9c1.1-0.1,2-0.7,3-1.3c-0.1,0.9,0.2,1.1,1,1.1c0.6,0,1.1,0,1.7,0
	c0.8,0,1.2-0.3,1.3-1.1c0.4-2.8,0.9-5.7,1.4-8.5C27.5,5.7,27.5,5.6,26,5.6z M19.7,13.8c-1.5,0-2.3-0.9-2.3-2.3
	c0-1.7,1.4-3.2,3.1-3.2c1.5,0,2.5,1,2.4,2.4C22.9,12.4,21.4,13.8,19.7,13.8z M42.4,5.9c-0.3-0.6-0.9-0.2-1.3-0.3
	c-0.4-0.1-0.8,0-1.2,0c-0.9-0.1-1.5,0.3-2,1c-1,1.6-2.2,3.2-3.4,5c-0.4-1.3-0.7-2.3-1-3.4c-0.9-2.8-0.9-2.8-3.8-2.7
	c-0.9,0-1,0.3-0.8,1.1c0.6,1.7,1,3.6,1.8,5.2c1.2,2.5,1,4.6-1,6.6c-0.4,0.4-1.1,1-0.8,1.6c0.4,0.6,1.2,0.2,1.8,0.3
	c1.3,0.2,2.2-0.3,3-1.5c2.6-4,5.4-7.9,8.1-11.8C42.1,6.8,42.6,6.4,42.4,5.9z M74.1,0c-1.3-0.1-1.6,0.5-1.8,1.6
	c-0.6,4.4-1.3,8.8-2,13.2c-0.3,1.8-0.3,1.8,1.5,1.8c1.9,0,2,0,2.3-1.9c0.7-4.1,1.3-8.2,2-12.3C76.5-0.5,76.4,0.2,74.1,0z"/>
</svg>
