<?xml version="1.0" encoding="utf-8"?>
<!-- Generator: Adobe Illustrator 18.0.0, SVG Export Plug-In . SVG Version: 6.00 Build 0)  -->
<!DOCTYPE svg PUBLIC "-//W3C//DTD SVG 1.1//EN" "http://www.w3.org/Graphics/SVG/1.1/DTD/svg11.dtd">
<svg version="1.1" id="Layer_1" xmlns="http://www.w3.org/2000/svg" xmlns:xlink="http://www.w3.org/1999/xlink" x="0px" y="0px"
	 viewBox="0 0 227.9 202" enable-background="new 0 0 227.9 202" xml:space="preserve">
<g>
	<polygon fill="none" points="209.2,82.7 209.1,82.7 209.2,82.7 209.2,82.7 	"/>
	<path fill="none" d="M209.2,82.7C209.2,82.7,209.2,82.7,209.2,82.7C209.2,82.7,209.2,82.7,209.2,82.7
		C209.2,82.7,209.2,82.7,209.2,82.7z"/>
	<path fill="none" d="M211.5,87.3c0-0.3,0-0.6,0-0.8c0-0.4-0.1-0.8-0.2-1.2c0-0.2-0.1-0.4-0.2-0.5l0-0.1l0,0c0,0,0-0.1,0,0.1l0-0.1
		l0-0.1l-0.2-0.3c-0.1-0.3-0.3-0.7-0.5-0.9c-0.2-0.3-0.4-0.5-0.5-0.6c-0.1-0.1-0.2-0.1-0.2-0.2c0,0,0,0,0,0c0,0,0,0-0.1,0l0,0l0,0
		l0,0c0,0,0.2-0.1,0.3-0.1c0,0,0,0,0,0l-0.1,0.1l-0.4,0.2c0,0-0.1,0-0.1,0.1c0,0,0,0,0,0c0,0,0,0,0,0c-0.1,0.1-0.1,0.1-0.2,0.3
		c-0.1,0.3-0.1,1.1,0.2,1.7c0.3,0.7,0.7,1.4,1.2,1.8C210.7,86.8,211.1,87.1,211.5,87.3z"/>
	<path fill="#FFDA64" d="M97.1,17.1c0-0.1,0-0.2,0-0.3c0-0.1,0-0.2,0-0.3c0-7.9,6.4-14.3,14.3-14.3c0.1,0,0.2,0,0.3,0
		c0.1,0,0.2,0,0.3,0c8.3,0,14.9,6.7,14.9,14.9c0,1.6-0.3,3.2-0.8,4.7h2.3c0.4-1.5,0.7-3,0.7-4.7C129.1,7.7,121.4,0,112,0
		c-9.4,0-17.1,7.7-17.1,17.1c0,1.6,0.2,3.2,0.7,4.7h2.3C97.3,20.3,97.1,18.7,97.1,17.1z"/>
	<path fill="#F9EFD2" d="M112,2.2c-0.1,0-0.2,0-0.3,0c4.8,0.1,9.1,2.6,11.6,6.3c2,2.4,3.3,5.6,3.3,9c0,1.5-0.2,2.9-0.6,4.2h0.3
		c0.5-1.5,0.8-3,0.8-4.7C126.9,8.9,120.3,2.2,112,2.2z"/>
	<path fill="#F9EFD2" d="M97.1,17.1c0,1.6,0.3,3.2,0.8,4.7h0.3c-0.6-1.5-1-3.2-1-5C97.1,16.9,97.1,17,97.1,17.1z"/>
	<path fill="#FFCB07" d="M112.4,3.5c4.3,0,8.2,2,10.8,5.1c-2.5-3.8-6.7-6.2-11.6-6.3c-0.1,0-0.2,0-0.3,0c-7.9,0-14.3,6.4-14.3,14.3
		c0,0.1,0,0.2,0,0.3c0,1.8,0.4,3.4,1,5H99c-0.4-1.3-0.6-2.8-0.6-4.2C98.4,9.8,104.7,3.5,112.4,3.5z"/>
	<path fill="#FFDA64" d="M123.2,8.5c-2.6-3.1-6.5-5.1-10.8-5.1c-7.8,0-14.1,6.3-14.1,14.1c0,1.5,0.2,2.9,0.6,4.2h8
		c-1.7-2-2.8-4.4-2.8-6.6c0-2,1.5-3.8,3.5-4c1.6-0.1,3,0.7,3.7,1.9c0.2,0.3,0.4,0.6,0.6,1c-0.1,0.4-0.2,0.7-0.2,1.1
		c0-1.8-1.3-3.2-3-3.5c-0.3,0-0.6-0.1-0.8,0c-1.8,0.2-3.2,1.8-3.2,3.6c0,0.3,0,0.5,0.1,0.8c0.2,2,1.4,4.1,2.9,5.7h8.1
		c1.7-1.9,3-4.3,3-6.5c0-1.8-1.3-3.3-3-3.6c-0.1,0-0.1,0-0.2,0c-1.2-0.1-2.3,0.4-3,1.2c0.8-1.1,2.1-1.9,3.6-1.7c2,0.2,3.5,1.9,3.5,4
		c0,0.1,0,0.2,0,0.2c0,0,0,0.1,0,0.1l0,0c0,2.1-1.1,4.4-2.6,6.3h8.7c0.4-1.3,0.6-2.8,0.6-4.2C126.5,14.1,125.3,11,123.2,8.5z"/>
	<path fill="#FFCB07" d="M104.7,15.2c0-1.8,1.4-3.4,3.2-3.6c0.3,0,0.6,0,0.8,0c1.1,0.1,2,0.6,2.6,1.4c-0.7-1.2-2.1-2.1-3.7-1.9
		c-2,0.2-3.5,1.9-3.5,4c0,2.2,1.2,4.7,2.8,6.6h0.3C106,20,105,18,104.8,16C104.8,15.8,104.7,15.5,104.7,15.2z"/>
	<path fill="#FFCB07" d="M119.8,15.4c0-0.1,0-0.2,0-0.2c0-2-1.5-3.8-3.5-4c-1.5-0.1-2.8,0.6-3.6,1.7c0.7-0.8,1.8-1.4,3-1.2
		c0.1,0,0.1,0,0.2,0c0.2,0,0.4,0,0.5,0C118.3,11.8,119.7,13.5,119.8,15.4z"/>
	<path fill="#F9EFD2" d="M119.8,15.5c0,0,0-0.1,0-0.1c-0.1-1.9-1.5-3.5-3.4-3.7c-0.2,0-0.4,0-0.5,0c1.7,0.2,3,1.8,3,3.6
		c0,2.2-1.3,4.6-3,6.5h1.3C118.7,19.9,119.8,17.6,119.8,15.5L119.8,15.5z"/>
	<path fill="#F9EFD2" d="M107.4,21.8h0.4c-1.5-1.7-2.7-3.7-2.9-5.7C105,18,106,20,107.4,21.8z"/>
	<path fill="#F9EFD2" d="M108.8,11.7c1.7,0.3,3,1.7,3,3.5c0-0.4,0.1-0.8,0.2-1.1c-0.1-0.4-0.3-0.7-0.6-1
		C110.8,12.3,109.9,11.8,108.8,11.7z"/>
	<path fill="#F6A2AB" d="M97.2,200.8c-0.9-0.2-1.8-0.3-2.7-0.5C95.4,200.5,96.3,200.6,97.2,200.8z"/>
	<path fill="#F6A2AB" d="M100.9,201.3c-1-0.1-2.1-0.3-3.1-0.4C98.8,201,99.8,201.2,100.9,201.3z"/>
	<path fill="#F6A2AB" d="M35.7,160.5c-0.6-0.9-1.1-1.7-1.6-2.6C34.6,158.8,35.1,159.7,35.7,160.5z"/>
	<path fill="#F6A2AB" d="M32.2,154.7c-0.5-0.9-1-1.8-1.4-2.7C31.2,152.9,31.7,153.8,32.2,154.7z"/>
	<path fill="#F6A2AB" d="M93.9,200.2c-1-0.2-2-0.4-3-0.7C91.9,199.7,92.9,200,93.9,200.2z"/>
	<path fill="#F6A2AB" d="M108,201.9c-1.1,0-2.1-0.1-3.2-0.2C105.9,201.8,106.9,201.8,108,201.9z"/>
	<path fill="#F6A2AB" d="M115.3,201.9c-1.1,0-2.2,0.1-3.3,0.1C113.1,202,114.2,201.9,115.3,201.9z"/>
	<path fill="#F6A2AB" d="M119.2,201.7c-1.1,0.1-2.1,0.1-3.2,0.2C117.1,201.8,118.1,201.8,119.2,201.7z"/>
	<path fill="#F6A2AB" d="M87.2,198.5c-1-0.3-2-0.6-3-0.9C85.2,198,86.2,198.3,87.2,198.5z"/>
	<path fill="#F6A2AB" d="M112,202c-1.1,0-2.2,0-3.3-0.1C109.8,201.9,110.9,202,112,202z"/>
	<path fill="#F6A2AB" d="M104.4,201.7c-1-0.1-1.9-0.2-2.9-0.3C102.5,201.5,103.4,201.6,104.4,201.7z"/>
	<path fill="#F6A2AB" d="M37.7,163.5c-0.6-0.8-1.1-1.6-1.7-2.5C36.6,161.9,37.1,162.7,37.7,163.5z"/>
	<path fill="#F6A2AB" d="M33.8,157.6c-0.5-0.8-0.9-1.6-1.4-2.4C32.9,156,33.4,156.8,33.8,157.6z"/>
	<path fill="#F6A2AB" d="M41.9,169c-0.6-0.8-1.3-1.6-1.9-2.4C40.6,167.4,41.2,168.2,41.9,169z"/>
	<path fill="#F6A2AB" d="M122.5,201.4c-0.9,0.1-1.9,0.2-2.9,0.3C120.6,201.6,121.5,201.5,122.5,201.4z"/>
	<path fill="#F6A2AB" d="M43.9,171.3c-0.6-0.7-1.3-1.5-1.9-2.2C42.6,169.9,43.2,170.6,43.9,171.3z"/>
	<path fill="#F6A2AB" d="M39.6,166.1c-0.6-0.8-1.2-1.6-1.8-2.5C38.3,164.4,38.9,165.2,39.6,166.1z"/>
	<path fill="#F6A2AB" d="M67.7,190.5c-0.8-0.4-1.6-0.9-2.4-1.4C66.1,189.6,66.9,190,67.7,190.5z"/>
	<path fill="#F6A2AB" d="M77.1,195c-0.9-0.4-1.9-0.8-2.8-1.2C75.2,194.2,76.2,194.6,77.1,195z"/>
	<path fill="#F6A2AB" d="M80.4,196.3c-0.9-0.3-1.8-0.7-2.7-1.1C78.6,195.7,79.5,196,80.4,196.3z"/>
	<path fill="#F6A2AB" d="M70.9,192.2c-0.9-0.5-1.8-0.9-2.7-1.4C69.1,191.3,70,191.7,70.9,192.2z"/>
	<path fill="#F6A2AB" d="M83.5,197.4c-1-0.3-2-0.7-2.9-1C81.6,196.8,82.6,197.1,83.5,197.4z"/>
	<path fill="#F6A2AB" d="M73.9,193.6c-0.8-0.4-1.6-0.8-2.5-1.2C72.2,192.8,73.1,193.2,73.9,193.6z"/>
	<path fill="#F6A2AB" d="M90.2,199.3c-0.9-0.2-1.9-0.5-2.8-0.7C88.4,198.9,89.3,199.1,90.2,199.3z"/>
	<path fill="#F6A2AB" d="M188,161c-0.6,0.8-1.1,1.7-1.7,2.5C186.9,162.7,187.4,161.9,188,161z"/>
	<path fill="#F6A2AB" d="M186.3,163.6c-0.6,0.8-1.2,1.7-1.8,2.5C185.1,165.2,185.7,164.4,186.3,163.6z"/>
	<path fill="#F6A2AB" d="M182,169.1c-0.6,0.7-1.2,1.5-1.9,2.2C180.8,170.6,181.4,169.9,182,169.1z"/>
	<path fill="#F6A2AB" d="M190,157.9c-0.5,0.9-1.1,1.7-1.6,2.6C188.9,159.7,189.4,158.8,190,157.9z"/>
	<path fill="#F6A2AB" d="M184,166.6c-0.6,0.8-1.3,1.6-1.9,2.4C182.8,168.2,183.4,167.4,184,166.6z"/>
	<path fill="#F6A2AB" d="M191.6,155.2c-0.5,0.8-0.9,1.6-1.4,2.4C190.6,156.8,191.1,156,191.6,155.2z"/>
	<path fill="#F6A2AB" d="M196.1,145.8c-0.4,1-0.8,1.9-1.2,2.8C195.3,147.7,195.7,146.8,196.1,145.8z"/>
	<path fill="#F6A2AB" d="M29.1,148.6c-0.4-0.9-0.8-1.9-1.2-2.8C28.3,146.8,28.7,147.7,29.1,148.6z"/>
	<path fill="#F6A2AB" d="M194.7,149c-0.4,0.9-0.8,1.7-1.2,2.6C193.9,150.7,194.3,149.8,194.7,149z"/>
	<path fill="#F6A2AB" d="M158.7,189.1c-0.8,0.5-1.6,0.9-2.4,1.4C157.1,190,157.9,189.6,158.7,189.1z"/>
	<path fill="#F6A2AB" d="M193.2,152c-0.5,0.9-0.9,1.8-1.4,2.7C192.3,153.8,192.8,152.9,193.2,152z"/>
	<path fill="#F6A2AB" d="M30.5,151.5c-0.4-0.8-0.8-1.7-1.2-2.6C29.7,149.8,30.1,150.7,30.5,151.5z"/>
	<path fill="#F6A2AB" d="M136.6,198.6c-0.9,0.3-1.9,0.5-2.8,0.7C134.7,199.1,135.6,198.9,136.6,198.6z"/>
	<path fill="#F6A2AB" d="M139.8,197.6c-1,0.3-2,0.6-3,0.9C137.8,198.3,138.8,198,139.8,197.6z"/>
	<path fill="#F6A2AB" d="M155.8,190.8c-0.9,0.5-1.8,1-2.7,1.4C154,191.7,154.9,191.3,155.8,190.8z"/>
	<path fill="#F6A2AB" d="M129.6,200.3c-0.9,0.2-1.8,0.3-2.7,0.5C127.7,200.6,128.6,200.5,129.6,200.3z"/>
	<path fill="#F6A2AB" d="M143.4,196.4c-1,0.4-1.9,0.7-2.9,1C141.4,197.1,142.4,196.8,143.4,196.4z"/>
	<path fill="#F6A2AB" d="M133.1,199.5c-1,0.2-2,0.5-3,0.7C131.1,200,132.1,199.7,133.1,199.5z"/>
	<path fill="#F6A2AB" d="M152.6,192.4c-0.8,0.4-1.6,0.8-2.5,1.2C150.9,193.2,151.8,192.8,152.6,192.4z"/>
	<path fill="#F6A2AB" d="M146.3,195.3c-0.9,0.4-1.8,0.7-2.7,1.1C144.5,196,145.4,195.7,146.3,195.3z"/>
	<path fill="#F6A2AB" d="M126.2,200.9c-1,0.2-2.1,0.3-3.1,0.4C124.2,201.2,125.2,201,126.2,200.9z"/>
	<path fill="#F6A2AB" d="M149.7,193.8c-0.9,0.4-1.8,0.8-2.8,1.2C147.8,194.6,148.8,194.2,149.7,193.8z"/>
	<path fill="#F15E69" d="M112,162.9c-32.4,0-62.2-7.7-85.5-20.6c0.4,1,0.7,1.9,1.1,2.9c0.1,0.2,0.2,0.4,0.2,0.6
		c0.4,1,0.8,1.9,1.2,2.8c0,0.1,0.1,0.2,0.2,0.3c0.4,0.9,0.8,1.7,1.2,2.6c0.1,0.2,0.2,0.3,0.2,0.5c0.5,0.9,0.9,1.8,1.4,2.7
		c0.1,0.2,0.2,0.3,0.3,0.5c0.5,0.8,0.9,1.6,1.4,2.4c0.1,0.1,0.1,0.2,0.2,0.3c0.5,0.9,1.1,1.7,1.6,2.6c0.1,0.2,0.2,0.3,0.3,0.5
		c0.6,0.8,1.1,1.7,1.7,2.5c0,0,0,0,0,0.1c0.6,0.8,1.2,1.7,1.8,2.5c0.1,0.2,0.3,0.3,0.4,0.5c0.6,0.8,1.3,1.6,1.9,2.4
		c0,0.1,0.1,0.1,0.1,0.2c0.6,0.7,1.2,1.5,1.9,2.2c0.1,0.2,0.3,0.3,0.4,0.5c0,0,0,0,0,0l8-8c4.7-4.7,12.2-4.7,16.9,0
		c4.7,4.7,4.7,12.2,0,16.9l-6.7,6.7c0.8,0.5,1.6,1.1,2.5,1.6c0.1,0.1,0.2,0.1,0.3,0.2c0.8,0.5,1.6,0.9,2.4,1.4
		c0.2,0.1,0.4,0.2,0.5,0.3c0.9,0.5,1.8,1,2.7,1.4c0.2,0.1,0.3,0.2,0.5,0.3c0.8,0.4,1.6,0.8,2.5,1.2c0.1,0.1,0.3,0.1,0.4,0.2
		c0.9,0.4,1.8,0.8,2.8,1.2c0.2,0.1,0.4,0.2,0.6,0.3c0.9,0.4,1.8,0.7,2.7,1.1c0.1,0,0.1,0,0.2,0.1c1,0.4,1.9,0.7,2.9,1
		c0.2,0.1,0.4,0.1,0.7,0.2c1,0.3,2,0.6,3,0.9c0.1,0,0.2,0,0.2,0.1c0.9,0.3,1.9,0.5,2.8,0.7c0.2,0.1,0.4,0.1,0.7,0.2
		c1,0.2,2,0.5,3,0.7c0.2,0,0.3,0.1,0.5,0.1c0.9,0.2,1.8,0.3,2.7,0.5c0.2,0,0.4,0.1,0.6,0.1c1,0.2,2.1,0.3,3.1,0.4
		c0.2,0,0.4,0.1,0.7,0.1c0.9,0.1,1.9,0.2,2.9,0.3c0.1,0,0.3,0,0.4,0c1.1,0.1,2.1,0.1,3.2,0.2c0.2,0,0.5,0,0.7,0
		c1.1,0,2.2,0.1,3.3,0.1c1.1,0,2.2,0,3.3-0.1c0.2,0,0.5,0,0.7,0c1.1,0,2.1-0.1,3.2-0.2c0.1,0,0.3,0,0.4,0c1-0.1,1.9-0.2,2.9-0.3
		c0.2,0,0.4,0,0.7-0.1c1-0.1,2.1-0.3,3.1-0.4c0.2,0,0.4-0.1,0.6-0.1c0.9-0.2,1.8-0.3,2.7-0.5c0.2,0,0.3-0.1,0.5-0.1
		c1-0.2,2-0.4,3-0.7c0.2-0.1,0.4-0.1,0.7-0.2c0.9-0.2,1.9-0.5,2.8-0.7c0.1,0,0.2,0,0.2-0.1c1-0.3,2-0.6,3-0.9
		c0.2-0.1,0.4-0.1,0.7-0.2c1-0.3,2-0.7,2.9-1c0.1,0,0.1,0,0.2-0.1c0.9-0.3,1.8-0.7,2.7-1.1c0.2-0.1,0.4-0.2,0.6-0.3
		c0.9-0.4,1.9-0.8,2.8-1.2c0.1-0.1,0.3-0.1,0.4-0.2c0.8-0.4,1.6-0.8,2.5-1.2c0.2-0.1,0.3-0.2,0.5-0.3c0.9-0.5,1.8-0.9,2.7-1.4
		c0.2-0.1,0.4-0.2,0.5-0.3c0.8-0.4,1.6-0.9,2.4-1.4c0.1-0.1,0.2-0.1,0.3-0.2c0.8-0.5,1.5-0.9,2.3-1.4l-6.9-6.8
		c-4.7-4.7-4.7-12.2,0-16.9c4.7-4.7,12.2-4.7,16.9,0l8.2,8.2c0.1-0.1,0.1-0.1,0.2-0.2c0.1-0.2,0.3-0.3,0.4-0.5
		c0.6-0.7,1.3-1.5,1.9-2.2c0-0.1,0.1-0.1,0.1-0.2c0.6-0.8,1.3-1.6,1.9-2.4c0.1-0.2,0.3-0.3,0.4-0.5c0.6-0.8,1.2-1.6,1.8-2.5
		c0,0,0,0,0-0.1c0.6-0.8,1.1-1.6,1.7-2.5c0.1-0.2,0.2-0.3,0.3-0.5c0.6-0.9,1.1-1.7,1.6-2.6c0.1-0.1,0.1-0.2,0.2-0.3
		c0.5-0.8,0.9-1.6,1.4-2.4c0.1-0.2,0.2-0.3,0.3-0.5c0.5-0.9,1-1.8,1.4-2.7c0.1-0.2,0.2-0.3,0.2-0.5c0.4-0.8,0.8-1.7,1.2-2.6
		c0-0.1,0.1-0.2,0.2-0.3c0.4-0.9,0.8-1.9,1.2-2.8c0.1-0.2,0.2-0.4,0.2-0.6c0.4-1,0.8-1.9,1.1-2.9C174.2,155.2,144.4,162.9,112,162.9
		z"/>
	<path fill="#F15E69" d="M39,120.6H0v9.2c0,3.3,2.7,6,6,6h17.8C32.2,135.8,39,129,39,120.6z"/>
	<ellipse fill="#353535" cx="40.3" cy="77.9" rx="3.5" ry="6.9"/>
	<path fill="#F6A2AB" d="M227.5,79.6c-0.2-0.6-0.3-1-0.3-1c-0.3-0.8-1.1-1.3-2-1.1c-0.9,0.2-1.4,1.1-1.2,2l0,0.2
		c0,0,0.1,0.2,0.2,0.7c0.1,0.5,0.2,1.1,0.1,1.9c-0.1,0.8-0.4,1.7-1.1,2.6c-0.7,0.9-1.8,1.7-3.2,2.3c-0.3,0.1-0.6,0.2-0.9,0.3
		c0-0.6,0-1.3-0.1-1.9c-0.1-0.8-0.3-1.6-0.6-2.4c-0.1-0.4-0.3-0.8-0.5-1.2l-0.1-0.3l-0.1-0.2l0-0.1l-0.1-0.1l-0.3-0.5
		c-0.5-0.8-0.9-1.4-1.5-2.1c-0.6-0.7-1.3-1.3-2.2-1.8c-0.9-0.5-2.1-1-3.3-1c-0.6,0-1.2,0-1.8,0.2c-0.3,0.1-0.6,0.2-0.8,0.3l-0.4,0.2
		l-0.1,0l0,0c0,0-0.5,0.2-0.3,0.1l-0.1,0.1l-0.4,0.2c-0.1,0-0.1,0.1-0.2,0.1l-0.4,0.3c-0.3,0.2-0.5,0.4-0.7,0.6
		c-0.2,0.2-0.4,0.4-0.5,0.7c-0.4,0.4-0.6,1-0.9,1.5c-0.2,0.5-0.4,1-0.4,1.5c-0.3,2.1,0.2,3.8,0.9,5.3c0.7,1.5,1.8,2.7,3.1,3.7
		c1,0.7,1.9,1.1,2.9,1.4c-0.3,0.6-0.6,1.1-1,1.6l-0.4,0.5l-0.3,0.3l-0.1,0.2l-0.1,0.1l0,0l0,0c0,0,0.1-0.1,0-0.1
		c-0.3,0.3-0.5,0.6-0.8,0.9c-1.2,1.2-2.5,2.1-3.7,2.8c-0.5,0.2-0.9,0.4-1.3,0.6c-4.9-38.8-34.3-70-72.2-77.6h-1.6h-2.3h-0.3h-8.7
		h-1.3h-8.1h-0.4H107h-8h-0.9h-0.3h-2.3h-1.6c-7.8,1.6-15.3,4.2-22.2,7.6l-3.2-7C66.5,17.9,62,15,57,15l0,0c-7,0-12.6,5.6-12.6,12.6
		V50C34.1,61.5,26.6,75.6,23.2,91.1H6c-3.3,0-6,2.7-6,6v23.5h39c0,8.4-6.8,15.2-15.2,15.2h0.6c0.9,3.2,2,6.4,3.2,9.4
		c-0.4-1-0.8-1.9-1.1-2.9c23.3,12.9,53,20.6,85.5,20.6c32.4,0,62.2-7.7,85.5-20.6c-0.4,1-0.7,1.9-1.1,2.9
		c4.3-10.6,6.7-22.1,6.7-34.3c0-0.7,0-1.3,0-2c1.7-0.6,3.5-1.5,5.3-2.6c1.9-1.2,3.7-2.9,5.4-4.9c0.4-0.5,0.8-1,1.2-1.6l0.5-0.8
		c0.2-0.3,0.4-0.6,0.5-0.9c0.7-1.2,1.3-2.4,1.7-3.7c0.2-0.7,0.5-1.4,0.7-2.1c1.2-0.3,2.4-0.7,3.4-1.3c1.9-1,3.6-2.3,4.6-3.9
		c1.1-1.6,1.5-3.3,1.5-4.6C227.9,81.3,227.6,80.3,227.5,79.6z M40.3,84.8c-1.9,0-3.5-3.1-3.5-6.9s1.6-6.9,3.5-6.9
		c1.9,0,3.5,3.1,3.5,6.9S42.3,84.8,40.3,84.8z M47.8,32.4c0-5.9,2.4-10.7,5.3-10.7c2.1,0,4,2.4,4.9,6.2l3.2,14
		c2,8.6-4.6,16.8-13.4,16.8V32.4z M209,83c0-0.2,0.1-0.2,0.2-0.3c0,0,0,0,0,0c0,0,0,0,0,0c0,0,0,0,0.1,0c0,0,0,0,0,0
		c0,0,0.1,0,0.1-0.1l0.4-0.2l0.1-0.1c0,0,0,0,0,0c-0.1,0-0.3,0.2-0.3,0.1l0,0l0,0l0,0c0,0,0.1,0,0.1,0c0,0,0,0,0,0c0,0,0,0,0.2,0.2
		c0.1,0.1,0.3,0.3,0.5,0.6c0.2,0.3,0.4,0.7,0.5,0.9l0.2,0.3l0,0.1l0,0.1c-0.1-0.2,0,0,0-0.1l0,0l0,0.1c0,0.2,0.1,0.3,0.2,0.5
		c0.1,0.4,0.1,0.8,0.2,1.2c0,0.3,0,0.5,0,0.8c-0.5-0.2-0.9-0.5-1.2-0.8c-0.5-0.4-0.9-1.1-1.2-1.8C208.9,84.1,208.8,83.3,209,83z"/>
	<path fill="#F6A2AB" d="M209.2,82.7C209.2,82.7,209.2,82.7,209.2,82.7C209.2,82.7,209.2,82.7,209.2,82.7
		C209.2,82.7,209.2,82.7,209.2,82.7C209.2,82.7,209.2,82.7,209.2,82.7C209.2,82.7,209.2,82.7,209.2,82.7z"/>
	<path fill="#F6A2AB" d="M69.3,180.6c4.7-4.7,4.7-12.2,0-16.9c-4.7-4.7-12.2-4.7-16.9,0l-8,8c0,0,0,0,0,0c0,0,0,0,0,0l-9.7,9.7l0,0
		c2.2-2.1,5.1-3.5,8.4-3.5c6.6,0,12,5.4,12,12c0,2.8-1,5.4-2.6,7.4l10.2-10.1c0.8,0.5,1.6,1,2.5,1.6c-0.8-0.5-1.7-1-2.5-1.6
		L69.3,180.6z"/>
	<path fill="#F15E69" d="M43,178c-3.3,0-6.2,1.3-8.4,3.5c-2.2,2.2-3.5,5.2-3.5,8.5c0,6.6,5.4,12,12,12c3.8,0,7.2-1.8,9.4-4.5
		c1.6-2,2.6-4.6,2.6-7.4C54.9,183.4,49.6,178,43,178z"/>
	<path fill="#F6A2AB" d="M171.3,163.7c-4.7-4.7-12.2-4.7-16.9,0c-4.7,4.7-4.7,12.2,0,16.9l6.9,6.8c-0.7,0.5-1.5,1-2.3,1.4
		c0.8-0.5,1.5-0.9,2.3-1.4l10,10l0,0c-1.6-2-2.6-4.6-2.6-7.4c0-6.6,5.4-12,12-12c3.3,0,6.2,1.3,8.4,3.5l0,0l-9.6-9.6
		c0.1-0.1,0.1-0.1,0.2-0.2c-0.1,0.1-0.1,0.1-0.2,0.2L171.3,163.7z"/>
	<path fill="#F15E69" d="M168.7,190c0,2.8,1,5.4,2.6,7.4c2.2,2.8,5.6,4.5,9.4,4.5c6.6,0,12-5.4,12-12c0-3.3-1.4-6.3-3.5-8.5
		c-2.2-2.1-5.1-3.5-8.4-3.5C174.1,178,168.7,183.4,168.7,190z"/>
	<path fill="#F15E69" d="M61.2,42L58,28c-0.9-3.8-2.8-6.2-4.9-6.2c-2.9,0-5.3,4.8-5.3,10.7v26.4C56.7,58.8,63.2,50.6,61.2,42z"/>
</g>
</svg>
