<?xml version="1.0" encoding="utf-8"?>
<!-- Generator: Adobe Illustrator 18.0.0, SVG Export Plug-In . SVG Version: 6.00 Build 0)  -->
<!DOCTYPE svg PUBLIC "-//W3C//DTD SVG 1.1//EN" "http://www.w3.org/Graphics/SVG/1.1/DTD/svg11.dtd">
<svg version="1.1" id="Layer_1" xmlns="http://www.w3.org/2000/svg" xmlns:xlink="http://www.w3.org/1999/xlink" x="0px" y="0px"
	 viewBox="0 0 37.6 37.6" enable-background="new 0 0 37.6 37.6" xml:space="preserve">
<g>
	<g>
		<path fill="#FFFFFF" d="M18.8,0c10.4,0,18.8,8.4,18.8,18.8s-8.4,18.8-18.8,18.8S0,29.2,0,18.8S8.4,0,18.8,0z M18.8,36.1
			c9.5,0,17.3-7.8,17.3-17.3S28.4,1.5,18.8,1.5S1.5,9.3,1.5,18.8S9.3,36.1,18.8,36.1z"/>
	</g>
	<g>
		<path fill="#FFFFFF" d="M20.8,9c0.2,0,0.4,0.1,0.5,0.2c0.3,0.3,0.3,0.8,0,1.1L13.7,18l7.7,7.7c0.3,0.3,0.3,0.8,0,1.1
			c-0.3,0.3-0.8,0.3-1.1,0l-8.2-8.2c-0.3-0.3-0.3-0.8,0-1.1l8.2-8.2C20.4,9.1,20.6,9,20.8,9z"/>
	</g>
</g>
</svg>
