<?xml version="1.0" encoding="utf-8"?>
<!-- Generator: Adobe Illustrator 18.0.0, SVG Export Plug-In . SVG Version: 6.00 Build 0)  -->
<!DOCTYPE svg PUBLIC "-//W3C//DTD SVG 1.1//EN" "http://www.w3.org/Graphics/SVG/1.1/DTD/svg11.dtd">
<svg version="1.1" id="Layer_1" xmlns="http://www.w3.org/2000/svg" xmlns:xlink="http://www.w3.org/1999/xlink" x="0px" y="0px"
	 viewBox="0 0 40.9 18.2" enable-background="new 0 0 40.9 18.2" xml:space="preserve">
<g id="camera">
	<path fill="#FFFFFF" d="M9.5,11.3c-1.9,0-3.5,1.6-3.5,3.5c0,1.9,1.6,3.5,3.5,3.5c1.9,0,3.5-1.6,3.5-3.5C13,12.8,11.4,11.3,9.5,11.3
		z M9.5,17.2c-1.4,0-2.5-1.1-2.5-2.5s1.1-2.5,2.5-2.5s2.5,1.1,2.5,2.5S10.9,17.2,9.5,17.2z M32.5,11.3c-1.9,0-3.5,1.6-3.5,3.5
		c0,1.9,1.6,3.5,3.5,3.5c1.9,0,3.5-1.6,3.5-3.5C36,12.8,34.4,11.3,32.5,11.3z M32.5,17.2c-1.4,0-2.5-1.1-2.5-2.5s1.1-2.5,2.5-2.5
		c1.4,0,2.5,1.1,2.5,2.5S33.9,17.2,32.5,17.2z M39.4,6.2L39.4,6.2c-0.1,0-0.1-0.1-0.1-0.1c0-0.1-0.1-0.2-0.1-0.3
		C37.3,2.3,33.7,0,29.7,0H18.8c-2.5,0-4.8,0.9-6.7,2.4l-4,3.3C8,5.7,7.8,5.8,7.8,6L7.5,6.2H4.9c-2.6,0-4.8,2-4.9,4.7
		c0,2.7,2.1,4.8,4.7,4.8h0.2c-0.1-0.5-0.1-0.9-0.1-1.4c0.3-2.3,2.3-4.1,4.6-4.1c0,0,0,0,0,0c2.6,0,4.6,2.1,4.6,4.7c0,0,0,0,0,0
		c0,0.5,0.4,0.9,0.9,0.9H27c0.5,0,0.9-0.4,0.9-0.9c0-0.2,0-0.4,0-0.5c0.3-2.3,2.3-4.1,4.6-4.1c0,0,0,0,0,0c2.6,0,4.6,2.1,4.6,4.7
		c0,0.3,0,0.6-0.1,0.9c2.1,0,3.8-1.7,3.8-3.9V7.7C40.9,6.8,40.2,6.2,39.4,6.2z M39.9,11.8c0,1.2-0.7,2.2-1.7,2.6
		c-0.2-3-2.6-5.3-5.6-5.3c-2.8,0-5.3,2.2-5.6,5c0,0.2,0,0.4,0,0.5H15.2c0-3.1-2.6-5.6-5.7-5.6c-2.8,0-5.3,2.2-5.6,5
		c0,0.1,0,0.3,0,0.4c-0.7-0.2-1.3-0.5-1.8-1C1.4,12.8,1,11.9,1,10.8c0-2,1.8-3.7,3.9-3.7h2.6c0.2,0,0.5-0.1,0.6-0.2l0.3-0.3H13
		c0.3,0,0.5-0.2,0.5-0.5S13.2,5.7,13,5.7H9.7l3-2.5C14.4,1.8,16.6,1,18.8,1h10.8c3.4,0,6.5,1.8,8.2,4.7H24.6c-0.3,0-0.5,0.2-0.5,0.5
		s0.2,0.5,0.5,0.5h13.8C38.6,7,39,7.2,39.3,7.2h0.1c0.3,0,0.5,0.2,0.5,0.5V11.8z"/>
</g>
</svg>
