<?xml version="1.0" encoding="utf-8"?>
<!-- Generator: Adobe Illustrator 18.0.0, SVG Export Plug-In . SVG Version: 6.00 Build 0)  -->
<!DOCTYPE svg PUBLIC "-//W3C//DTD SVG 1.1//EN" "http://www.w3.org/Graphics/SVG/1.1/DTD/svg11.dtd">
<svg version="1.1" id="Layer_1" xmlns="http://www.w3.org/2000/svg" xmlns:xlink="http://www.w3.org/1999/xlink" x="0px" y="0px"
	 viewBox="0 0 34.9 27.7" enable-background="new 0 0 34.9 27.7" xml:space="preserve">
<g id="camera">
	<path fill="#FFFFFF" d="M34.5,24.2l-3.1-4.7c-0.4-0.6-1.1-1-1.9-1h-4.7c-1.6,0-3,0.8-3.9,2.2c-1.6,2.7-3.1,4.6-3.6,4.6
		c-0.5,0-1.9-1.9-3.6-4.6c-0.8-1.3-2.3-2.2-3.9-2.2H5.3c-0.8,0-1.5,0.4-1.9,1l-3.1,4.7c-1,1.5,0.1,3.5,1.9,3.5h30.4
		C34.4,27.7,35.5,25.7,34.5,24.2z M17.5,23.1c1,0,7.8-11,7.8-15.3S21.8,0,17.5,0S9.7,3.5,9.7,7.8S16.4,23.1,17.5,23.1z M12.1,7.8
		c0-3,2.4-5.4,5.4-5.4c3,0,5.4,2.4,5.4,5.4c0,3-2.4,5.4-5.4,5.4C14.5,13.2,12.1,10.8,12.1,7.8z"/>
</g>
</svg>
