<?xml version="1.0" encoding="utf-8"?>
<!-- Generator: Adobe Illustrator 18.0.0, SVG Export Plug-In . SVG Version: 6.00 Build 0)  -->
<!DOCTYPE svg PUBLIC "-//W3C//DTD SVG 1.1//EN" "http://www.w3.org/Graphics/SVG/1.1/DTD/svg11.dtd">
<svg version="1.1" id="Layer_1" xmlns="http://www.w3.org/2000/svg" xmlns:xlink="http://www.w3.org/1999/xlink" x="0px" y="0px"
	 viewBox="0 0 1200 675" enable-background="new 0 0 1200 675" xml:space="preserve">
<rect x="0" y="0" fill="#62C6C2" width="1200" height="675"/>
<g>
	<path fill="#4060AC" d="M206.5,517.2c14.4-1.6,27.2-17.6,21-32.8c-2.5-6.1-6.4-11.2-12.3-14.4c-12.5-6.7-28.6,0.4-34.4,12.7
		c-0.9,1.9-1.6,4-1.8,6.1c-0.7,5.6,0.7,11.4,3.7,16.1C187.9,512.7,197.3,517.2,206.5,517.2z"/>
	<path fill="#4060AC" d="M1193.7,128c-12.5-6.7-28.6,0.4-34.4,12.7c-0.9,1.9-1.6,4-1.8,6.1c-0.7,5.6,0.7,11.4,3.7,16.1
		c5.1,7.9,14.5,12.3,23.8,12.3c5.6-0.6,11-3.4,15.1-7.5v-34.8C1198.2,130.9,1196.1,129.3,1193.7,128z"/>
	<path fill="#4060AC" d="M1200,604.8c-3.4,2.6-6.2,5.9-8,9.7c-0.9,1.9-1.6,4-1.8,6.1c-0.7,5.6,0.7,11.4,3.7,16.1
		c1.6,2.5,3.7,4.7,6.1,6.5V604.8z"/>
	<path fill="#4060AC" d="M74.9,629.7c-0.7,5.6,0.7,11.4,3.7,16.1c5.1,7.9,14.5,12.3,23.8,12.3c14.4-1.6,27.2-17.6,21-32.8
		c-2.5-6.1-6.4-11.2-12.3-14.4c-12.5-6.7-28.6,0.4-34.4,12.7C75.9,625.6,75.2,627.6,74.9,629.7z"/>
	<path fill="#4060AC" d="M735.2,278.7c-12.5-6.7-28.6,0.4-34.4,12.7c-0.9,1.9-1.6,4-1.8,6.1c-0.7,5.6,0.7,11.4,3.7,16.1
		c5.1,7.9,14.5,12.3,23.8,12.3c14.4-1.6,27.2-17.6,21-32.8C745,287,741,281.9,735.2,278.7z"/>
	<path fill="#4060AC" d="M425,53.4c-2.5-6.1-6.4-11.2-12.3-14.4c-12.5-6.7-28.6,0.4-34.4,12.7c-0.9,1.9-1.6,4-1.8,6.1
		c-0.7,5.6,0.7,11.4,3.7,16.1c5.1,7.9,14.5,12.3,23.8,12.3C418.3,84.6,431.2,68.5,425,53.4z"/>
	<path fill="#4060AC" d="M552.2,654.1c14.4-1.6,27.2-17.6,21-32.8c-2.5-6.1-6.4-11.2-12.3-14.4c-12.5-6.7-28.6,0.4-34.4,12.7
		c-0.9,1.9-1.6,4-1.8,6.1c-0.7,5.6,0.7,11.4,3.7,16.1C533.5,649.7,542.9,654.1,552.2,654.1z"/>
	<path fill="#4060AC" d="M1021.5,320.5c-12.5-6.7-28.6,0.4-34.4,12.7c-0.9,1.9-1.6,4-1.8,6.1c-0.7,5.6,0.7,11.4,3.7,16.1
		c5.1,7.9,14.5,12.3,23.8,12.3c14.4-1.6,27.2-17.6,21-32.8C1031.3,328.8,1027.4,323.7,1021.5,320.5z"/>
	<path fill="#4060AC" d="M342.6,379.7c14.4-1.6,27.2-17.6,21-32.8c-2.5-6.1-6.4-11.2-12.3-14.4c-12.5-6.7-28.6,0.4-34.4,12.7
		c-0.9,1.9-1.6,4-1.8,6.1c-0.7,5.6,0.7,11.4,3.7,16.1C324,375.3,333.3,379.7,342.6,379.7z"/>
	<path fill="#4060AC" d="M338.5,94c-2.5-6.1-6.4-11.2-12.3-14.4c-12.5-6.7-28.6,0.4-34.4,12.7c-0.9,1.9-1.6,4-1.8,6.1
		c-0.7,5.6,0.7,11.4,3.7,16.1c5.1,7.9,14.5,12.3,23.8,12.3C331.9,125.2,344.7,109.2,338.5,94z"/>
	<path fill="#4060AC" d="M673.8,102.6c-12.5-6.7-28.6,0.4-34.4,12.7c-0.9,1.9-1.6,4-1.8,6.1c-0.7,5.6,0.7,11.4,3.7,16.1
		c5.1,7.9,14.5,12.3,23.8,12.3c14.4-1.6,27.2-17.6,21-32.8C683.6,110.9,679.7,105.8,673.8,102.6z"/>
	<path fill="#4060AC" d="M56.4,66.2C53.9,60.1,50,55,44.1,51.9c-12.5-6.7-28.6,0.4-34.4,12.7c-0.9,1.9-1.6,4-1.8,6.1
		C7.1,76.2,8.5,82,11.6,86.7c5.1,7.9,14.5,12.3,23.8,12.3C49.8,97.5,62.6,81.4,56.4,66.2z"/>
	<path fill="#4060AC" d="M875.9,423.2c-2.5-6.1-6.4-11.2-12.3-14.4c-12.5-6.7-28.6,0.4-34.4,12.7c-0.9,1.9-1.6,4-1.8,6.1
		c-0.7,5.6,0.7,11.4,3.7,16.1c5.1,7.9,14.5,12.3,23.8,12.3C869.3,454.5,882.1,438.4,875.9,423.2z"/>
	<path fill="#4060AC" d="M1087.5,60.2c-2.5-6.1-6.4-11.2-12.3-14.4c-12.5-6.7-28.6,0.4-34.4,12.7c-0.9,1.9-1.6,4-1.8,6.1
		c-0.7,5.6,0.7,11.4,3.7,16.1c5.1,7.9,14.5,12.3,23.8,12.3C1080.9,91.4,1093.7,75.4,1087.5,60.2z"/>
	<path fill="#FFCB07" d="M513,288.1c4.1,1.2,8.8,0,12.2-2.6c3.1-2.4,4.3-6.6,4.2-10.4c0-5-2-9.1-5.9-12.3
		c-5.3-4.3-12.6-5.3-17.8-0.2C497.1,271,501.9,284.9,513,288.1z"/>
	<path fill="#FFCB07" d="M246.6,670.5c0-5-2-9.1-5.9-12.3c-5.3-4.3-12.6-5.3-17.8-0.2c-5,4.9-5.5,11.6-2.9,17H246
		C246.4,673.5,246.6,672,246.6,670.5z"/>
	<path fill="#FFCB07" d="M1069.1,228.2c-5.3-4.3-12.6-5.3-17.8-0.2c-8.6,8.4-3.9,22.3,7.2,25.5c4.1,1.2,8.8,0,12.2-2.6
		c3.1-2.4,4.3-6.6,4.2-10.4C1074.9,235.5,1072.9,231.4,1069.1,228.2z"/>
	<path fill="#FFCB07" d="M1171.4,444.1c-2.7,4.3-3.6,9.5-2.2,14.4c2.5,8.7,10.9,15.8,20.2,15.3c3.8-0.2,7.4-1.6,10.5-3.7v-32.9
		c-3.2-2-7-3.2-10.5-3.4C1182,433.2,1175.3,438,1171.4,444.1z"/>
	<path fill="#FFCB07" d="M188.9,366c8-0.4,15.3-5.9,18.1-13.3c2.2-5.8,1.9-12.5-1.7-17.9c-3.5-5.2-10.3-8.5-16.4-8.9
		c-7.5-0.5-14.2,4.3-18,10.4c-2.7,4.3-3.6,9.5-2.2,14.4C171.3,359.5,179.6,366.5,188.9,366z"/>
	<path fill="#FFCB07" d="M937.9,1.5c-2.7,4.3-3.6,9.5-2.2,14.4c2.5,8.7,10.9,15.8,20.2,15.3c8-0.4,15.3-5.9,18.1-13.3
		C976.3,12,976,5.3,972.4,0h-33.5C938.6,0.5,938.2,1,937.9,1.5z"/>
	<path fill="#FFCB07" d="M0,291.5c1.6,0.4,3.3,0.5,4.9,0.5c8-0.4,15.3-5.9,18.1-13.3c2.2-5.8,1.9-12.5-1.7-17.9
		c-3.5-5.2-10.3-8.5-16.4-8.9c-1.7-0.1-3.4,0.1-5,0.4V291.5z"/>
	<path fill="#FFCB07" d="M520.1,145.7c2.2-5.8,1.9-12.5-1.7-17.9c-3.5-5.2-10.3-8.5-16.4-8.9c-7.5-0.5-14.2,4.3-18,10.4
		c-2.7,4.3-3.6,9.5-2.2,14.4c2.5,8.7,10.9,15.8,20.2,15.3C509.9,158.6,517.3,153.1,520.1,145.7z"/>
	<path fill="#FFCB07" d="M22.5,559.7c2.5,8.7,10.9,15.8,20.2,15.3c8-0.4,15.3-5.9,18.1-13.3c2.2-5.8,1.9-12.5-1.7-17.9
		c-3.5-5.2-10.3-8.5-16.4-8.9c-7.5-0.5-14.2,4.3-18,10.4C22,549.6,21.1,554.8,22.5,559.7z"/>
	<path fill="#FFCB07" d="M574.7,34.1c-3.5-5.2-10.3-8.5-16.4-8.9c-7.5-0.5-14.2,4.3-18,10.4c-2.7,4.3-3.6,9.5-2.2,14.4
		c2.5,8.7,10.9,15.8,20.2,15.3c8-0.4,15.3-5.9,18.1-13.3C578.7,46.2,578.4,39.4,574.7,34.1z"/>
	<path fill="#FFCB07" d="M757.8,156.1c4.7-0.4,9-2.7,12.6-5.7c3.5-3,4.8-8.1,4.4-12.5c-1-9.9-10.3-17.5-20.2-16.3
		c-8.2,1-16.1,8.4-15.7,17c0.2,4.7,2.6,9.1,5.8,12.4C748.1,154.3,752.9,156.5,757.8,156.1z"/>
	<path fill="#FFCB07" d="M861.3,599.1c4.7-0.4,9-2.7,12.6-5.7c3.5-3,4.8-8.1,4.4-12.5c-1-9.9-10.3-17.5-20.2-16.3
		c-8.2,1-16.1,8.4-15.7,17c0.2,4.7,2.6,9.1,5.8,12.4C851.6,597.4,856.4,599.5,861.3,599.1z"/>
	<path fill="#FFCB07" d="M947,126.6c-8.2,1-16.1,8.4-15.7,17c0.2,4.7,2.6,9.1,5.8,12.4c3.3,3.4,8.2,5.6,13,5.1
		c4.7-0.4,9-2.7,12.6-5.7c3.5-3,4.8-8.1,4.4-12.5C966.2,132.9,956.9,125.3,947,126.6z"/>
	<path fill="#FFCB07" d="M377.1,561.9c4.7-0.4,9-2.7,12.6-5.7c3.5-3,4.8-8.1,4.4-12.5c-1-9.9-10.3-17.5-20.2-16.3
		c-8.2,1-16.1,8.4-15.7,17c0.2,4.7,2.6,9.1,5.8,12.4C367.4,560.2,372.3,562.4,377.1,561.9z"/>
	<path fill="#FFCB07" d="M779.1,654.9c4.7-0.4,9-2.7,12.6-5.7c3.5-3,4.8-8.1,4.4-12.5c-1-9.9-10.3-17.5-20.2-16.3
		c-8.2,1-16.1,8.4-15.7,17c0.2,4.7,2.6,9.1,5.8,12.4C769.4,653.2,774.3,655.4,779.1,654.9z"/>
	<path fill="#4060AC" d="M186.7,300.8c7.1-1.1,13.5-5.8,16.6-12.3c2.8-5.9,2.7-12.4,0.4-18.1c-2.2-5.3-6.4-9.7-11.9-12.2
		c-6.2-2.8-13.6-2.8-19.6,0.5c-11.1,6.1-13.8,20.3-7.9,30.9C168.6,297.6,177.5,302.2,186.7,300.8z"/>
	<path fill="#4060AC" d="M102.7,432.4c7.1-1.1,13.5-5.8,16.6-12.3c2.8-5.9,2.7-12.4,0.4-18.1c-2.2-5.3-6.4-9.7-11.9-12.2
		c-6.2-2.8-13.6-2.8-19.6,0.5c-11.1,6.1-13.8,20.3-7.9,30.9C84.6,429.2,93.5,433.8,102.7,432.4z"/>
	<path fill="#4060AC" d="M181.2,53.5c2.8-5.9,2.7-12.4,0.4-18.1c-2.2-5.3-6.4-9.7-11.9-12.2c-6.2-2.8-13.6-2.8-19.6,0.5
		c-11.1,6.1-13.8,20.3-7.9,30.9c4.4,8,13.3,12.6,22.4,11.2C171.7,64.7,178.1,59.9,181.2,53.5z"/>
	<path fill="#4060AC" d="M1056.2,591.7c7.1-1.1,13.5-5.8,16.6-12.3c2.8-5.9,2.7-12.4,0.4-18.1c-2.2-5.3-6.4-9.7-11.9-12.2
		c-6.2-2.8-13.6-2.8-19.6,0.5c-11.1,6.1-13.8,20.3-7.9,30.9C1038.1,588.5,1047,593.2,1056.2,591.7z"/>
</g>
</svg>
