<?xml version="1.0" encoding="utf-8"?>
<!-- Generator: Adobe Illustrator 18.0.0, SVG Export Plug-In . SVG Version: 6.00 Build 0)  -->
<!DOCTYPE svg PUBLIC "-//W3C//DTD SVG 1.1//EN" "http://www.w3.org/Graphics/SVG/1.1/DTD/svg11.dtd">
<svg version="1.1" id="Layer_1" xmlns="http://www.w3.org/2000/svg" xmlns:xlink="http://www.w3.org/1999/xlink" x="0px" y="0px"
	 viewBox="0 0 17.1 17.1" enable-background="new 0 0 17.1 17.1" xml:space="preserve">
<g id="camera">
	<g>
		<path fill="#FFFFFF" d="M14.6,2.5C13,0.9,10.8,0,8.5,0c-2.3,0-4.4,0.9-6,2.5c-3.3,3.3-3.3,8.8,0,12.1c1.6,1.6,3.8,2.5,6,2.5
			c2.3,0,4.4-0.9,6-2.5C17.9,11.3,17.9,5.8,14.6,2.5z M13.9,13.9c-1.4,1.4-3.3,2.2-5.3,2.2c-2,0-3.9-0.8-5.3-2.2
			c-2.9-2.9-2.9-7.7,0-10.7C4.6,1.8,6.5,1,8.5,1c2,0,3.9,0.8,5.3,2.2C16.8,6.2,16.8,10.9,13.9,13.9z"/>
		<path fill="#FFFFFF" d="M13.1,8.1H8.5H4c-0.3,0-0.5,0.2-0.5,0.5S3.7,9.1,4,9.1h4.5h4.5c0.3,0,0.5-0.2,0.5-0.5S13.4,8.1,13.1,8.1z"
			/>
	</g>
</g>
</svg>
