<?xml version="1.0" encoding="utf-8"?>
<!-- Generator: Adobe Illustrator 18.0.0, SVG Export Plug-In . SVG Version: 6.00 Build 0)  -->
<!DOCTYPE svg PUBLIC "-//W3C//DTD SVG 1.1//EN" "http://www.w3.org/Graphics/SVG/1.1/DTD/svg11.dtd">
<svg version="1.1" id="Layer_1" xmlns="http://www.w3.org/2000/svg" xmlns:xlink="http://www.w3.org/1999/xlink" x="0px" y="0px"
	 viewBox="0 0 197.1 168.7" enable-background="new 0 0 197.1 168.7" xml:space="preserve">
<rect y="0" fill="#FFCB07" width="197.1" height="168.7"/>
<g>
	<path fill="#353535" d="M101.5,155.8c-2.5,3.2-5.9,5.4-9.5,7.3c-4.6,2.4-9.4,4.2-14.4,5.7h69c0.2-3.8-0.5-7.7-2.6-10.9
		c-3.9-6.2-11.8-8.7-19-9.7c-2.4-0.3-4.9-0.6-7.4-0.9c-4.1,1.9-8.5,3-13.4,3.3C103.6,152.4,102.7,154.2,101.5,155.8z"/>
	<path fill="#FFFFFF" d="M15.9,73.4c-0.1,0-0.1,0-0.2,0C15.8,73.4,15.9,73.4,15.9,73.4z"/>
	<path fill="#FFFFFF" d="M40.4,113.7c-0.4,0-0.8,0-1.1-0.1C39.6,113.7,40,113.7,40.4,113.7z"/>
	<path fill="#FFFFFF" d="M16.8,83.5C16.7,83.5,16.7,83.6,16.8,83.5C16.7,83.6,16.7,83.6,16.8,83.5C16.7,83.6,16.7,83.6,16.8,83.5z"
		/>
	<path fill="#FFFFFF" d="M37.3,112.2c1.4,0.2,2.9,0.2,4.5,0c4-0.6,8.9-3,8.9-3c-1.3,0.5-2.7,0.9-4,1.3c-2,0.5-4,1.1-6,1.2
		c-1.8,0.2-3.6,0-5.5-0.1c-0.6-0.1-1.2-0.1-1.8-0.2C34.4,111.7,36.9,112.1,37.3,112.2z"/>
	<path fill="#FFFFFF" d="M59.1,77.1c0,0,0.3,1.1-0.4,2.1c0.9-0.9,1.1-1.7,1.1-1.9C59.6,77.2,59.3,77.1,59.1,77.1
		C59.1,77.1,59.1,77.1,59.1,77.1z"/>
	<path fill="#FFFFFF" d="M23.3,83.8c-0.2-1.2,0.1-2,0.5-2.5c-0.8,0.2-1.7,0.4-2.5,0.7c-1.4,0.5-2.8,1-4.3,1.4c0.4,1.2,3.2,2.4,5,2.6
		c1.3,0.1,2.5,0,3.7-0.4C24.6,85.8,23.5,85.4,23.3,83.8z"/>
	<path fill="#FFFFFF" d="M63.8,49c-3.3-7.9-12.9-4.4-12.9-4.4c-17.3,12.2-27.3,9.2-34.7,9.2C16.1,59.1,15,66,14.2,73
		c0.2-0.1,0.3-0.2,0.5-0.3c0.5-0.3,1.1-0.5,1.7-0.5c0.6,0,1.2,0,1.8,0.1c0.6,0.1,1.2,0.2,1.7,0.4c2.1,0.5,4.1,1,6.2,1.6
		c0.8,0.3,1.9,0.5,2.7,0.7c-0.3,0.8-1.2,1.8-2,1.6c2.2,1.7,2.6,3.6,4,5.5c0,0,0,0,0,0c0,0,0.1,0.1,0.1,0.1c0.1,0.1,0,0.2-0.1,0.2
		c-0.5-0.4-1.2-0.6-1.8-0.8c0.2,0.6,0.3,1.7-0.6,2.7c0.1-0.1,0.3-0.2,0.5-0.3c0.5-0.2,1-0.4,1.5-0.4c-1,0.1-2.3,2.5-6.3,3
		c-0.9,0.1-1.8,0.1-2.7,0c0,0,0,0,0,0c-4.1,1-5.9,6.3-4.8,10c0.7,2.5,5.7,11.4,8.3,16.2c14.3,20.1,24.1,17.6,30.8,14.3
		c3.3-2.1,6.7-4.9,8.4-7c5.9-7.4,6-11.4,7.3-20.8c1.3-9.4,1.5-18.9,3-28.2C68.6,67.3,66.7,55.8,63.8,49z M42.8,69.6
		c1.1,0,2.6-0.3,3.6-0.8c1.1-0.5,2.1-1.2,3.2-1.8c2.2-1.1,4.8-1.4,7.3-1c2.6,0.4,5,2,6.9,3.8l-0.1,0.3c0,0-0.1-0.1-0.2-0.2
		c-0.1-0.1-0.3-0.3-0.5-0.5c-2.2-1.8-5-2.8-7.8-2.1c-2.2,0.5-4.1,1.9-6,3C48.1,71,47,71.6,45.8,72c-0.1,0-0.6,0.1-1.1,0.1
		C43.6,72.2,42.7,70.7,42.8,69.6z M41.3,101.7c0.2-0.2,0.3-0.5,0.5-0.8c0.2-0.4,0.5-0.7,0.9-0.9c0.2-0.1,0.5-0.2,0.8-0.1
		c0.1,0,0.2,0,0.3,0.1c0.2,0.2,0.2,0.5,0,0.7c-0.2,0.2-0.4,0.3-0.6,0.5c-0.6,0.3-1.2,0.5-1.8,0.7C41.4,101.9,41.3,101.8,41.3,101.7z
		 M35.5,100.7c0.1-0.1,0.2-0.1,0.3-0.1c0.3,0,0.5,0,0.8,0.1c0.4,0.2,0.7,0.5,1,0.8c0.2,0.2,0.4,0.5,0.6,0.7c0.1,0.1,0,0.2-0.1,0.2
		c-0.6-0.1-1.3-0.3-1.9-0.6c-0.2-0.1-0.5-0.2-0.7-0.4C35.4,101.3,35.3,100.9,35.5,100.7z M29.9,110.8c-0.2-0.2,0-0.4,0.2-0.5
		c1.2-0.3,2.7-0.7,3.9-0.9c1.6-0.3,3.2-0.8,4.7-0.4c0.8,0.2,1.9,0.7,2.4,0.6c0.5,0,1.5-1.1,2.3-1.5c1.7-0.8,4-0.7,5.8-0.8
		c1.4,0,2.8-0.1,4.1-0.3c0.5-0.1,0.8,0.3,0.6,0.7c-1.3,2.3-2.9,5-5.2,6.3c-2.7,1.5-5.8,2.3-8.9,2.3c-1.5,0-3.1-0.1-4.5-0.7
		C33.4,114.9,31.4,112.5,29.9,110.8z M63.8,85.3c-0.2,0.1-0.5,0-0.7-0.4c-0.2-0.3-0.2-0.7,0-0.8c0.2-0.1,0.5,0,0.7,0.4
		C64,84.9,64,85.2,63.8,85.3z M60,77.2c0.6,0.3,2.1,1.3-2.2,3.4c-4.5,2.2-8.6,0.5-8.6,0.5c3.5,0.2,5.9-0.2,7.4-0.8
		c-2,0.2-3.4-2.4-2.2-3.9c-0.2,0-0.4,0-0.7,0c-3.4-0.1-5.8,2.2-6.8,3.5c-0.2,0.2-0.5,0-0.4-0.2c2.5-8.7,12.4-6.4,14-5.1
		c1.7,1.4,4.5,1.7,4.5,1.7C63.4,77.4,61.8,77.4,60,77.2z"/>
	<path fill="#FFCB07" d="M12.7,74.6c0.2-0.3,0.4-0.7,0.7-1c0.2-0.2,0.4-0.4,0.7-0.6c0.8-7,1.9-13.9,2-19.2c-1.5,0-2.9,0.1-4.2,0.5
		c-3.4,1-4.8,3.8-4.9,8c0.7,3,2.3,7.3,4.5,13.6c0,0.1,0,0.2,0.1,0.2c0.2-0.3,0.5-0.6,0.7-0.9C12.5,75,12.6,74.8,12.7,74.6z"/>
	<path fill="#FFCB07" d="M24.7,112.7c0.6,1.1,1.1,2,1.4,2.6c0.3,0.6-7.9-9-8.4-9.4c-1.4-1.3-2.6-3-3.5-4.9c-0.6,1.2-1.3,1.8-1.9,2.1
		c9,14.1,21.5,26.4,29.4,27.5c4.2,0.6,3.8,0.6,7.8-0.6c1.6-0.5,3.7-1.6,5.9-2.9C48.8,130.3,39,132.8,24.7,112.7z"/>
	<path fill="#FFCB07" d="M26.8,76.6C26.8,76.6,26.8,76.6,26.8,76.6c-1.4-0.5-2.7-0.9-4-1.4c-1-0.3-2.1-0.7-3.2-1.1
		C19,74,18.5,73.8,18,73.6c-0.5-0.1-1-0.2-1.5-0.3c-0.2,0-0.4,0-0.6,0c-0.1,0-0.1,0-0.2,0c-0.2,0-0.4,0.1-0.6,0.2
		c-0.4,0.2-0.7,0.4-1.1,0.7c-0.3,0.3-0.6,0.5-0.8,0.8c-0.2,0.3-0.4,0.5-0.6,0.7c-0.3,0.4-0.5,0.6-0.5,0.6L12,76.2
		c0,0,0.1-0.3,0.3-0.7c0-0.1,0.1-0.1,0.1-0.2c-0.3,0.3-0.5,0.6-0.7,0.9c0.9,2.6,1.2,4.9,1.2,7c1.7,0.1,3.2-0.6,4.7-1.4
		c1.7-0.9,3.4-2,5.3-2.4c1.6-0.4,3.3-0.2,4.8,0.4c1.2,0.5,2.3,1.3,3.1,2.4c0,0,0,0,0,0C29.4,80.2,29,78.3,26.8,76.6z"/>
	<path fill="#FFCB07" d="M26.2,115.2c-0.3-0.5-0.8-1.4-1.4-2.6C22,107.9,17,99,16.4,96.5c-1-3.7,0.7-9.1,4.8-10c0,0,0,0,0,0
		c-0.8-0.1-1.6-0.3-2.3-0.7c-0.8-0.4-2.8-1.4-2.3-2.2c0,0,0,0,0,0c-0.1,0-0.2,0.1-0.3,0.1c-0.7,0.2-1.5,0.4-2.2,0.3
		c-0.4,0-0.9-0.2-1.3-0.4c0,0.8-0.1,1.5-0.2,2.2c3,8.6,2.7,13,1.6,15.2c0.9,1.8,2.1,3.5,3.5,4.9C18.2,106.3,26.5,115.8,26.2,115.2z"
		/>
	<path fill="#353535" d="M46.5,79.8c-0.1,0.2,0.2,0.4,0.4,0.2c1.1-1.3,3.4-3.6,6.8-3.5c0.2,0,0.5,0,0.7,0c-1.2,1.5,0.2,4.1,2.2,3.9
		c-1.6,0.6-3.9,1-7.4,0.8c0,0,4,1.6,8.6-0.5c4.3-2.1,2.8-3.1,2.2-3.4c1.8,0.2,3.3,0.2,5-0.7c0,0-2.7-0.4-4.5-1.7
		C58.9,73.4,49,71.1,46.5,79.8z M58.7,79.1c0.7-1,0.4-2.1,0.4-2.1c0,0,0,0,0,0c0.2,0,0.5,0.1,0.7,0.1C59.8,77.4,59.6,78.3,58.7,79.1
		z"/>
	<path fill="#353535" d="M44.7,72.1c0.6-0.1,1-0.1,1.1-0.1c1.2-0.4,2.3-1,3.3-1.6c1.9-1.2,3.8-2.5,6-3c2.8-0.6,5.6,0.3,7.8,2.1
		c0.2,0.2,0.4,0.4,0.5,0.5c0.1,0.1,0.2,0.2,0.2,0.2l0.1-0.3c-1.9-1.9-4.3-3.4-6.9-3.8c-2.5-0.4-5-0.1-7.3,1
		c-1.1,0.5-2.1,1.2-3.2,1.8c-1,0.5-2.5,0.8-3.6,0.8C42.7,70.7,43.6,72.2,44.7,72.1z"/>
	<path fill="#353535" d="M43.3,101.2c0.2-0.1,0.5-0.2,0.6-0.5c0.2-0.2,0.2-0.6,0-0.7c-0.1-0.1-0.2-0.1-0.3-0.1c-0.3,0-0.5,0-0.8,0.1
		c-0.4,0.2-0.7,0.5-0.9,0.9c-0.2,0.3-0.3,0.5-0.5,0.8c-0.1,0.1,0,0.2,0.1,0.2C42.1,101.7,42.7,101.5,43.3,101.2z"/>
	<path fill="#353535" d="M36.2,101.9c0.6,0.2,1.2,0.4,1.9,0.6c0.1,0,0.2-0.1,0.1-0.2c-0.2-0.2-0.4-0.5-0.6-0.7
		c-0.3-0.3-0.6-0.7-1-0.8c-0.2-0.1-0.5-0.1-0.8-0.1c-0.1,0-0.2,0.1-0.3,0.1c-0.2,0.2-0.2,0.5,0,0.7C35.7,101.7,36,101.8,36.2,101.9z
		"/>
	<path fill="#353535" d="M37.3,112.2c-0.3-0.1-2.8-0.5-3.9-0.8c0,0,0,0-0.1,0c-0.1,0.8,2.5,1.5,3.6,1.8c0.7,0.2,1.5,0.4,2.4,0.5
		c0.4,0,0.7,0.1,1.1,0.1c0.3,0,0.6,0,0.9-0.1c4.6-0.6,9.8-3.4,9.2-4.5c0,0-4.9,2.4-8.9,3C40.2,112.4,38.6,112.3,37.3,112.2z"/>
	<path fill="#ED1C24" d="M48.9,114.1c2.3-1.3,3.9-4,5.2-6.3c0.2-0.4-0.1-0.8-0.6-0.7c-1.4,0.2-2.7,0.3-4.1,0.3
		c-1.9,0-4.1-0.1-5.8,0.8c-0.8,0.4-1.8,1.5-2.3,1.5c-0.5,0-1.6-0.4-2.4-0.6c-1.5-0.4-3.2,0.1-4.7,0.4c-1.1,0.2-2.6,0.6-3.9,0.9
		c-0.2,0.1-0.4,0.3-0.2,0.5c1.5,1.7,3.5,4,5.5,4.9c1.4,0.6,3,0.7,4.5,0.7C43,116.4,46.2,115.7,48.9,114.1z M35.1,111.6
		c1.8,0.2,3.6,0.3,5.5,0.1c2-0.2,4-0.7,6-1.2c1.4-0.4,2.7-0.8,4-1.3c0.6,1.1-4.6,3.9-9.2,4.5c-0.3,0-0.6,0.1-0.9,0.1
		c-0.4,0-0.8,0-1.1-0.1c-0.9-0.1-1.7-0.3-2.4-0.5c-1.1-0.3-3.7-1-3.6-1.8c0,0,0,0,0.1,0C33.9,111.4,34.5,111.5,35.1,111.6z"/>
	<path fill="#ED1C24" d="M135.8,26.6c-6.1,11.1-10.2,23.5-14,35.8c-3.4,11.2-6.5,22.8-12.9,32.3c-4.3,6.5-10.1,11.8-16.6,15.4
		c3.5-9,3.2-19.2,2.8-28.9c-0.3-6.8-0.6-13.6-2-20.2c-1.8-8.8-5.5-17.1-9.7-24.9c-4.2-7.7-9.2-15.3-16.5-20.2
		c-7.3-5-16.6-7-25.4-6.3c-8.9,0.7-17.4,4-25.1,8.5C10.2,21.8,4.4,26.7,0,32.5v11c2.1-4.6,4.6-8.8,7.5-12.5c4-5.1,9.8-7.2,15.7-7.8
		c1.1-0.6,1.8-1,1.8-1c9.7-0.6,10.2,0.5,16.7,1.4c6.8,1,5.7,1.6,11.7,4.9s11.3,8.3,13.7,14.7c3.7,9.8,8.8,17.4,7.1,27.7c0,0,0,0,0,0
		c-1.6,9.3-1.7,18.8-3,28.2c-1.3,9.4-1.4,13.3-7.3,20.8c-1.7,2.1-5,4.9-8.4,7c-2.1,1.4-4.2,2.4-5.9,2.9c-4.1,1.2-3.6,1.2-7.8,0.6
		c-7.9-1.1-20.4-13.4-29.4-27.5c-0.4,0.2-0.7,0.2-0.7,0.2C9.5,98.8,0.9,87.6,0.9,87.6C0.6,87.1,0.3,86.5,0,86v19
		c3.3,6.2,6.6,12.5,10,18.7c-3.6,1.2-7,2.9-10,5.1v39.9h77.6c5-1.5,9.8-3.3,14.4-5.7c3.6-1.8,7-4.1,9.5-7.3c1.2-1.6,2.1-3.4,2.7-5.2
		c4.9-0.2,9.4-1.4,13.4-3.3c15.2-7,25.2-24.3,38.4-40.9c5.5-7,10-15.1,16.2-21.4c6.2-6.3,14.8-10.7,22.8-8.2
		c0.8,0.2,1.5,0.5,2.2,0.9V0h-37.3C149.8,6,141.8,15.7,135.8,26.6z M62.9,140.4c-13.4,4.8-19.1-2-19.1-2c8,1.5,16.4-0.8,23.1-5.5
		c6.7-4.6,11.7-11.4,15.1-18.8C82,114.2,76.3,135.7,62.9,140.4z M34.4,158c-5.2,0-11-1.6-15-4.9c-4.2-3.3-5.9-8.2-6.8-13.3
		c-1-5.8-0.9-8.3-0.9-12.8c0,0,0,0,0,0c1.2,8.4,6.2,16,13,21.2c4.8,4.7,11.3,7.4,17.9,8.2c3.8,0.5,7.6,0.4,11.4-0.2
		c3-0.2,6-0.6,8.9-1.3C56.5,158.4,45.2,158.8,34.4,158z M131.5,118.4c-3.6,5.2-6.3,11.7-10.8,16.3c-8,8.3-10.3,10.6-16.6,11.4
		c0-2.8-3.8-11.7-5.7-13.8s-4.5-3.4-7.3-3.7c4.2-0.5,7.2,0.1,9.7,0.3c2.5,0.2,3.9,0.2,6.4,0c4.4-0.3,8.8-3.4,12.2-6.2
		s6.4-4.8,9.6-7.9c4.9-4.7,9.5-8.9,14.9-13.2C139.5,106.9,135.4,112.7,131.5,118.4z M149.9,84.1c-1.5,3.9-5.4,6.9-9.6,7.1
		c-4.9,0.2-9.4-3.5-10.7-8.1c-0.8-2.6-0.3-5.4,1.2-7.6c2-3.2,5.6-5.8,9.6-5.5c3.3,0.2,6.8,2,8.7,4.7C150.9,77.4,151.1,81,149.9,84.1
		z M179,30.9c3.3,8.1-3.5,16.6-11.2,17.4c-4.9,0-9.9-2.4-12.6-6.5c-1.6-2.5-2.4-5.6-2-8.5c0.1-1.1,0.5-2.2,1-3.2
		c3.1-6.5,11.7-10.3,18.3-6.7C175.6,25,177.7,27.7,179,30.9z"/>
	<path fill="#353535" d="M54,156.1c-3.7,0.6-7.6,0.7-11.4,0.2c-6.6-0.8-13.1-3.5-17.9-8.2c-6.8-5.2-11.8-12.7-13-21.2c0,0,0,0,0,0
		c0,4.5,0,7,0.9,12.8c0.9,5.1,2.6,10,6.8,13.3c4.1,3.2,9.9,4.9,15,4.9c10.8,0.8,22.1,0.4,28.5-3.2C60,155.5,57,155.9,54,156.1z"/>
	<path fill="#353535" d="M12.7,74.6c-0.1,0.2-0.2,0.4-0.3,0.6c0,0.1-0.1,0.2-0.1,0.2c-0.2,0.5-0.3,0.7-0.3,0.7l0.3,0.2
		c0,0,0.2-0.2,0.5-0.6c0.2-0.2,0.3-0.4,0.6-0.7c0.2-0.3,0.5-0.5,0.8-0.8c0.3-0.3,0.7-0.5,1.1-0.7c0.2-0.1,0.4-0.1,0.6-0.2
		c0.1,0,0.1,0,0.2,0c0.2,0,0.4,0,0.6,0c0.5,0,1,0.1,1.5,0.3c0.5,0.1,1.1,0.3,1.6,0.5c1.1,0.4,2.2,0.7,3.2,1.1c1.3,0.4,2.7,0.9,4,1.4
		c0,0,0,0,0,0c0.8,0.2,1.7-0.8,2-1.6c-0.8-0.2-1.9-0.5-2.7-0.7c-2-0.6-4.1-1.1-6.2-1.6c-0.6-0.1-1.1-0.3-1.7-0.4
		c-0.6-0.1-1.2-0.2-1.8-0.1c-0.6,0-1.2,0.2-1.7,0.5c-0.2,0.1-0.3,0.2-0.5,0.3c-0.3,0.2-0.5,0.4-0.7,0.6C13.2,74,12.9,74.3,12.7,74.6
		z"/>
	<path fill="#353535" d="M66.9,133c-6.7,4.6-15.1,7-23.1,5.5c0,0,5.7,6.7,19.1,2S82,114.2,82,114.2C78.6,121.6,73.6,128.4,66.9,133z
		"/>
	<path fill="#353535" d="M11.7,103.3c0,0,0.3,0,0.7-0.2c0.6-0.3,1.3-0.9,1.9-2.1c1-2.2,1.4-6.6-1.6-15.2c0.1-0.7,0.2-1.4,0.2-2.2
		c0.4,0.2,0.8,0.4,1.3,0.4c0.7,0.1,1.5-0.1,2.2-0.3c0.1,0,0.2-0.1,0.3-0.1c0,0,0.1,0,0.1,0c0,0,0,0,0,0.1c-0.6,0.8,1.4,1.9,2.3,2.2
		c0.7,0.3,1.5,0.5,2.3,0.7c0.9,0.1,1.8,0.2,2.7,0c4-0.5,5.3-2.8,6.3-3c-0.5,0-1,0.1-1.5,0.4c-0.2,0.1-0.3,0.2-0.5,0.3
		c0.9-1,0.8-2.1,0.6-2.7c0.6,0.2,1.3,0.5,1.8,0.8c0.1,0.1,0.2-0.1,0.1-0.2c0,0-0.1-0.1-0.1-0.1c-0.8-1-1.9-1.9-3.1-2.4
		c-1.5-0.6-3.2-0.8-4.8-0.4c-1.9,0.4-3.6,1.5-5.3,2.4c-1.5,0.8-3.1,1.4-4.7,1.4c0-2.1-0.3-4.4-1.2-7c0-0.1,0-0.2-0.1-0.2
		c-2.2-6.3-3.8-10.6-4.5-13.6c0.1-4.2,1.5-7,4.9-8c1.3-0.4,2.7-0.5,4.2-0.5c7.4,0,17.4,3,34.7-9.2c0,0,9.7-3.4,12.9,4.4
		c2.8,6.8,4.8,18.3,10.3,22c0,0,0,0,0,0c1.7-10.4-3.4-17.9-7.1-27.7c-2.4-6.4-7.7-11.4-13.7-14.7s-5-3.9-11.7-4.9
		c-6.5-0.9-6.9-2-16.7-1.4c0,0-0.7,0.4-1.8,1c-5.9,0.6-11.7,2.7-15.7,7.8C4.6,34.7,2.1,38.9,0,43.5V86c0.3,0.5,0.6,1.1,0.9,1.6
		C0.9,87.6,9.5,98.8,11.7,103.3z M22.1,86c-1.8-0.2-4.6-1.3-5-2.6c1.4-0.4,2.8-1,4.3-1.4c0.8-0.3,1.7-0.5,2.5-0.7
		c-0.4,0.5-0.7,1.3-0.5,2.5c0.2,1.5,1.3,1.9,2.5,1.7C24.6,86,23.3,86.1,22.1,86z"/>
	
		<ellipse transform="matrix(-0.544 -0.8391 0.8391 -0.544 26.8704 184.1314)" fill="#353535" cx="63.5" cy="84.8" rx="0.7" ry="0.4"/>
	<path fill="#353535" d="M119.6,122.8c-3.4,2.8-7.8,5.9-12.2,6.2c-2.5,0.2-3.9,0.2-6.4,0c-2.5-0.2-5.5-0.8-9.7-0.3
		c2.8,0.3,5.4,1.6,7.3,3.7s5.7,11,5.7,13.8c6.3-0.8,8.6-3.1,16.6-11.4c4.4-4.6,7.1-11.1,10.8-16.3c3.9-5.7,8-11.5,12.6-16.7
		c-5.4,4.2-10,8.4-14.9,13.2C126,117.9,123,120,119.6,122.8z"/>
	<path fill="#FFFFFF" d="M154.2,30c-0.5,1-0.8,2.1-1,3.2c-0.4,3,0.4,6.1,2,8.5c2.7,4.2,7.7,6.5,12.6,6.5c7.6-0.8,14.4-9.3,11.2-17.4
		c-1.3-3.2-3.4-6-6.5-7.6C165.9,19.7,157.3,23.5,154.2,30z"/>
	<path fill="#FFFFFF" d="M161.5,144.6c-2.8-2.3-6.7-2.8-9.4-0.1c-4.6,4.5-2.1,11.8,3.8,13.5c2.2,0.6,4.7,0,6.4-1.4
		c1.6-1.3,2.3-3.5,2.3-5.5C164.6,148.5,163.5,146.2,161.5,144.6z"/>
	<path fill="#FFFFFF" d="M140.3,69.9c-4-0.3-7.5,2.3-9.6,5.5c-1.4,2.3-1.9,5-1.2,7.6c1.3,4.6,5.8,8.4,10.7,8.1
		c4.2-0.2,8.1-3.1,9.6-7.1c1.2-3.1,1-6.7-0.9-9.5C147.1,71.9,143.6,70.1,140.3,69.9z"/>
	<path fill="#FFFFFF" d="M172.7,124.6c2.5-0.2,4.8-1.4,6.7-3c1.9-1.6,2.6-4.3,2.3-6.7c-0.5-5.3-5.4-9.3-10.7-8.6
		c-4.3,0.6-8.5,4.4-8.3,9c0.1,2.5,1.4,4.8,3.1,6.6C167.5,123.7,170.1,124.9,172.7,124.6z"/>
	<path fill="#FFFFFF" d="M114.3,15.3c-3.3-1.5-7.2-1.5-10.4,0.3c-5.9,3.2-7.3,10.7-4.2,16.4c2.3,4.2,7,6.7,11.9,5.9
		c3.8-0.6,7.2-3.1,8.8-6.5c1.5-3.1,1.4-6.6,0.2-9.6C119.4,18.9,117.2,16.6,114.3,15.3z"/>
</g>
</svg>
