<?xml version="1.0" encoding="utf-8"?>
<!-- Generator: Adobe Illustrator 18.0.0, SVG Export Plug-In . SVG Version: 6.00 Build 0)  -->
<!DOCTYPE svg PUBLIC "-//W3C//DTD SVG 1.1//EN" "http://www.w3.org/Graphics/SVG/1.1/DTD/svg11.dtd">
<svg version="1.1" id="Layer_1" xmlns="http://www.w3.org/2000/svg" xmlns:xlink="http://www.w3.org/1999/xlink" x="0px" y="0px"
	 viewBox="0 0 600 619.1" enable-background="new 0 0 600 619.1" xml:space="preserve">
<rect x="0" y="0" fill="#FFCB07" width="600" height="619.1"/>
<g>
	<path fill="#353535" d="M302.1,564.6c-8.6,11.1-20.7,18.9-33.2,25.4c-26.2,13.5-54.6,21.7-83.3,28.9c-0.1,0.1-0.2,0.2-0.2,0.3
		h273.3c0.2-1.3,0.3-2.5,0.5-3.8c1.6-15-0.5-30.9-8.6-43.7c-13.7-21.8-41-30.3-66.5-33.8c-8.5-1.2-17.2-2-25.8-3
		c-14.2,6.6-29.6,10.6-46.9,11.3C309.6,552.9,306.3,559.2,302.1,564.6z"/>
	<path fill="#FFFFFF" d="M29.2,313.3c-0.6-4.2,0.4-6.9,1.7-8.7c-2.9,0.6-5.8,1.4-8.7,2.3c-5,1.6-9.9,3.5-14.9,5
		c1.5,4.3,11.1,8.3,17.5,8.9c4.4,0.5,8.9-0.1,13-1.5C33.8,320.1,30,318.7,29.2,313.3z"/>
	<path fill="#FFFFFF" d="M11.5,272.9c2.1,0.4,4,0.9,6,1.3c7.2,1.6,14.5,3.4,21.5,5.6c2.8,0.9,6.6,1.8,9.4,2.5
		c-0.9,2.9-4.1,6.4-7,5.6c7.6,5.9,9.1,12.7,13.9,19.2c0,0,0,0,0,0c0.1,0.2,0.3,0.3,0.4,0.5c0.3,0.3-0.2,0.8-0.5,0.5
		c-1.9-1.3-4.1-2.3-6.3-3c0.7,2.1,1.2,5.9-2.1,9.4c0.5-0.3,1-0.6,1.5-0.9c1.6-0.8,3.3-1.4,5.1-1.3c-3.5,0.4-8.1,8.7-22.1,10.3
		c-3.1,0.4-6.3,0.3-9.5-0.2c0,0,0,0,0,0c-14.5,3.4-20.5,22-16.9,35.1c2.3,8.7,19.7,39.8,29.2,56.4c49.9,70.3,84.3,61.4,107.6,49.8
		c11.6-7.4,23.3-17.1,29.1-24.4c20.5-25.9,20.9-39.8,25.5-72.5c4.6-32.7,5.1-65.9,10.5-98.5c-19.2-12.8-26.2-52.9-36.1-76.7
		c-11.4-27.4-45.2-15.4-45.2-15.4c-60.3,42.6-95.4,32.2-121.3,32c-0.2,13.1-2,28.8-4.2,45.4v19.9c1.5-0.7,3.3-1.2,5.1-1.3
		C7.3,272.3,9.4,272.5,11.5,272.9z M170.7,318.6c-0.7,0.4-1.8-0.1-2.5-1.3s-0.8-2.4-0.1-2.8s1.8,0.1,2.5,1.3
		C171.3,316.9,171.4,318.2,170.7,318.6z M174.9,287.6c-5.9,3.3-11.4,3.4-17.5,2.6c2.1,1,7.4,4.6-7.7,11.8c-15.9,7.6-30,1.9-30,1.9
		c12.2,0.8,20.3-0.5,25.8-2.7c-6.9,0.8-11.8-8.4-7.6-13.6c-0.8,0-1.6-0.1-2.4-0.1c-12-0.2-20.1,7.7-23.8,12.3
		c-0.5,0.7-1.6,0.1-1.4-0.7c8.6-30.4,43.2-22.2,49-17.7C165.4,286.3,174.9,287.6,174.9,287.6z M97.4,263.5c3.8,0,9-1.1,12.4-2.8
		c3.8-1.9,7.3-4.3,11.1-6.1c7.9-3.8,16.9-5,25.5-3.6c9.2,1.6,17.6,6.8,24.1,13.4l-0.2,1c0,0-0.2-0.2-0.6-0.7c-0.4-0.4-1-1.1-1.8-1.8
		c-7.7-6.3-17.4-9.6-27.3-7.4c-7.7,1.8-14.3,6.5-21.1,10.6c-3.7,2.2-7.5,4.3-11.6,5.6c-0.3,0.1-2,0.3-3.9,0.5
		C99.9,272.8,96.8,267.5,97.4,263.5z M92.1,375.9c0.6-0.9,1.2-1.8,1.8-2.7c0.8-1.2,1.8-2.4,3.1-3.1c0.8-0.4,1.8-0.6,2.7-0.5
		c0.4,0,0.9,0.1,1.2,0.4c0.7,0.6,0.7,1.8,0.2,2.5c-0.5,0.8-1.4,1.2-2.2,1.6c-2.1,0.9-4.2,1.7-6.3,2.4
		C92.1,376.6,91.9,376.2,92.1,375.9z M71.9,372.4c0.3-0.3,0.7-0.4,1.2-0.5c0.9-0.1,1.9,0,2.8,0.3c1.4,0.6,2.4,1.7,3.3,2.9
		c0.7,0.9,1.3,1.8,2,2.6c0.2,0.3,0,0.7-0.4,0.6c-2.2-0.5-4.4-1.2-6.5-2c-0.9-0.3-1.8-0.7-2.3-1.4C71.3,374.2,71.2,373,71.9,372.4z
		 M83.1,401.6c2.8,0.7,6.7,2.3,8.3,2.2c1.9-0.1,5.1-3.9,8.1-5.4c5.9-2.9,13.8-2.6,20.4-2.7c4.9-0.1,9.6-0.5,14.5-1.1
		c1.6-0.2,2.9,1.1,2.1,2.5c-4.4,8-10.1,17.5-18.1,22c-9.4,5.4-20.4,7.9-31.2,8c-5.3,0.1-10.7-0.5-15.6-2.5
		c-7.2-3-14.1-11.2-19.3-17.1c-0.6-0.7-0.1-1.5,0.8-1.7c4.3-1,9.6-2.3,13.5-3.1C72,401.9,77.7,400.2,83.1,401.6z"/>
	<path fill="#FFFFFF" d="M5.9,312.4c0,0,0.1,0.1,0.1,0.1c0-0.1,0.1-0.1,0.1-0.2C6.1,312.4,6,312.4,5.9,312.4z"/>
	<path fill="#FFFFFF" d="M88.6,417.7c-1.1-0.1-2.2-0.1-3.2-0.2C86.5,417.6,87.5,417.7,88.6,417.7z"/>
	<path fill="#FFFFFF" d="M77.8,412.3c4.8,0.6,10.3,0.8,15.6,0c14-2.1,30.9-10.6,30.9-10.6c-4.5,1.9-9.3,3.3-14,4.5
		c-6.9,1.8-13.8,3.7-20.9,4.3c-6.3,0.6-12.7,0.2-19-0.4c-2.1-0.2-4.2-0.4-6.2-0.7C68,410.5,76.7,411.9,77.8,412.3z"/>
	<path fill="#FFFFFF" d="M154,289.7c0,0,1,3.7-1.4,7.1c3.2-3,3.8-6,3.9-6.7C155.8,290,154.9,289.9,154,289.7
		C154,289.7,154,289.7,154,289.7z"/>
	<path fill="#FFCB07" d="M93.7,476.3c14.6,2,13.2,2,27.3-2.1c5.8-1.7,13.1-5.5,20.5-10.3C118.3,475.5,84,484.4,34,414.1
		c2.2,3.9,4,7.1,5,8.9c1.1,2-27.7-31.3-29.3-32.9c-3.6-3.6-7-7.9-9.8-12.6v16.3C30.3,437.2,68.7,472.8,93.7,476.3z"/>
	<path fill="#FFCB07" d="M4.2,208.3c-1.4,0-2.8,0-4.2,0.1v45.4C2.1,237.1,4,221.4,4.2,208.3z"/>
	<path fill="#FFCB07" d="M9.3,306c6-3.2,11.8-7,18.5-8.5c5.5-1.2,11.4-0.7,16.7,1.4c4.3,1.7,8,4.7,10.9,8.2c0,0,0,0,0,0
		c-4.7-6.4-6.3-13.3-13.9-19.2c-0.1,0-0.1,0-0.2,0c-4.6-1.6-9.3-3.2-13.9-4.7c-3.6-1.2-7.4-2.5-11.2-3.7c-1.9-0.6-3.9-1.3-5.7-1.8
		c-1.8-0.5-3.6-0.9-5.2-0.9c-1.6,0-3.1,0.2-4.5,0.8c-0.3,0.1-0.5,0.2-0.8,0.4v31.9C3.2,309,6.2,307.6,9.3,306z"/>
	<path fill="#FFCB07" d="M39.1,423c-1-1.8-2.8-5-5-8.9c-9.4-16.6-26.8-47.7-29.2-56.4c-3.5-13.1,2.5-31.7,16.9-35.1c0,0,0,0,0,0
		c-2.8-0.4-5.5-1.2-7.9-2.3c-2.8-1.3-9.9-5-7.9-7.8c0,0-0.1-0.1-0.1-0.1c-0.3,0.1-0.7,0.2-1,0.3c-1.6,0.5-3.3,0.9-4.9,1v40.4
		c0.3,3.6,0.2,6.7,0,9.4v14c2.8,4.7,6.1,9,9.8,12.6C11.4,391.7,40.2,424.9,39.1,423z"/>
	<path fill="#353535" d="M110.3,299.2c-0.2,0.8,0.8,1.4,1.4,0.7c3.7-4.6,11.9-12.5,23.8-12.3c0.8,0,1.6,0,2.4,0.1
		c-4.3,5.2,0.7,14.4,7.6,13.6c-5.5,2.2-13.7,3.5-25.8,2.7c0,0,14.1,5.7,30-1.9c15.1-7.3,9.9-10.9,7.7-11.8
		c6.1,0.8,11.7,0.6,17.5-2.6c0,0-9.5-1.3-15.6-6.1C153.4,277,118.9,268.7,110.3,299.2z M152.7,296.9c2.4-3.4,1.4-7.1,1.4-7.1
		c0,0,0,0,0,0c0.9,0.1,1.7,0.3,2.6,0.4C156.5,290.9,155.8,293.8,152.7,296.9z"/>
	<path fill="#353535" d="M103.8,272.4c2-0.2,3.6-0.4,3.9-0.5c4.1-1.3,8-3.4,11.6-5.6c6.8-4.1,13.4-8.9,21.1-10.6
		c9.9-2.3,19.6,1.1,27.3,7.4c0.8,0.7,1.4,1.4,1.8,1.8c0.4,0.4,0.6,0.7,0.6,0.7l0.2-1c-6.5-6.5-15-11.8-24.1-13.4
		c-8.6-1.5-17.6-0.2-25.5,3.6c-3.8,1.8-7.3,4.2-11.1,6.1c-3.4,1.7-8.6,2.8-12.4,2.8C96.8,267.5,99.9,272.8,103.8,272.4z"/>
	<path fill="#353535" d="M92.5,376.5c2.2-0.7,4.3-1.4,6.3-2.4c0.8-0.4,1.7-0.8,2.2-1.6c0.5-0.8,0.6-1.9-0.2-2.5
		c-0.3-0.3-0.8-0.4-1.2-0.4c-0.9-0.1-1.9,0.1-2.7,0.5c-1.3,0.7-2.3,1.9-3.1,3.1c-0.6,0.9-1.1,1.9-1.8,2.7
		C91.9,376.2,92.1,376.6,92.5,376.5z"/>
	<path fill="#353535" d="M74.2,376.4c2.1,0.8,4.3,1.5,6.5,2c0.4,0.1,0.6-0.3,0.4-0.6c-0.7-0.8-1.3-1.7-2-2.6c-0.9-1.2-2-2.3-3.3-2.9
		c-0.9-0.4-1.8-0.5-2.8-0.3c-0.4,0.1-0.9,0.2-1.2,0.5c-0.7,0.6-0.6,1.8,0,2.5C72.4,375.6,73.3,376,74.2,376.4z"/>
	<path fill="#353535" d="M77.8,412.3c-1.2-0.4-9.8-1.8-13.7-2.8c-0.1,0-0.1,0-0.2,0c-0.2,2.7,8.7,5.2,12.6,6.2
		c2.7,0.7,5.6,1.4,8.8,1.8c1,0.1,2.1,0.1,3.2,0.2c1.2,0,2.4,0,3.6-0.2c16.2-2.2,34.2-11.8,32.2-15.7c0,0,0,0,0,0
		c0,0-16.9,8.5-30.9,10.6C88.1,413.1,82.6,412.9,77.8,412.3z"/>
	<path fill="#ED1C24" d="M52.3,407.7c5.2,5.9,12.1,14.1,19.3,17.1c4.9,2,10.3,2.6,15.6,2.5c10.9-0.1,21.8-2.7,31.2-8
		c8-4.5,13.7-14,18.1-22c0.8-1.4-0.5-2.6-2.1-2.5c-4.9,0.6-9.5,1-14.5,1.1c-6.6,0.1-14.5-0.2-20.4,2.7c-3,1.4-6.2,5.3-8.1,5.4
		c-1.6,0.1-5.5-1.5-8.3-2.2c-5.4-1.4-11,0.3-16.5,1.3c-4,0.7-9.2,2-13.5,3.1C52.2,406.2,51.7,407,52.3,407.7z M70.4,410.2
		c6.3,0.6,12.7,1,19,0.4c7.1-0.6,14-2.5,20.9-4.3c4.7-1.3,9.5-2.7,14-4.5c0,0,0,0,0,0c2,3.9-15.9,13.5-32.2,15.7
		c-1.2,0.2-2.4,0.2-3.6,0.2c-1.1,0-2.2-0.1-3.2-0.2c-3.2-0.4-6.2-1.2-8.8-1.8c-3.9-1-12.8-3.5-12.6-6.2c0.1,0,0.1,0,0.2,0
		C66.2,409.8,68.2,410,70.4,410.2z"/>
	<path fill="#ED1C24" d="M600,2c-30.8-5.8-63.5,1.1-91.5,17C498.1,25,488.4,32,479.3,40c4.4,0.5,8.7,1.7,12.7,3.9
		c9.4,5.1,15.7,13.2,19.6,23c9.9,24.3-10.6,49.9-33.6,52.4c-14.9,0-29.8-7.1-38-19.7c-1.8-2.8-3.3-5.8-4.3-9
		c-4.8,7.3-9.4,14.9-13.7,22.7c-12.4,22.5-22.4,46.4-31.2,71c1.4-0.1,2.7-0.2,4.1-0.1c9.8,0.7,20.6,6,26.2,14.2
		c5.8,8.5,6.3,19.3,2.7,28.6c-4.6,11.9-16.3,20.7-29,21.3c-8.3,0.4-16.1-2.9-22.1-8.3c-11.6,38.8-22.7,78.7-44.5,111.5
		c-15.1,22.8-35.3,41.2-58,53.8c12.3-31.6,11.1-67,9.6-101.1c-1-23.7-2-47.5-6.8-70.7c-6.3-30.6-19-59.6-34-87
		c-14.7-26.9-32.3-53.3-57.6-70.6c-25.7-17.6-57.8-24.4-88.8-21.9c-31,2.5-60.9,13.8-87.5,29.8c-1.7,1-3.4,2.1-5.1,3.2v20.4
		c44.3-22.2,105.8-1.9,105.8-1.9v0c10.8,2.6,12.3,5.9,28.5,14.8c20.9,11.5,39.3,29,47.7,51.4c13,34.3,30.8,60.6,24.7,96.8
		c0,0,0,0.1,0,0.1c-5.4,32.6-5.9,65.8-10.5,98.5c-4.6,32.7-4.9,46.6-25.5,72.5c-5.8,7.3-17.5,17-29.1,24.4
		c-7.4,4.7-14.8,8.6-20.5,10.3c-14.2,4.2-12.7,4.2-27.3,2.1c-25.1-3.5-63.5-39.1-93.7-82.5v105.1c8.1,15.1,19.8,28.4,33.5,39
		c16.7,16.5,39.6,26,63,28.9c13.2,1.6,26.4,1.2,39.4-0.8c10.6-0.7,21.2-2.3,31.5-4.7c-22.4,12.3-61.7,13.8-99.5,11.1
		c-18,0-38.3-5.7-52.6-17c-6.8-5.3-11.7-11.8-15.3-19v82.7h185.4c0.1-0.1,0.2-0.2,0.2-0.3c28.6-7.2,57.1-15.3,83.3-28.9
		c12.5-6.5,24.6-14.3,33.2-25.4c4.2-5.4,7.5-11.7,9.4-18.3c17.3-0.7,32.7-4.8,46.9-11.3c35-16.2,62.2-48,89.8-84.4
		c-2.1,0.1-4.2-0.1-6.2-0.7c-17.7-5.1-25.3-27.3-11.5-40.8c8.3-8.1,20-6.6,28.4,0.3c4.9,4,7.9,9.1,8.9,14.9
		c7.9-10.7,16.1-21.6,24.6-32.4c19.3-24.5,34.9-52.8,56.5-74.8c14.3-14.6,32.4-26.4,51.2-30V2z M167.4,511
		c-46.8,16.7-66.8-6.9-66.8-6.9c27.9,5.2,57.5-3,80.8-19.1c23.4-16.2,40.9-39.8,52.7-65.7C234.2,419.4,214.2,494.3,167.4,511z
		 M407.1,434c-12.6,18.3-22.2,40.9-37.6,56.9c-27.8,29-36,37-58,39.9c0.1-9.7-13.3-40.9-19.8-48.1c-6.5-7.2-15.7-11.9-25.3-12.9
		c14.6-1.7,25.1,0.4,33.8,1.1c8.8,0.7,13.7,0.6,22.5,0c15.4-1,30.8-11.8,42.7-21.6c11.9-9.8,22.5-16.9,33.6-27.6
		c17.2-16.6,33.3-31.2,52-46C435.1,393.8,420.8,414.1,407.1,434z M512.7,340.1c-5.7,4.8-12.6,8.5-20.2,9.1
		c-7.7,0.7-15.5-2.7-20.8-8.2c-5.2-5.3-9-12.2-9.3-19.8c-0.6-13.8,12.1-25.5,25.1-27.2c15.8-2,30.6,10.1,32.2,26
		C520.4,327.1,518.3,335.3,512.7,340.1z"/>
	<path fill="#353535" d="M15.3,555.4c14.2,11.3,34.5,17,52.6,17c37.8,2.8,77.2,1.2,99.5-11.1c-10.3,2.4-20.9,4-31.5,4.7
		c-13,2.1-26.2,2.4-39.4,0.8c-23.3-2.9-46.3-12.4-63-28.9C19.8,527.4,8.1,514,0,498.9v37.5C3.6,543.6,8.5,550.1,15.3,555.4z"/>
	<path fill="#353535" d="M5.2,276.8c1.6,0,3.4,0.4,5.2,0.9c1.8,0.5,3.7,1.2,5.7,1.8c3.8,1.3,7.6,2.5,11.2,3.7
		c4.6,1.6,9.3,3.2,13.9,4.7c0.1,0,0.1,0,0.2,0c2.9,0.8,6.1-2.7,7-5.6c-2.8-0.7-6.7-1.6-9.4-2.5c-7-2.2-14.3-4-21.5-5.6
		c-2-0.5-3.9-0.9-6-1.3c-2.1-0.4-4.2-0.6-6.4-0.5c-1.8,0.1-3.6,0.6-5.1,1.3v4.3c0.3-0.1,0.5-0.3,0.8-0.4
		C2.1,277.1,3.6,276.8,5.2,276.8z"/>
	<path fill="#353535" d="M5.9,312.4c0.1,0,0.1,0,0.2-0.1c0,0-0.1,0.1-0.1,0.2c-2.1,2.8,5.1,6.5,7.9,7.8c2.4,1.1,5.1,1.9,7.9,2.3
		c3.2,0.5,6.4,0.5,9.5,0.2c14.1-1.7,18.6-9.9,22.1-10.3c-1.8-0.2-3.5,0.4-5.1,1.3c-0.5,0.3-1,0.6-1.5,0.9c3.3-3.4,2.7-7.3,2.1-9.4
		c2.2,0.7,4.4,1.7,6.3,3c0.4,0.2,0.8-0.2,0.5-0.5c-0.1-0.2-0.3-0.3-0.4-0.5c-2.9-3.6-6.6-6.5-10.9-8.2c-5.2-2.1-11.1-2.6-16.7-1.4
		c-6.6,1.5-12.5,5.3-18.5,8.5c-3,1.6-6.1,3-9.3,3.9v3.9c1.7-0.2,3.3-0.6,4.9-1C5.3,312.6,5.6,312.5,5.9,312.4z M24.8,320.9
		c-6.4-0.7-16-4.6-17.5-8.9c5-1.6,9.9-3.5,14.9-5c2.9-0.9,5.8-1.7,8.7-2.3c-1.3,1.8-2.3,4.5-1.7,8.7c0.7,5.4,4.5,6.7,8.6,6
		C33.7,320.8,29.2,321.4,24.8,320.9z"/>
	<path fill="#353535" d="M181.5,485.1c-23.4,16.2-52.9,24.3-80.8,19.1c0,0,20,23.5,66.8,6.9c46.8-16.7,66.8-91.7,66.8-91.7
		C222.4,445.2,204.8,468.9,181.5,485.1z"/>
	<path fill="#353535" d="M0,354.1v9.4C0.2,360.8,0.3,357.7,0,354.1z"/>
	<path fill="#353535" d="M4.2,208.3c25.9,0.2,60.9,10.6,121.3-32c0,0,33.7-12,45.2,15.4c9.9,23.8,16.9,63.9,36.1,76.7
		c0,0,0-0.1,0-0.1c6.1-36.2-11.7-62.5-24.7-96.8c-8.4-22.3-26.8-39.9-47.7-51.4c-16.2-8.9-17.7-12.2-28.5-14.8v0
		c0,0-61.4-20.3-105.8,1.9v101.2C1.4,208.3,2.8,208.3,4.2,208.3z"/>
	
		<ellipse transform="matrix(-0.544 -0.8391 0.8391 -0.544 -4.0633 630.9639)" fill="#353535" cx="169.4" cy="316.6" rx="2.4" ry="1.4"/>
	<path fill="#353535" d="M365.5,449.3c-11.9,9.8-27.3,20.6-42.7,21.6c-8.8,0.6-13.7,0.7-22.5,0c-8.8-0.7-19.2-2.8-33.8-1.1
		c9.6,1,18.9,5.7,25.3,12.9c6.5,7.2,19.8,38.4,19.8,48.1c22-2.9,30.2-10.9,58-39.9c15.4-16,25-38.6,37.6-56.9
		c13.7-19.9,28-40.2,44-58.3c-18.7,14.8-34.8,29.5-52,46C388,432.4,377.4,439.5,365.5,449.3z"/>
	<path fill="#FFFFFF" d="M478,119.3c23-2.6,43.5-28.2,33.6-52.4c-4-9.8-10.3-18-19.6-23c-4.1-2.2-8.4-3.4-12.7-3.9
		c-17-1.8-34.8,8.6-42.3,24.2c-1.5,3.1-2.5,6.3-2.9,9.7c-0.7,5.6-0.1,11.4,1.7,16.8c1,3.2,2.5,6.2,4.3,9
		C448.2,112.2,463.2,119.3,478,119.3z"/>
	<path fill="#FFFFFF" d="M458.8,409.3c-8.4-6.9-20.1-8.4-28.4-0.3c-13.7,13.5-6.2,35.7,11.5,40.8c2,0.6,4.1,0.8,6.2,0.7
		c4.8-0.2,9.5-2,13.2-4.9c4.9-3.9,6.8-10.6,6.8-16.6c0-1.6-0.1-3.2-0.4-4.7C466.7,418.3,463.7,413.3,458.8,409.3z"/>
	<path fill="#FFFFFF" d="M394.9,248.4c12.7-0.6,24.4-9.4,29-21.3c3.6-9.3,3.1-20-2.7-28.6c-5.6-8.3-16.4-13.6-26.2-14.2
		c-1.4-0.1-2.8-0.1-4.1,0.1c-10.3,1-19.3,8-24.7,16.6c-4.3,6.9-5.8,15.2-3.5,23c1.8,6.2,5.4,11.8,10.2,16.1
		C378.8,245.5,386.7,248.8,394.9,248.4z"/>
	<path fill="#FFFFFF" d="M487.4,294c-13,1.7-25.7,13.4-25.1,27.2c0.3,7.6,4.1,14.5,9.3,19.8c5.3,5.5,13.1,8.9,20.8,8.2
		c7.6-0.7,14.4-4.3,20.2-9.1c5.6-4.7,7.7-13,7-20.1C518.1,304.1,503.3,292,487.4,294z"/>
	<path fill="#FFFFFF" d="M316.6,19.8c-9.9-4.4-21.7-4.5-31.3,0.8c-17.8,9.7-22,32.4-12.7,49.3c7,12.8,21.2,20.2,35.8,17.9
		c11.3-1.8,21.5-9.3,26.5-19.7c4.5-9.4,4.3-19.9,0.6-28.9C332,30.8,325.4,23.7,316.6,19.8z"/>
</g>
</svg>
