<?xml version="1.0" encoding="utf-8"?>
<!-- Generator: Adobe Illustrator 18.0.0, SVG Export Plug-In . SVG Version: 6.00 Build 0)  -->
<!DOCTYPE svg PUBLIC "-//W3C//DTD SVG 1.1//EN" "http://www.w3.org/Graphics/SVG/1.1/DTD/svg11.dtd">
<svg version="1.1" id="Layer_1" xmlns="http://www.w3.org/2000/svg" xmlns:xlink="http://www.w3.org/1999/xlink" x="0px" y="0px"
	 viewBox="0 0 33.5 33.5" enable-background="new 0 0 33.5 33.5" xml:space="preserve">
<g id="camera">
	<g>
		<g>
			<g>
				<path fill="#353535" d="M16.7,33.5C7.5,33.5,0,26,0,16.7S7.5,0,16.7,0s16.7,7.5,16.7,16.7S26,33.5,16.7,33.5z M16.7,1
					C8.1,1,1,8.1,1,16.7s7.1,15.7,15.7,15.7c8.7,0,15.7-7.1,15.7-15.7S25.4,1,16.7,1z"/>
			</g>
			<g>
				<path fill="#353535" d="M16.7,31.4c-8.1,0-14.7-6.6-14.7-14.7S8.7,2.1,16.7,2.1s14.7,6.6,14.7,14.7S24.8,31.4,16.7,31.4z
					 M16.7,3.1C9.2,3.1,3.1,9.2,3.1,16.7s6.1,13.7,13.7,13.7c7.5,0,13.7-6.1,13.7-13.7S24.3,3.1,16.7,3.1z"/>
			</g>
			<g>
				<path fill="#353535" d="M16.7,29.3c-6.9,0-12.6-5.6-12.6-12.6S9.8,4.2,16.7,4.2c6.9,0,12.6,5.6,12.6,12.6S23.7,29.3,16.7,29.3z
					 M16.7,5.2c-6.4,0-11.6,5.2-11.6,11.6s5.2,11.6,11.6,11.6s11.6-5.2,11.6-11.6S23.1,5.2,16.7,5.2z"/>
			</g>
		</g>
		<g>
			<g>
				<path fill="#353535" d="M16.7,8.7c-3,0-5.4,2.4-5.4,5.4c0,3,4.7,10.7,5.4,10.7c0.7,0,5.4-7.7,5.4-10.7
					C22.2,11.1,19.8,8.7,16.7,8.7z M16.7,17.9c-2.1,0-3.8-1.7-3.8-3.8c0-2.1,1.7-3.8,3.8-3.8c2.1,0,3.8,1.7,3.8,3.8
					C20.5,16.2,18.8,17.9,16.7,17.9z"/>
			</g>
		</g>
	</g>
</g>
</svg>
