<?xml version="1.0" encoding="utf-8"?>
<!-- Generator: Adobe Illustrator 18.0.0, SVG Export Plug-In . SVG Version: 6.00 Build 0)  -->
<!DOCTYPE svg PUBLIC "-//W3C//DTD SVG 1.1//EN" "http://www.w3.org/Graphics/SVG/1.1/DTD/svg11.dtd">
<svg version="1.1" id="Layer_1" xmlns="http://www.w3.org/2000/svg" xmlns:xlink="http://www.w3.org/1999/xlink" x="0px" y="0px"
	 viewBox="0 0 521.5 173.5" enable-background="new 0 0 521.5 173.5" xml:space="preserve">
<path fill="#69C4A5" d="M516.2,147.6c10.1,7.2,5.1,23-9.4,25.4c-2,0.3-4,0.5-6,0.5c-8.4,0-16.5-2.9-22.4-8.7
	c-9.1-8.9-11.6-22.3-7-34l7.5-19.1c1.5-3.9,1-8.1-1.3-11.4c-2.1-2.9-6.7-4.8-10.4-4.8c-9.4,0.6-17.3,6.3-20.5,14.6l-10.3,26.2
	c-9.9,22.7-31.3,37.3-54.7,37.3c-13.7,0-27.1-6.7-35.5-17.6c-1.6-0.5-2-0.3-2.3,0.1c-8.3,11.4-19.9,17.6-33.3,17.6
	c-8.8,0-16.6-4.2-22-10.6c-9.4,6.2-19.3,10.6-30,10.6c-9.2,0-17.5-3.8-23.2-10.4c-0.3-0.4-0.7-0.5-1.1-0.5
	c-7.3,5.8-15.1,9.4-23.4,10.5c-1.7,0.2-3.4,0.3-5,0.3c-8.4,0-16.5-2.9-22.4-8.7c-9.1-8.9-11.6-22.3-7-34l3-7.7
	c0.3-0.9-0.3-1.8-1.2-1.8c-2.5,0.4-4.8,0.6-7.1,0.6c-1.7,0-3.3-0.1-4.9-0.4c-0.8,0-1.3,0.3-1.5,0.9c-6,16-16.2,30.1-29.6,40
	c-10.1,7.4-19.8,11.1-32.8,11.1c-13,0-26-3.7-35.8-11.1c-2.7-2.1-5.2-4.1-7.3-6.5c-0.3-0.3-0.7-0.5-1.1-0.5c-0.6,0-1.2,0.4-1.5,1
	l-3,7.6c-2.3,5.8-7.9,9.5-13.9,9.5c-1,0-2-0.1-2.9-0.3c-2.2-0.4-4.4-1.7-5.7-3.5c-0.3-0.4-0.4-1-0.2-1.5L45,131.7l9.2-23.2l9.1-23.3
	c2.3-5.8,7.9-9.5,13.9-9.5c1,0,2,0.1,2.9,0.3c2.2,0.4,4.4,1.7,5.7,3.5c0.3,0.4,0.4,1,0.2,1.5l-13.2,33.8c-5.4,13.7-4,25.6,5.4,32.7
	c5.8,4.4,13.1,6.4,20.6,6.4c8.8,0,17.8-2.8,25-7.8c17.8-12.4,27.7-34.8,27-58.2c-0.8-26.4-19.8-49.2-45.2-54.1
	c-3.2-0.6-9.7-1.5-17.9-1.5c-22.9,0-59.2,7.1-74.2,47.6c-0.2,0.6-0.9,1.1-1.5,1.1C1.5,77.9-3,66.4,2.2,57.1
	c10.4-18.6,26.2-31.9,46.4-39.1c13-4.6,26-6,37-6c10.7,0,19.4,1.3,24.3,2.3c34.1,6.6,59.6,37,60.7,72.3c0.1,4.6-0.1,9.2-0.6,13.8
	c-0.1,0.8,0.4,1.4,1.2,1.5c0.5,0,1,0.1,1.6,0.1c2.2,0,4.4-0.4,6.4-1c6-1.8,11.1-6.2,13.6-12l1.5-3.9c2.3-5.8,7.9-9.5,13.8-9.5
	c1,0,2,0.1,2.9,0.3c2.2,0.4,4.4,1.7,5.7,3.5c0.3,0.4,0.4,1,0.2,1.5l-22.2,56.6c-3.1,7.8,2.7,16.4,10.9,16.4c9.3,0,17.9-6,21.3-14.7
	l21.2-54c2.3-5.8,7.9-9.5,13.9-9.5c1,0,2,0.1,2.9,0.3c2.2,0.4,4.4,1.7,5.7,3.5c0.3,0.4,0.4,1,0.2,1.5l-22.3,56.8
	c-1.5,3.8-1.1,7.9,1,11.1c2.4,3.5,6.4,4.9,10.6,4.9c2.2,0,4.4-0.4,6.4-1c6.2-1.9,11.4-6.4,13.8-12.6l38.6-98.2
	c0.3-0.8-0.1-1.6-0.9-1.8C298.8,35,278.3,31,259.1,31c-9,0-17.7,0.9-25.8,3c-18,4.6-32,14.6-38.8,28.9c-0.3,0.7-1.1,1.2-1.8,1.2
	c-10.3-4.1-13.1-16.3-6.2-24.4c9.7-11.4,25.5-20.5,42.5-24.8c10-2.5,20.4-3.6,31-3.6c22,0,44.7,4.7,65.6,10.3c1,0.1,1.6-0.3,1.9-1
	l4.3-10.9c2.3-5.8,7.9-9.5,13.9-9.5c1,0,2,0.1,2.9,0.3c2.2,0.5,4.4,1.7,5.7,3.5c0.3,0.4,0.4,1,0.2,1.5l-8,20.3
	c-0.3,0.8,0.1,1.7,0.9,2c12.7,3.9,28.2,8.5,40.9,11.4c11.7,2.7,23.7,4.8,35.7,6c6.6,0.6,13.2,1,19.9,1c2,0,4,0,6-0.1
	c0.6,0,1.2-0.4,1.4-1l4.3-10.9C461.9,17.3,475.6,0,494.7,0c0.9,0,1.9,0,2.9,0.1c12,1.1,21,9.9,22,21.5c1.2,14.3-7.3,25.4-19.1,32.6
	c-2.9,1.8-6,2.6-9.1,2.6c-7,0-13.6-4.3-16-11.5c-0.4-1.1,0.4-2.3,1.5-2.6c9.7-2.3,23.7-9.1,22.9-18.9c-0.2-2.6-2.5-3.9-4.6-4.1
	c-10.1,0-17.7,11.1-21.5,21l-13.2,33.5c-0.3,0.9,0.3,1.8,1.2,1.8c2.4-0.4,4.6-0.6,6.8-0.6c6.4,0,12.6,1.9,17.8,5.5
	c12.2,8.6,16.1,24,10.9,37.3l-7.5,19.1c-3.1,7.8,2.7,16.4,10.9,16.4C506.5,153.8,512,151.4,516.2,147.6z M442.4,67
	c0.2-0.6-0.2-1.1-0.8-1.1c-12.9-0.1-25.8-1.4-38.5-3.4c-11.7-1.9-23.3-4.6-34.8-7.7c-8.2-2.2-20.3-5.9-28.8-8.5
	c-0.9-0.1-1.5,0.3-1.7,0.8l-35.6,90.5c-1.7,4.4-1.4,8.9,0.7,12.1c1.2,1.8,3.6,4,7.9,4c3.2,0,12.7-0.1,20-14.2l9-22.8
	c6.6-16.9,10.6-24.2,21.1-33.2c5.8-5,15.6-7.9,24.1-7.9c1.6,0,3.1,0.1,4.5,0.3c7.6,1.1,13.8,5,17.4,11c2.5,4.1,3.6,8.5,3.5,13
	c-0.1,8.3-7.2,13.9-14.5,13.9c-3,0-6-0.9-8.6-3.1c-1.2-1-1.2-2.8-0.1-3.9c1.3-1.3,2.3-2.7,2.9-4.1c1.6-3.6-0.7-8-4.5-8.7
	c-1.1-0.2-2.3-0.3-3.5-0.3c-3.2,0-6.9,0.8-9.7,3.2c-8,6.8-9.3,12.7-14.1,26.6c-2.5,8.6,0.1,15.2,2.4,18.7c4.8,7.1,13,11.6,21.3,11.6
	c15.3,0,29.4-9.8,36-25L442.4,67"/>
</svg>
