<?xml version="1.0" encoding="utf-8"?>
<!-- Generator: Adobe Illustrator 18.0.0, SVG Export Plug-In . SVG Version: 6.00 Build 0)  -->
<!DOCTYPE svg PUBLIC "-//W3C//DTD SVG 1.1//EN" "http://www.w3.org/Graphics/SVG/1.1/DTD/svg11.dtd">
<svg version="1.1" id="Layer_1" xmlns="http://www.w3.org/2000/svg" xmlns:xlink="http://www.w3.org/1999/xlink" x="0px" y="0px"
	 viewBox="0 0 37.6 37.6" enable-background="new 0 0 37.6 37.6" xml:space="preserve">
<g>
	<g>
		<path fill="#FFFFFF" d="M18.8,37.6C8.4,37.6,0,29.2,0,18.8S8.4,0,18.8,0s18.8,8.4,18.8,18.8S29.2,37.6,18.8,37.6z M18.8,1.5
			C9.3,1.5,1.5,9.3,1.5,18.8s7.8,17.3,17.3,17.3s17.3-7.8,17.3-17.3S28.4,1.5,18.8,1.5z"/>
	</g>
	<g>
		<path fill="#FFFFFF" d="M16.8,28.6c-0.2,0-0.4-0.1-0.5-0.2c-0.3-0.3-0.3-0.8,0-1.1l7.7-7.7L16.3,12c-0.3-0.3-0.3-0.8,0-1.1
			c0.3-0.3,0.8-0.3,1.1,0l8.2,8.2c0.3,0.3,0.3,0.8,0,1.1l-8.2,8.2C17.2,28.5,17,28.6,16.8,28.6z"/>
	</g>
</g>
</svg>
