<?xml version="1.0" encoding="utf-8"?>
<!-- Generator: Adobe Illustrator 18.0.0, SVG Export Plug-In . SVG Version: 6.00 Build 0)  -->
<!DOCTYPE svg PUBLIC "-//W3C//DTD SVG 1.1//EN" "http://www.w3.org/Graphics/SVG/1.1/DTD/svg11.dtd">
<svg version="1.1" id="Layer_1" xmlns="http://www.w3.org/2000/svg" xmlns:xlink="http://www.w3.org/1999/xlink" x="0px" y="0px"
	 viewBox="0 0 24 24" enable-background="new 0 0 24 24" xml:space="preserve">
<g id="camera">
	<path fill="#FFFFFF" d="M12,0C5.4,0,0,5.4,0,12s5.4,12,12,12s12-5.4,12-12S18.6,0,12,0z M12,23C5.9,23,1,18.1,1,12S5.9,1,12,1
		c6.1,0,11,4.9,11,11S18.1,23,12,23z M18.6,8.6c-0.2-0.2-0.5-0.3-0.7-0.1c-0.2,0.2-0.3,0.5-0.1,0.7c0.9,1.3,1.3,2.9,1.1,4.5
		c-0.3,1.6-1.1,3-2.4,3.9C14,19.3,10.8,19,8.7,17l3.3,0h0c0.3,0,0.5-0.2,0.5-0.5c0-0.3-0.2-0.5-0.5-0.5l-4.4,0h0c0,0,0,0-0.1,0
		c0,0-0.1,0-0.1,0c0,0-0.1,0-0.1,0c0,0,0,0-0.1,0c0,0,0,0,0,0c0,0,0,0-0.1,0.1c0,0,0,0.1-0.1,0.1c0,0,0,0.1,0,0.1c0,0,0,0.1,0,0.1
		c0,0,0,0,0,0l0,4.4c0,0.3,0.2,0.5,0.5,0.5h0c0.3,0,0.5-0.2,0.5-0.5l0-3.1c1.3,1.2,3,1.9,4.8,1.9c1.4,0,2.8-0.4,4.1-1.3
		C20.1,16.2,20.9,11.8,18.6,8.6z M7.6,6.4c1.3-0.9,2.9-1.3,4.5-1.1c1.2,0.2,2.3,0.8,3.2,1.6l-3.3,0c-0.3,0-0.5,0.2-0.5,0.5
		c0,0.3,0.2,0.5,0.5,0.5c0,0,0,0,0,0l4.4,0c0,0,0,0,0.1,0c0,0,0.1,0,0.1,0c0,0,0.1,0,0.1,0c0,0,0,0,0,0c0,0,0,0,0,0c0,0,0,0,0.1-0.1
		c0,0,0,0,0.1-0.1c0,0,0-0.1,0-0.1c0,0,0-0.1,0-0.1c0,0,0,0,0,0l0-4.4c0-0.3-0.2-0.5-0.5-0.5c0,0,0,0,0,0c-0.3,0-0.5,0.2-0.5,0.5
		l0,3.1c-1-0.9-2.3-1.6-3.6-1.8C10.4,4.1,8.5,4.5,7,5.6c-3.1,2.3-3.8,6.6-1.6,9.8c0.1,0.1,0.3,0.2,0.4,0.2c0.1,0,0.2,0,0.3-0.1
		c0.2-0.2,0.3-0.5,0.1-0.7C4.3,12.1,4.9,8.3,7.6,6.4z"/>
</g>
</svg>
