<?xml version="1.0" encoding="utf-8"?>
<!-- Generator: Adobe Illustrator 18.0.0, SVG Export Plug-In . SVG Version: 6.00 Build 0)  -->
<!DOCTYPE svg PUBLIC "-//W3C//DTD SVG 1.1//EN" "http://www.w3.org/Graphics/SVG/1.1/DTD/svg11.dtd">
<svg version="1.1" id="Layer_1" xmlns="http://www.w3.org/2000/svg" xmlns:xlink="http://www.w3.org/1999/xlink" x="0px" y="0px"
	 viewBox="0 0 25.1 52.8" enable-background="new 0 0 25.1 52.8" xml:space="preserve">
<g id="camera">
	<g>
		<path fill="#62C6C2" d="M25,26.2c-0.4-1.3-0.8-2.7-1.1-4c-0.9-3.1-1.8-6.2-2.7-9.3c-0.4-1.5-1.3-2.1-2.8-2.1c-2.6,0-3.3,0-5.9,0h0
			c-2.3,0-4.5,0-6.8,0c-0.2,0-0.4,0-0.6,0c-1.1,0.1-1.9,0.7-2.3,1.7c-0.1,0.4-0.2,0.9-0.3,1.3c-0.6,3.3-1.3,6.6-1.9,10
			C0.3,25,0.1,26.2,0,27.4c-0.1,1.4,1,2.5,2.4,2.6C3.8,30,5,29.1,5.2,27.7c0.5-3,0.9-5.9,1.4-8.9c0-0.2,0.1-0.3,0.1-0.5
			c0,0,0.1,0,0.1,0c0,0.2,0,0.4,0,0.6c0,4.9,0,9.8,0,14.8c0,5.4,0,10.8,0,16.2c0,0.9,0.3,1.7,1,2.3c0.3,0.2,0.7,0.4,1.1,0.6
			c0.3,0,0.7,0,1,0c0.4-0.2,0.9-0.4,1.3-0.7c0.7-0.6,0.9-1.4,0.9-2.2c0-3.7,0-7.3,0-11c0.4,0,0.8,0,1,0c0,0.2,0,0.4,0,0.5
			c0,3.3,0,6.6,0,9.9c0,1.7,0.4,2.9,2.1,3.5c0.3,0,0.7,0,1,0c0,0,0-0.1,0.1-0.1c1.5-0.4,2.1-1.6,2.1-3.1c0-3.4,0-6.7,0-10.1
			c0-0.7,0-0.7,0.8-0.9c1.4-0.2,2.4-1.7,2.1-3c-0.1-0.6-0.3-1.2-0.4-1.8c-0.6-2.9-1.2-5.7-1.8-8.6c-0.1-0.6-0.3-1.3-0.4-1.9
			c0,0,0.1,0,0.1,0c0.2,0.8,0.4,1.6,0.7,2.4c0.3,0.9,0.4,1.8,0.8,2.7c0.8,1.8,3.3,2,4.4,0.4C25.2,28,25.2,27.1,25,26.2z"/>
		<path fill="#62C6C2" d="M7.9,7.7c0.9,1.7,2.4,2.6,4.2,2.7c2.7,0.1,4.9-1.7,5.4-4.3c0-0.3,0.1-0.5,0.1-0.8c0-1.8-1-3.7-2.5-4.5
			c-0.6-0.3-1.3-0.5-2-0.8c-0.4,0-0.9,0-1.3,0c-0.1,0-0.2,0.1-0.2,0.1c-1.1,0.2-2,0.7-2.8,1.5c-1,1-1.5,2.4-1.5,3.7
			C7.2,6.1,7.4,6.9,7.9,7.7z"/>
	</g>
</g>
</svg>
