<?xml version="1.0" encoding="utf-8"?>
<!-- Generator: Adobe Illustrator 18.0.0, SVG Export Plug-In . SVG Version: 6.00 Build 0)  -->
<!DOCTYPE svg PUBLIC "-//W3C//DTD SVG 1.1//EN" "http://www.w3.org/Graphics/SVG/1.1/DTD/svg11.dtd">
<svg version="1.1" id="Layer_1" xmlns="http://www.w3.org/2000/svg" xmlns:xlink="http://www.w3.org/1999/xlink" x="0px" y="0px"
	 viewBox="0 0 24.8 52.8" enable-background="new 0 0 24.8 52.8" xml:space="preserve">
<g id="camera">
	<g>
		<path fill="#61c5c1" d="M8.9,52.8c-0.3-0.2-0.7-0.3-1-0.5c-0.8-0.6-1.1-1.4-1.1-2.3c0-3.5,0-7.1,0-10.6c0-0.4-0.1-0.6-0.5-0.6
			c-1.9-0.1-2.7-2-2.3-3.5c0.5-1.8,0.8-3.7,1.2-5.5c0.4-2,0.8-4,1.2-6c0-0.1,0-0.2,0-0.4C6.2,24,6,24.5,5.9,25.1
			c-0.2,0.9-0.5,1.8-0.7,2.7c-0.5,2.1-2.8,2.8-4.4,1.4c-0.5-0.4-0.8-1-0.8-1.6c0-0.5,0-1,0.1-1.5c1-3.7,2.1-7.3,3.1-11
			c0.2-0.8,0.5-1.6,0.7-2.4c0.4-1.2,1.3-1.9,2.6-1.9c1.2,0,2.4,0,3.6,0c2.6,0,5.2,0,7.8,0c1.5,0,2.4,0.6,2.8,2.1
			c0.9,3.1,1.8,6.2,2.7,9.3c0.4,1.3,0.8,2.7,1.1,4c0.2,0.9,0.2,1.9-0.4,2.7c-1.1,1.6-3.7,1.4-4.4-0.4c-0.4-0.9-0.5-1.8-0.8-2.7
			c-0.2-0.8-0.4-1.6-0.7-2.4c0,0-0.1,0-0.1,0c0.1,0.6,0.2,1.3,0.4,1.9c0.6,2.9,1.2,5.7,1.8,8.6c0.1,0.6,0.3,1.2,0.4,1.8
			c0.3,1.4-0.7,2.8-2.1,3C18,38.8,18,38.8,18,39.6c0,3.4,0,6.7,0,10.1c0,1.5-0.6,2.7-2.1,3.1c0,0,0,0-0.1,0.1c-0.3,0-0.7,0-1,0
			c-1.7-0.6-2.2-1.8-2.1-3.5c0.1-3.3,0-6.6,0-9.9c0-0.2,0-0.4,0-0.5c-0.2,0-0.4,0-0.6,0c0,0.2,0,0.4,0,0.6c0,3.5,0,7,0,10.5
			c0,0.9-0.2,1.6-0.9,2.2c-0.4,0.3-0.8,0.5-1.3,0.7C9.6,52.8,9.3,52.8,8.9,52.8z"/>
		<path fill="#61c5c1" d="M13.1,0c0.7,0.3,1.4,0.4,2,0.8c1.8,1,2.8,3.3,2.5,5.3c-0.5,2.6-2.7,4.4-5.4,4.3c-1.9-0.1-3.3-1-4.2-2.7
			C6.7,5.6,7.1,3.2,8.7,1.6c0.8-0.8,1.7-1.2,2.8-1.5c0.1,0,0.2-0.1,0.2-0.1C12.2,0,12.6,0,13.1,0z"/>
	</g>
</g>
</svg>
